<?xml version="1.0" encoding="utf-8"?>
<!-- Generator: Adobe Illustrator 17.0.2, SVG Export Plug-In . SVG Version: 6.00 Build 0)  -->
<!DOCTYPE svg PUBLIC "-//W3C//DTD SVG 1.1//EN" "http://www.w3.org/Graphics/SVG/1.1/DTD/svg11.dtd">
<svg version="1.1" id="Capa_1" xmlns="http://www.w3.org/2000/svg" xmlns:xlink="http://www.w3.org/1999/xlink" x="0px" y="0px"
	 width="88px" height="98px" viewBox="0 0 88 98" enable-background="new 0 0 88 98" xml:space="preserve">
<g id="angular">
	<g>
		<polygon fill="#929393" points="6.802,75.912 6.577,73.901 1.23,19.142 42.504,4.157 43.951,3.58 44.045,3.613 44.139,3.58 
			45.584,4.157 86.167,18.499 81.465,73.858 81.233,75.912 44.045,96.467 		"/>
		<polygon fill="#B3B3B3" points="6.535,73.865 0.162,17.057 42.46,2.111 43.906,1.533 44,1.566 44.094,1.533 45.54,2.111 
			87.838,17.057 81.465,73.865 44,94.42 		"/>
		<polygon fill="#929393" points="44.016,6.999 44,7.004 43.984,6.999 5.701,20.528 11.325,70.655 44,88.583 76.675,70.655 
			82.299,20.528 		"/>
		<polygon fill="#B82934" points="44.016,9.045 44,9.051 43.984,9.045 5.701,22.575 11.325,72.702 44,90.63 76.675,72.702 
			82.299,22.575 		"/>
		<polygon fill="#E52A3A" points="5.701,22.575 11.325,72.702 43.906,90.578 43.906,9.074 		"/>
		<polygon fill="none" points="44.016,6.999 44,7.004 43.984,6.999 5.701,20.528 11.325,70.655 44,88.583 76.675,70.655 
			82.299,20.528 		"/>
		<path fill="#B3B3B3" d="M17.433,70.106c8.863-19.719,17.647-39.261,26.559-59.089c9.289,19.843,18.459,39.431,27.715,59.205
			c-0.513,0-0.835,0.005-1.156,0c-2.455-0.041-4.91-0.114-7.365-0.106c-0.745,0.003-1.066-0.285-1.342-0.939
			c-1.65-3.9-3.364-7.772-5.01-11.674c-0.287-0.679-0.652-0.901-1.374-0.887c-3.621,0.067-7.243,0.106-10.864,0.111
			c-3.65,0.004-7.302-0.026-10.953-0.082c-0.658-0.01-0.973,0.203-1.214,0.815c-1.523,3.883-3.102,7.746-4.622,11.632
			c-0.253,0.647-0.59,0.867-1.278,0.87c-2.67,0.014-5.339,0.091-8.009,0.143C18.226,70.112,17.931,70.106,17.433,70.106z
			 M44.11,30.147c-2.655,6.299-5.206,12.352-7.797,18.5c5.601,0,11.04,0,16.649,0C50.013,42.485,47.122,36.443,44.11,30.147z"/>
		<path fill="#FFFFFF" d="M36.313,48.647c2.524-5.99,5.012-11.893,7.593-18.018V11.206c-8.883,19.764-17.639,39.243-26.473,58.9
			c0.498,0,0.793,0.006,1.088,0c2.669-0.052,5.339-0.13,8.009-0.143c0.688-0.002,1.024-0.222,1.278-0.87
			c1.52-3.886,3.099-7.749,4.622-11.632c0.24-0.612,0.556-0.825,1.214-0.815c3.42,0.052,6.842,0.076,10.263,0.076v-8.075
			C41.388,48.647,38.867,48.647,36.313,48.647z"/>
	</g>
</g>
</svg>
