<?xml version="1.0" encoding="utf-8"?>
<!-- Generator: Adobe Illustrator 17.0.2, SVG Export Plug-In . SVG Version: 6.00 Build 0)  -->
<!DOCTYPE svg PUBLIC "-//W3C//DTD SVG 1.1//EN" "http://www.w3.org/Graphics/SVG/1.1/DTD/svg11.dtd">
<svg version="1.1" id="Capa_1" xmlns="http://www.w3.org/2000/svg" xmlns:xlink="http://www.w3.org/1999/xlink" x="0px" y="0px"
	 width="73px" height="98px" viewBox="0 0 73 98" enable-background="new 0 0 73 98" xml:space="preserve">
<g id="backbone">
	<g>
		<polygon fill="#0271B5" points="72.423,4.455 36.5,24.272 36.5,38.79 61.804,24.891 61.804,46.264 36.5,60.162 36.5,73.728 
			72.423,53.912 		"/>
		<polygon fill="#002941" points="72.423,44.088 36.5,24.272 36.5,38.79 61.103,52.303 61.103,73.677 36.5,60.162 36.5,73.728 
			72.423,93.545 		"/>
		<polygon fill="#002941" points="11.196,46.264 11.196,24.891 36.5,38.79 36.5,24.272 0.577,4.455 0.577,53.912 36.5,73.728 
			36.5,60.162 		"/>
		<polygon fill="#0271B5" points="11.897,73.677 11.897,52.303 36.5,38.79 36.5,24.272 0.577,44.088 0.577,93.545 36.5,73.728 
			36.5,60.162 		"/>
	</g>
</g>
</svg>
