<?xml version="1.0" encoding="utf-8"?>
<!-- Generator: Adobe Illustrator 17.0.2, SVG Export Plug-In . SVG Version: 6.00 Build 0)  -->
<!DOCTYPE svg PUBLIC "-//W3C//DTD SVG 1.1//EN" "http://www.w3.org/Graphics/SVG/1.1/DTD/svg11.dtd">
<svg version="1.1" id="Capa_1" xmlns="http://www.w3.org/2000/svg" xmlns:xlink="http://www.w3.org/1999/xlink" x="0px" y="0px"
	 width="84px" height="98px" viewBox="0 0 84 98" enable-background="new 0 0 84 98" xml:space="preserve">
<g id="clojure">
	<g>
		<circle fill="#FFFFFF" cx="42" cy="49" r="41.82"/>
		<g>
			<path fill="#73BB41" d="M26.301,31.105c-1.198,1.409-2.446,2.715-3.508,4.158c-2.084,2.835-3.536,5.995-4.004,9.497
				c-0.285,2.138-0.475,4.335-0.313,6.476c0.309,4.079,1.755,7.826,4.091,11.197c2.274,3.281,5.216,5.826,8.777,7.618
				c2.336,1.175,4.806,1.935,7.422,2.292c4.434,0.606,8.677,0.024,12.727-1.831c0.906-0.415,1.66-0.135,2.497,0.024
				c1.81,0.343,3.619,0.735,5.448,0.929c1.715,0.182,3.47,0.307,5.179,0.151c2.604-0.238,5.184-0.74,7.904-1.15
				c-0.893,1.118-1.716,2.264-2.656,3.305c-3.558,3.941-7.721,7.079-12.581,9.255c-3.154,1.412-6.429,2.438-9.869,2.855
				c-1.743,0.211-3.5,0.485-5.246,0.458c-3.595-0.056-7.161-0.463-10.628-1.506c-5.099-1.534-9.7-3.974-13.755-7.445
				C11.312,71.85,7.242,64.877,5.387,56.6c-0.78-3.483-0.897-7.045-0.65-10.587c0.202-2.895,1.591-5.42,3.166-7.795
				c2.373-3.576,5.647-5.948,9.823-7.036C20.593,30.435,23.462,30.318,26.301,31.105z"/>
			<path fill="#6A96E0" d="M11.556,27.029c1.77-1.904,3.443-3.912,5.333-5.688c2.628-2.47,5.627-4.457,8.897-6.011
				c3.507-1.667,7.166-2.808,11.026-3.317c7.965-1.049,15.521,0.214,22.625,3.982c6.371,3.38,11.335,8.233,14.944,14.476
				c2.274,3.934,3.762,8.159,4.462,12.633c0.567,3.624,0.834,7.322,0.029,10.917c-1.393,6.217-5.336,10.041-11.567,11.519
				c-2.631,0.624-5.289,0.454-7.944,0.475c-0.251,0.002-0.503-0.124-0.834-0.211c1.931-1.957,3.507-4.075,4.657-6.488
				c1.371-2.876,2.159-5.883,2.327-9.093c0.291-5.557-1.197-10.548-4.42-15.044c-3.475-4.846-8.182-7.843-13.946-9.254
				c-2.456-0.601-4.959-0.622-7.439-0.455c-2.213,0.149-4.397,0.658-6.442,1.598c-0.562,0.258-1.022,0.215-1.574-0.135
				c-2.117-1.34-4.471-2.01-6.945-2.341c-4.033-0.54-7.877,0.015-11.518,1.856c-0.484,0.245-0.943,0.536-1.414,0.805
				C11.726,27.178,11.641,27.104,11.556,27.029z"/>
			<path fill="#A0C3FE" d="M35.747,30.114c1.423-0.278,2.839-0.696,4.278-0.809c3.979-0.312,7.814,0.305,11.336,2.289
				c5.301,2.986,8.718,7.427,9.934,13.411c1.23,6.053-0.166,11.548-3.976,16.393c-0.845,1.074-1.892,1.999-2.91,2.923
				c-0.737,0.669-1.82,0.526-2.797-0.202c-1.423-1.061-2.345-2.521-3.204-4.023c-2.66-4.648-4.379-9.662-5.766-14.811
				c-1.059-3.93-2.281-7.812-4.354-11.352C37.545,32.664,36.66,31.477,35.747,30.114z"/>
			<path fill="#A0DF58" d="M30.308,64.97c-3.803-2.891-6.386-6.621-7.583-11.315c-0.565-2.216-0.662-4.473-0.445-6.697
				c0.373-3.839,1.735-7.36,4.274-10.324c1.016-1.185,2.201-2.225,3.308-3.332c0.493-0.493,0.937-0.505,1.562-0.101
				c2.582,1.669,4.091,4.166,5.357,6.836c0.827,1.743,1.495,3.561,2.27,5.33c0.207,0.471,0.153,0.84-0.071,1.278
				c-2.146,4.201-4.323,8.387-6.385,12.63C31.712,61.093,31.077,63.032,30.308,64.97z"/>
			<path fill="#A0DF58" d="M40.214,49.62c2.374,6.275,3.241,13.007,8.173,18.247c-1.726,0.285-3.305,0.624-4.902,0.79
				c-2.541,0.264-5.035-0.065-7.49-0.794c-0.741-0.22-0.996-0.592-1.009-1.33c-0.044-2.484,0.439-4.867,1.338-7.165
				C37.598,56.11,38.915,52.869,40.214,49.62z"/>
		</g>
	</g>
</g>
</svg>
