<?xml version="1.0" encoding="utf-8"?>
<!-- Generator: Adobe Illustrator 17.0.2, SVG Export Plug-In . SVG Version: 6.00 Build 0)  -->
<!DOCTYPE svg PUBLIC "-//W3C//DTD SVG 1.1//EN" "http://www.w3.org/Graphics/SVG/1.1/DTD/svg11.dtd">
<svg version="1.1" id="Capa_1" xmlns="http://www.w3.org/2000/svg" xmlns:xlink="http://www.w3.org/1999/xlink" x="0px" y="0px"
	 width="72px" height="98px" viewBox="0 0 72 98" enable-background="new 0 0 72 98" xml:space="preserve">
<g id="css">
	<g>
		<polygon fill="#0286AE" points="36,8.948 0.45,8.948 6.736,81.802 36,91.568 65.263,81.802 67.273,58.517 71.55,8.948 		"/>
		<polygon fill="#65A1D0" points="36,6.432 0.45,6.432 6.736,79.287 36,89.052 65.263,79.287 67.273,56.002 71.55,6.432 		"/>
		<polyline fill="#7EC9E9" points="36,82.755 60.803,74.479 62.506,54.743 66.131,12.73 36,12.73 		"/>
		<g>
			<g>
				<polygon fill="#777370" points="36,23.392 36,32.106 48.79,32.106 48.139,41.438 36,41.438 36,50.922 46.838,50.922 
					45.972,62.193 36.217,65.011 36,64.96 36,75.202 36.217,75.273 54.642,69.199 58.761,23.392 				"/>
				<polygon fill="#585551" points="14.757,32.106 36,32.106 36,23.392 13.673,23.392 				"/>
				<polygon fill="#585551" points="26.059,62.627 26.059,55.349 16.925,55.349 17.791,69.199 36,75.202 36,64.96 				"/>
				<polygon fill="#585551" points="27.113,50.922 36,50.922 36,41.438 26.059,41.438 				"/>
			</g>
			<polygon fill="none" points="48.139,39.848 48.79,30.516 36,30.516 36,39.848 			"/>
			<polygon fill="none" points="36.217,63.421 45.972,60.603 46.838,49.332 36,49.332 36,63.37 			"/>
			<polygon fill="#FFFFFF" points="36,21.802 36,30.516 48.79,30.516 48.139,39.848 36,39.848 36,49.332 46.838,49.332 
				45.972,60.603 36.217,63.421 36,63.37 36,73.612 36.217,73.684 54.642,67.609 58.761,21.802 			"/>
			<polygon fill="#F2F2F2" points="14.757,30.516 36,30.516 36,21.802 13.673,21.802 			"/>
			<polygon fill="#F2F2F2" points="26.059,61.037 26.059,53.759 16.925,53.759 17.791,67.609 36,73.612 36,63.37 			"/>
			<polygon fill="#F2F2F2" points="27.113,49.332 36,49.332 36,39.848 26.059,39.848 			"/>
		</g>
	</g>
</g>
</svg>
