<?xml version="1.0" encoding="utf-8"?>
<!-- Generator: Adobe Illustrator 17.0.2, SVG Export Plug-In . SVG Version: 6.00 Build 0)  -->
<!DOCTYPE svg PUBLIC "-//W3C//DTD SVG 1.1//EN" "http://www.w3.org/Graphics/SVG/1.1/DTD/svg11.dtd">
<svg version="1.1" id="Capa_1" xmlns="http://www.w3.org/2000/svg" xmlns:xlink="http://www.w3.org/1999/xlink" x="0px" y="0px"
	 width="84px" height="98px" viewBox="0 0 84 98" enable-background="new 0 0 84 98" xml:space="preserve">
<g id="git">
	<g>
		<path fill="#E8562E" d="M82.867,46.698c1.272,1.272,1.272,3.333,0,4.605L44.302,89.867c-1.272,1.272-3.333,1.272-4.605,0
			L1.133,51.302c-1.272-1.272-1.272-3.333,0-4.605L39.698,8.133c1.272-1.272,3.333-1.272,4.605,0L82.867,46.698z"/>
		<path display="none" fill="#D64727" d="M39.698,8.133L1.133,46.698c-1.272,1.272-1.272,3.333,0,4.605l38.564,38.564
			c0.636,0.636,1.469,0.954,2.302,0.954V7.18C41.167,7.18,40.333,7.497,39.698,8.133z"/>
		<g>
			<rect x="40.088" y="28.847" fill="#843212" width="3.998" height="41.562"/>
			
				<rect x="42.082" y="13.387" transform="matrix(-0.669 0.7433 -0.7433 -0.669 100.9166 28.639)" fill="#843212" width="3.998" height="46.808"/>
			<rect x="40.088" y="29.85" fill="#FFFFFF" width="3.998" height="39.393"/>
			
				<rect x="42.3" y="12.813" transform="matrix(-0.669 0.7433 -0.7433 -0.669 100.357 26.4043)" fill="#FFFFFF" width="3.998" height="45.471"/>
			<circle fill="#7F2D13" cx="42.087" cy="34.766" r="5.75"/>
			<circle fill="#7F2D13" cx="42.087" cy="68.847" r="5.75"/>
			<circle fill="#7F2D13" cx="60.329" cy="51.127" r="5.75"/>
			<circle fill="#FFFFFF" cx="42.087" cy="33.62" r="5.75"/>
			<circle fill="#FFFFFF" cx="42.087" cy="67.7" r="5.75"/>
			<circle fill="#FFFFFF" cx="60.329" cy="49.98" r="5.75"/>
		</g>
	</g>
</g>
</svg>
