<?xml version="1.0" encoding="utf-8"?>
<!-- Generator: Adobe Illustrator 17.0.2, SVG Export Plug-In . SVG Version: 6.00 Build 0)  -->
<!DOCTYPE svg PUBLIC "-//W3C//DTD SVG 1.1//EN" "http://www.w3.org/Graphics/SVG/1.1/DTD/svg11.dtd">
<svg version="1.1" id="Capa_1" xmlns="http://www.w3.org/2000/svg" xmlns:xlink="http://www.w3.org/1999/xlink" x="0px" y="0px"
	 width="72px" height="98px" viewBox="0 0 72 98" enable-background="new 0 0 72 98" xml:space="preserve">
<g id="html5">
	<g>
		<polygon fill="#C06D48" points="36,8.948 0.45,8.948 6.736,81.802 36,91.567 65.264,81.802 67.273,58.517 71.55,8.948 		"/>
		<polygon fill="#D57449" points="36,6.433 0.45,6.433 6.736,79.287 36,89.052 65.264,79.287 67.273,56.001 71.55,6.433 		"/>
		<polyline fill="#DF8A51" points="36,82.755 60.803,74.478 62.506,54.742 66.131,12.729 36,12.729 		"/>
		<g>
			<g>
				<polygon fill="#777370" points="46.73,50.705 45.646,62.193 36,65.228 36,75.055 54.751,69.535 56.918,42.251 35.35,42.251 
					35.35,50.593 				"/>
				<polygon fill="#777370" points="57.785,32.086 58.436,23.609 34.049,23.609 34.049,32.386 				"/>
				<polygon fill="#585551" points="25.92,62.193 25.487,55.866 16.383,55.866 17.9,69.535 36,75.055 36,65.228 				"/>
				<polygon fill="#585551" points="23.319,32.561 36,32.386 36,23.609 13.565,23.609 15.949,50.384 36,50.593 36,42.251 
					24.403,42.251 				"/>
			</g>
			<polygon fill="#FFFFFF" points="46.73,49.115 45.646,60.603 36,63.638 36,73.465 54.751,67.945 56.918,40.661 35.35,40.661 
				35.35,49.003 			"/>
			<polygon fill="#FFFFFF" points="57.785,30.496 58.436,22.019 34.049,22.019 34.049,30.796 			"/>
			<polygon fill="#F2F2F2" points="25.92,60.603 25.487,54.276 16.383,54.276 17.9,67.945 36,73.465 36,63.638 			"/>
			<polygon fill="#F2F2F2" points="23.319,30.971 36,30.796 36,22.019 13.565,22.019 15.949,48.794 36,49.003 36,40.661 
				24.403,40.661 			"/>
		</g>
	</g>
</g>
</svg>
