<?xml version="1.0" encoding="utf-8"?>
<!-- Generator: Adobe Illustrator 17.0.0, SVG Export Plug-In . SVG Version: 6.00 Build 0)  -->
<!DOCTYPE svg PUBLIC "-//W3C//DTD SVG 1.1//EN" "http://www.w3.org/Graphics/SVG/1.1/DTD/svg11.dtd">
<svg version="1.1" id="Layer_2" xmlns="http://www.w3.org/2000/svg" xmlns:xlink="http://www.w3.org/1999/xlink" x="0px" y="0px"
	 width="145.111px" height="98px" viewBox="-37.278 0 145.111 98" enable-background="new -37.278 0 145.111 98"
	 xml:space="preserve">
<g>
	<polygon fill="#0286AE" points="72.441,9.882 37.049,9.882 43.307,82.414 72.441,92.136 101.575,82.414 103.575,59.232 
		107.833,9.882 	"/>
	<polygon fill="#65A1D0" points="72.441,7.378 37.049,7.378 43.307,79.909 72.441,89.632 101.575,79.909 103.575,56.728 
		107.833,7.378 	"/>
	<polyline fill="#7EC9E9" points="72.441,83.362 97.134,75.123 98.829,55.474 102.439,13.647 72.441,13.647 	"/>
	<g>
		<g>
			<polygon fill="#777370" points="72.441,24.262 72.441,32.938 85.174,32.938 84.527,42.228 72.441,42.228 72.441,51.671 
				83.231,51.671 82.369,62.891 72.657,65.697 72.441,65.646 72.441,75.842 72.657,75.914 91,69.866 95.101,24.262 			"/>
			<polygon fill="#585551" points="51.292,32.938 72.441,32.938 72.441,24.262 50.213,24.262 			"/>
			<polygon fill="#585551" points="62.544,63.324 62.544,56.078 53.45,56.078 54.313,69.866 72.441,75.842 72.441,65.646 			"/>
			<polygon fill="#585551" points="63.593,51.671 72.441,51.671 72.441,42.228 62.544,42.228 			"/>
		</g>
		<polygon fill="none" points="84.527,40.646 85.174,31.355 72.441,31.355 72.441,40.646 		"/>
		<polygon fill="none" points="72.657,64.114 82.369,61.308 83.231,50.088 72.441,50.088 72.441,64.063 		"/>
		<polygon fill="#FFFFFF" points="72.441,22.679 72.441,31.355 85.174,31.355 84.527,40.646 72.441,40.646 72.441,50.088 
			83.231,50.088 82.369,61.308 72.657,64.114 72.441,64.063 72.441,74.259 72.657,74.331 91,68.283 95.101,22.679 		"/>
		<polygon fill="#F2F2F2" points="51.292,31.355 72.441,31.355 72.441,22.679 50.213,22.679 		"/>
		<polygon fill="#F2F2F2" points="62.544,61.741 62.544,54.495 53.45,54.495 54.313,68.283 72.441,74.259 72.441,64.063 		"/>
		<polygon fill="#F2F2F2" points="63.593,50.088 72.441,50.088 72.441,40.646 62.544,40.646 		"/>
	</g>
	<polygon fill="#C06D48" points="-1.886,9.883 -37.278,9.883 -31.02,82.414 -1.886,92.136 27.248,82.414 29.248,59.232 
		33.506,9.883 	"/>
	<polygon fill="#D57449" points="-1.886,7.378 -37.278,7.378 -31.02,79.909 -1.886,89.632 27.248,79.909 29.248,56.728 
		33.506,7.378 	"/>
	<polyline fill="#DF8A51" points="-1.886,83.363 22.807,75.123 24.503,55.474 28.112,13.647 -1.886,13.647 	"/>
	<g>
		<g>
			<polygon fill="#777370" points="8.797,51.454 7.717,62.892 -1.886,65.913 -1.886,75.697 16.782,70.201 18.94,43.038 
				-2.533,43.038 -2.533,51.343 			"/>
			<polygon fill="#777370" points="19.803,32.918 20.45,24.479 -3.828,24.479 -3.828,33.217 			"/>
			<polygon fill="#585551" points="-11.921,62.892 -12.353,56.593 -21.416,56.593 -19.906,70.201 -1.886,75.697 -1.886,65.913 			
				"/>
			<polygon fill="#585551" points="-14.511,33.391 -1.886,33.217 -1.886,24.479 -24.222,24.479 -21.848,51.135 -1.886,51.343 
				-1.886,43.038 -13.431,43.038 			"/>
		</g>
		<polygon fill="#FFFFFF" points="8.797,49.871 7.717,61.309 -1.886,64.331 -1.886,74.114 16.782,68.618 18.94,41.455 
			-2.533,41.455 -2.533,49.76 		"/>
		<polygon fill="#FFFFFF" points="19.803,31.336 20.45,22.896 -3.828,22.896 -3.828,31.634 		"/>
		<polygon fill="#F2F2F2" points="-11.921,61.309 -12.353,55.01 -21.416,55.01 -19.906,68.618 -1.886,74.114 -1.886,64.331 		"/>
		<polygon fill="#F2F2F2" points="-14.511,31.808 -1.886,31.634 -1.886,22.896 -24.222,22.896 -21.848,49.552 -1.886,49.76 
			-1.886,41.455 -13.431,41.455 		"/>
	</g>
</g>
</svg>
