<?xml version="1.0" encoding="utf-8"?>
<!-- Generator: Adobe Illustrator 17.0.2, SVG Export Plug-In . SVG Version: 6.00 Build 0)  -->
<!DOCTYPE svg PUBLIC "-//W3C//DTD SVG 1.1//EN" "http://www.w3.org/Graphics/SVG/1.1/DTD/svg11.dtd">
<svg version="1.1" id="Capa_1" xmlns="http://www.w3.org/2000/svg" xmlns:xlink="http://www.w3.org/1999/xlink" x="0px" y="0px"
	 width="108px" height="98px" viewBox="0 0 108 98" enable-background="new 0 0 108 98" xml:space="preserve">
<g id="javascript">
	<g>
		<g>
			<g>
				<path fill="#AE6A05" d="M0,54.999v-7.59c1.876-0.084,3.263-0.453,4.159-1.107c0.896-0.653,1.581-1.676,2.056-3.068
					c0.475-1.391,0.712-3.742,0.712-7.053c0-4.174,0.19-7.026,0.571-8.554c0.38-1.528,0.988-2.752,1.823-3.669
					c0.834-0.917,2.06-1.671,3.677-2.262c1.616-0.59,3.946-0.886,6.989-0.886h1.68v7.59c-2.257,0-3.731,0.122-4.428,0.364
					c-0.696,0.243-1.207,0.639-1.534,1.186c-0.328,0.548-0.49,1.56-0.49,3.036c0,2.656-0.127,5.619-0.381,8.887
					c-0.17,2.13-0.752,4.038-1.746,5.724c-0.742,1.244-2.022,2.456-3.842,3.637c1.537,0.885,2.758,2.005,3.663,3.364
					c0.905,1.358,1.505,3.079,1.8,5.163c0.127,0.905,0.274,3.853,0.442,8.843c0.063,1.831,0.18,2.968,0.349,3.411
					c0.275,0.652,0.789,1.146,1.541,1.484c0.752,0.337,2.294,0.505,4.624,0.505v7.59h-1.68c-3.064,0-5.335-0.248-6.814-0.744
					s-2.684-1.224-3.613-2.182c-0.93-0.96-1.6-2.172-2.012-3.637c-0.412-1.466-0.618-3.991-0.618-7.574
					c0-4.005-0.216-6.71-0.649-8.112s-1.107-2.451-2.024-3.146C3.336,55.504,1.919,55.104,0,54.999z"/>
			</g>
			<g>
				<path fill="#AE6A05" d="M38.488,20.812h8.887v30.866c0,4.913-0.39,8.36-1.17,10.341c-0.781,1.983-2.066,3.557-3.858,4.728
					c-1.792,1.17-3.942,1.755-6.451,1.755c-5.124,0-9.487-2.245-13.093-6.737v-3.342c1.412,1.603,9.002,0.043,9.993,0.591
					c0.991,0.548,1.95,0.822,2.878,0.822c0.949,0,1.655-0.401,2.119-1.202s0.696-2.561,0.696-5.281
					C38.488,53.354,38.488,20.812,38.488,20.812z"/>
			</g>
			<g>
				<path fill="#AE6A05" d="M82.415,27.137l-6.558,5.787c-2.303-3.204-4.647-4.807-7.033-4.807c-1.162,0-2.112,0.311-2.852,0.933
					c-0.739,0.622-1.109,1.323-1.109,2.103c0,0.781,0.264,1.518,0.792,2.214c0.718,0.928,2.883,2.92,6.494,5.978
					c3.379,2.825,5.428,4.607,6.146,5.345c1.795,1.814,3.067,3.548,3.818,5.202c0.75,1.655,1.125,3.463,1.125,5.423
					c0,3.817-1.319,6.968-3.958,9.456c-2.639,2.488-6.079,3.731-10.321,3.731c-3.314,0-6.2-0.813-8.659-2.435
					c-2.458-1.623-4.565-4.174-6.316-7.653v-3.221l7.443-1.271c2.238,4.111,4.815,6.167,7.728,6.167c1.52,0,2.798-0.443,3.832-1.329
					c1.035-0.886,1.552-1.907,1.552-3.068c0-1.054-0.391-2.108-1.172-3.163c-0.782-1.054-2.503-2.666-5.164-4.838
					c-5.069-4.132-8.342-7.322-9.821-9.567c-1.479-2.245-2.217-4.485-2.217-6.72c0-3.226,1.23-5.993,3.689-8.302
					c2.458-2.309,5.494-3.463,9.103-3.463c2.322,0,4.534,0.538,6.634,1.613c1.685,0.863,4.924,0.661,6.834,2.664L82.415,27.137z"/>
			</g>
			<g>
				<path fill="#AE6A05" d="M108,47.408v7.59c-1.876,0.106-3.263,0.48-4.159,1.123c-0.896,0.644-1.587,1.666-2.071,3.068
					c-0.485,1.403-0.727,3.758-0.727,7.068c0,4.174-0.184,7.021-0.553,8.539c-0.369,1.518-0.97,2.735-1.802,3.653
					c-0.833,0.917-2.056,1.671-3.669,2.262c-1.613,0.59-3.937,0.886-6.973,0.886H86.37v-7.59c2.256,0,3.726-0.12,4.412-0.363
					c0.685-0.242,1.197-0.636,1.534-1.184s0.506-1.558,0.506-3.032c0-2.674,0.127-5.643,0.38-8.906
					c0.147-2.127,0.717-4.022,1.708-5.685c0.759-1.263,2.044-2.474,3.858-3.631c-1.54-0.886-2.762-2.008-3.669-3.368
					c-0.906-1.359-1.508-3.094-1.802-5.202c-0.127-0.886-0.274-3.827-0.443-8.823c-0.063-1.855-0.189-2.994-0.379-3.415
					c-0.274-0.675-0.786-1.175-1.534-1.503c-0.749-0.326-2.272-0.49-4.57-0.49v-7.59h1.676c3.057,0,5.318,0.253,6.784,0.759
					c1.466,0.506,2.667,1.239,3.606,2.198c0.938,0.96,1.613,2.172,2.024,3.637c0.411,1.466,0.617,3.991,0.617,7.574
					c0,4.006,0.216,6.705,0.648,8.096c0.432,1.391,1.102,2.435,2.008,3.131C104.637,46.903,106.061,47.303,108,47.408z"/>
			</g>
		</g>
		<g>
			<path fill="#FBC232" d="M0,51.76v-7.59c1.876-0.084,3.262-0.453,4.159-1.107c0.896-0.653,1.582-1.676,2.056-3.068
				c0.474-1.391,0.712-3.742,0.712-7.053c0-4.174,0.19-7.025,0.571-8.554c0.381-1.528,0.988-2.751,1.823-3.669
				c0.834-0.917,2.06-1.671,3.677-2.261c1.616-0.59,3.946-0.886,6.989-0.886h1.68v7.59c-2.257,0-3.732,0.122-4.428,0.364
				c-0.695,0.243-1.207,0.639-1.534,1.186c-0.326,0.548-0.49,1.56-0.49,3.036c0,2.656-0.128,5.619-0.381,8.886
				c-0.17,2.13-0.752,4.037-1.746,5.724c-0.742,1.244-2.022,2.456-3.842,3.637c1.537,0.885,2.758,2.006,3.663,3.364
				c0.905,1.358,1.505,3.079,1.799,5.164c0.127,0.905,0.274,3.853,0.443,8.843c0.064,1.831,0.179,2.968,0.349,3.411
				c0.275,0.652,0.789,1.146,1.541,1.484c0.752,0.336,2.295,0.505,4.624,0.505v7.589h-1.68c-3.064,0-5.336-0.247-6.815-0.744
				c-1.48-0.495-2.683-1.224-3.613-2.181c-0.93-0.96-1.6-2.172-2.012-3.637c-0.412-1.467-0.618-3.991-0.618-7.574
				c0-4.006-0.216-6.71-0.648-8.113c-0.433-1.401-1.107-2.45-2.024-3.146C3.339,52.264,1.918,51.866,0,51.76z"/>
			<path fill="#FBC232" d="M38.488,17.573h8.887v30.866c0,4.913-0.39,8.36-1.17,10.341c-0.781,1.983-2.067,3.558-3.859,4.728
				c-1.792,1.171-3.942,1.755-6.451,1.755c-5.124,0-9.487-2.245-13.092-6.736l6.389-5.978c1.412,1.603,2.614,2.678,3.605,3.226
				c0.991,0.549,1.951,0.823,2.878,0.823c0.949,0,1.655-0.401,2.12-1.202c0.463-0.8,0.695-2.561,0.695-5.281
				C38.488,50.116,38.488,17.573,38.488,17.573z"/>
			<path fill="#FBC232" d="M82.415,23.899l-6.557,5.787c-2.303-3.204-4.649-4.807-7.034-4.807c-1.163,0-2.112,0.311-2.853,0.933
				c-0.738,0.622-1.108,1.323-1.108,2.103c0,0.781,0.264,1.518,0.793,2.213c0.718,0.928,2.883,2.921,6.494,5.978
				c3.379,2.826,5.429,4.607,6.148,5.344c1.794,1.814,3.068,3.548,3.818,5.202c0.749,1.655,1.125,3.464,1.125,5.423
				c0,3.817-1.319,6.969-3.959,9.457c-2.638,2.488-6.079,3.731-10.321,3.731c-3.313,0-6.2-0.812-8.657-2.435
				c-2.46-1.623-4.565-4.174-6.316-7.653l7.443-4.49c2.239,4.11,4.816,6.166,7.728,6.166c1.521,0,2.798-0.443,3.834-1.328
				c1.034-0.886,1.551-1.908,1.551-3.068c0-1.054-0.39-2.108-1.173-3.163c-0.781-1.054-2.503-2.666-5.164-4.838
				c-5.069-4.132-8.342-7.322-9.82-9.567s-2.216-4.485-2.216-6.72c0-3.226,1.229-5.993,3.687-8.302
				c2.46-2.308,5.494-3.463,9.104-3.463c2.321,0,4.534,0.538,6.634,1.613C77.692,19.091,79.965,21.052,82.415,23.899z"/>
			<path fill="#FBC232" d="M108,44.17v7.59c-1.876,0.106-3.263,0.48-4.159,1.123c-0.896,0.644-1.587,1.665-2.072,3.068
				s-0.727,3.758-0.727,7.068c0,4.175-0.185,7.02-0.553,8.539c-0.369,1.518-0.97,2.735-1.803,3.653
				c-0.833,0.917-2.055,1.671-3.669,2.261c-1.613,0.589-3.937,0.885-6.973,0.885h-1.677v-7.589c2.256,0,3.726-0.122,4.411-0.364
				c0.685-0.242,1.197-0.638,1.534-1.184c0.338-0.547,0.507-1.558,0.507-3.031c0-2.675,0.126-5.643,0.379-8.906
				c0.147-2.126,0.716-4.022,1.708-5.685c0.759-1.264,2.044-2.474,3.858-3.632c-1.539-0.886-2.762-2.008-3.669-3.368
				c-0.907-1.361-1.508-3.094-1.803-5.202c-0.127-0.886-0.274-3.827-0.443-8.823c-0.064-1.855-0.191-2.994-0.379-3.415
				c-0.275-0.675-0.787-1.175-1.534-1.502c-0.75-0.326-2.272-0.49-4.571-0.49v-7.59h1.677c3.057,0,5.317,0.253,6.783,0.759
				c1.466,0.507,2.667,1.239,3.606,2.198c0.937,0.96,1.612,2.172,2.024,3.637c0.411,1.466,0.617,3.991,0.617,7.574
				c0,4.006,0.216,6.705,0.649,8.096c0.432,1.391,1.101,2.435,2.008,3.131C104.636,43.664,106.06,44.064,108,44.17z"/>
		</g>
		<g opacity="0.2">
			<path fill="#FFFFFF" d="M0,51.76v-7.59c1.876-0.084,3.262-0.453,4.159-1.107c0.896-0.653,1.582-1.676,2.056-3.068
				c0.474-1.391,0.712-3.742,0.712-7.053c0-4.174,0.19-7.025,0.571-8.554c0.381-1.528,0.988-2.751,1.823-3.669
				c0.834-0.917,2.06-1.671,3.677-2.261c1.616-0.59,3.946-0.886,6.989-0.886h1.68v7.59c-2.257,0-3.732,0.122-4.428,0.364
				c-0.695,0.243-1.207,0.639-1.534,1.186c-0.326,0.548-0.49,1.56-0.49,3.036c0,2.656-0.128,5.619-0.381,8.886
				c-0.17,2.13-0.752,4.037-1.746,5.724c-0.742,1.244-2.022,2.456-3.842,3.637c1.537,0.885,2.758,2.006,3.663,3.364
				c0.905,1.358,1.505,3.079,1.799,5.164c0.127,0.905,0.274,3.853,0.443,8.843c0.064,1.831,0.179,2.968,0.349,3.411
				c0.275,0.652,0.789,1.146,1.541,1.484c0.752,0.336,2.295,0.505,4.624,0.505v7.589h-1.68c-3.064,0-5.336-0.247-6.815-0.744
				c-1.48-0.495-2.683-1.224-3.613-2.181c-0.93-0.96-1.6-2.172-2.012-3.637c-0.412-1.467-0.618-3.991-0.618-7.574
				c0-4.006-0.216-6.71-0.648-8.113c-0.433-1.401-1.107-2.45-2.024-3.146C3.339,52.264,1.918,51.866,0,51.76z"/>
			<path fill="#FFFFFF" d="M38.488,17.573h8.887v30.866c0,4.913-0.39,8.36-1.17,10.341c-0.781,1.983-2.067,3.558-3.859,4.728
				c-1.792,1.171-3.942,1.755-6.451,1.755c-5.124,0-9.487-2.245-13.092-6.736l6.389-5.978c1.412,1.603,2.614,2.678,3.605,3.226
				c0.991,0.549,1.951,0.823,2.878,0.823c0.949,0,1.655-0.401,2.12-1.202c0.463-0.8,0.695-2.561,0.695-5.281
				C38.488,50.116,38.488,17.573,38.488,17.573z"/>
			<path fill="#FFFFFF" d="M82.415,23.899l-6.557,5.787c-2.303-3.204-4.649-4.807-7.034-4.807c-1.163,0-2.112,0.311-2.853,0.933
				c-0.738,0.622-1.108,1.323-1.108,2.103c0,0.781,0.264,1.518,0.793,2.213c0.718,0.928,2.883,2.921,6.494,5.978
				c3.379,2.826,5.429,4.607,6.148,5.344c1.794,1.814,3.068,3.548,3.818,5.202c0.749,1.655,1.125,3.464,1.125,5.423
				c0,3.817-1.319,6.969-3.959,9.457c-2.638,2.488-6.079,3.731-10.321,3.731c-3.313,0-6.2-0.812-8.657-2.435
				c-2.46-1.623-4.565-4.174-6.316-7.653l7.443-4.49c2.239,4.11,4.816,6.166,7.728,6.166c1.521,0,2.798-0.443,3.834-1.328
				c1.034-0.886,1.551-1.908,1.551-3.068c0-1.054-0.39-2.108-1.173-3.163c-0.781-1.054-2.503-2.666-5.164-4.838
				c-5.069-4.132-8.342-7.322-9.82-9.567s-2.216-4.485-2.216-6.72c0-3.226,1.229-5.993,3.687-8.302
				c2.46-2.308,5.494-3.463,9.104-3.463c2.321,0,4.534,0.538,6.634,1.613C77.692,19.091,79.965,21.052,82.415,23.899z"/>
			<path fill="#FFFFFF" d="M108,44.17v7.59c-1.876,0.106-3.263,0.48-4.159,1.123c-0.896,0.644-1.587,1.665-2.072,3.068
				s-0.727,3.758-0.727,7.068c0,4.175-0.185,7.02-0.553,8.539c-0.369,1.518-0.97,2.735-1.803,3.653
				c-0.833,0.917-2.055,1.671-3.669,2.261c-1.613,0.589-3.937,0.885-6.973,0.885h-1.677v-7.589c2.256,0,3.726-0.122,4.411-0.364
				c0.685-0.242,1.197-0.638,1.534-1.184c0.338-0.547,0.507-1.558,0.507-3.031c0-2.675,0.126-5.643,0.379-8.906
				c0.147-2.126,0.716-4.022,1.708-5.685c0.759-1.264,2.044-2.474,3.858-3.632c-1.539-0.886-2.762-2.008-3.669-3.368
				c-0.907-1.361-1.508-3.094-1.803-5.202c-0.127-0.886-0.274-3.827-0.443-8.823c-0.064-1.855-0.191-2.994-0.379-3.415
				c-0.275-0.675-0.787-1.175-1.534-1.502c-0.75-0.326-2.272-0.49-4.571-0.49v-7.59h1.677c3.057,0,5.317,0.253,6.783,0.759
				c1.466,0.507,2.667,1.239,3.606,2.198c0.937,0.96,1.612,2.172,2.024,3.637c0.411,1.466,0.617,3.991,0.617,7.574
				c0,4.006,0.216,6.705,0.649,8.096c0.432,1.391,1.101,2.435,2.008,3.131C104.636,43.664,106.06,44.064,108,44.17z"/>
		</g>
	</g>
</g>
</svg>
