<?xml version="1.0" encoding="utf-8"?>
<!-- Generator: Adobe Illustrator 17.0.2, SVG Export Plug-In . SVG Version: 6.00 Build 0)  -->
<!DOCTYPE svg PUBLIC "-//W3C//DTD SVG 1.1//EN" "http://www.w3.org/Graphics/SVG/1.1/DTD/svg11.dtd">
<svg version="1.1" id="Capa_1" xmlns="http://www.w3.org/2000/svg" xmlns:xlink="http://www.w3.org/1999/xlink" x="0px" y="0px"
	 width="137px" height="98px" viewBox="0 0 137 98" enable-background="new 0 0 137 98" xml:space="preserve">
<polygon fill="#2F5886" points="19.955,20.335 10.351,27.105 7.256,45.912 3.843,49.082 7.97,57.148 16.401,77.866 120.039,77.866 
	126.944,59.834 131.151,49.902 127.182,42.9 122.341,23.767 120.357,20.335 "/>
<polyline fill="#234E75" points="3.843,47.545 7.97,56.042 16.401,77.866 120.039,77.866 126.944,58.872 131.151,47.545 "/>
<path fill="#193754" d="M66.284,46.714c-0.268-2.792-1.137-5.215-2.502-7.176c-0.035-0.053-0.069-0.106-0.106-0.158
	c-0.036-0.053-0.07-0.107-0.106-0.159c-0.036-0.053-0.07-0.107-0.106-0.159c-0.036-0.053-0.07-0.107-0.106-0.159
	c-0.035-0.053-0.069-0.107-0.106-0.159c-0.036-0.053-0.07-0.107-0.106-0.159c-0.035-0.053-0.07-0.107-0.106-0.159
	c-0.036-0.053-0.07-0.107-0.106-0.159c-2.255-3.346-5.921-5.385-10.496-5.655c-6.799-0.402-12.607,3.22-15.285,9.478
	c-1.234,2.885-1.48,5.888-1.388,8.98c0.086,2.893,0.964,5.582,2.479,7.813c0.035,0.053,0.07,0.106,0.106,0.159
	c0.035,0.053,0.07,0.106,0.106,0.158c0.035,0.053,0.07,0.106,0.106,0.159c0.035,0.053,0.07,0.106,0.106,0.159
	c0.035,0.053,0.07,0.106,0.106,0.159c0.035,0.053,0.07,0.106,0.106,0.158c0.035,0.053,0.07,0.106,0.106,0.159
	c0.035,0.053,0.07,0.106,0.106,0.159c1.687,2.558,4.201,4.532,7.324,5.548c5.892,1.916,11.75,1.299,17.551-0.552
	c0.722-0.23,0.861-0.623,0.707-1.321c-0.325-1.473-0.662-2.952-0.834-4.447c-0.053-0.459-0.14-0.759-0.296-0.937
	c-0.031-0.061-0.066-0.114-0.106-0.159c-0.031-0.061-0.066-0.114-0.106-0.159c-0.031-0.061-0.066-0.114-0.106-0.159
	c-0.031-0.061-0.066-0.114-0.106-0.159c-0.031-0.061-0.066-0.114-0.106-0.159c-0.031-0.061-0.066-0.114-0.106-0.159
	c-0.031-0.061-0.066-0.114-0.106-0.159c-0.031-0.061-0.066-0.114-0.106-0.159c-0.217-0.428-0.62-0.446-1.407-0.224
	c-3.751,1.059-7.58,1.525-11.398,0.399c-1.281-0.378-2.403-0.953-3.241-1.846c-0.234-0.515-0.408-1.094-0.507-1.754
	c0.618,0,1.074,0,1.531,0c5.789,0,11.578-0.017,17.366,0.019c0.896,0.006,1.316-0.211,1.294-1.171
	C66.293,50.636,66.471,48.659,66.284,46.714z M56.125,45.297c-3.223,0-6.462,0-9.704,0c0.664-2.546,3.137-4.559,5.814-4.439
	c1.414,0.063,2.632,0.632,3.499,1.534C56.108,43.246,56.259,44.235,56.125,45.297z"/>
<path fill="#FFFFFF" d="M45.193,52.321c0.434,2.921,2.293,4.32,4.7,5.029c3.818,1.126,7.647,0.659,11.398-0.399
	c1.12-0.316,1.465-0.148,1.597,1.002c0.171,1.495,0.509,2.974,0.834,4.447c0.154,0.698,0.015,1.09-0.707,1.321
	c-5.801,1.851-11.659,2.468-17.551,0.552c-5.808-1.889-9.516-7.091-9.698-13.202c-0.092-3.092,0.154-6.095,1.388-8.98
	c2.677-6.258,8.486-9.88,15.285-9.478c7.217,0.427,12.179,5.25,12.892,12.672c0.187,1.945,0.01,3.922,0.053,5.884
	c0.021,0.96-0.398,1.177-1.294,1.171c-5.789-0.036-11.577-0.019-17.366-0.019C46.267,52.321,45.811,52.321,45.193,52.321z
	 M45.294,45.297c3.618,0,7.234,0,10.831,0c0.403-3.187-1.755-5.729-4.842-5.867C48.12,39.288,45.241,42.122,45.294,45.297z"/>
<path fill="#193754" d="M89.715,52.415c-0.025-0.054-0.053-0.106-0.079-0.159c-0.025-0.054-0.053-0.106-0.079-0.159
	c-0.025-0.053-0.053-0.106-0.079-0.159c-0.025-0.054-0.053-0.106-0.079-0.159c-0.025-0.054-0.053-0.106-0.079-0.159
	c-0.025-0.053-0.053-0.106-0.079-0.159c-0.025-0.054-0.053-0.106-0.079-0.159c-0.025-0.054-0.053-0.106-0.079-0.159
	c-0.792-1.675-2.142-3.026-4.013-4.057c-1.312-0.723-2.763-1.196-4.148-1.787c-1.114-0.475-2.314-0.825-3.303-1.488
	c-0.107-0.071-0.212-0.163-0.313-0.27c-0.007-0.075-0.009-0.147-0.002-0.215c0.061-0.628,0.752-1.44,1.369-1.708
	c0.84-0.365,1.905-0.507,2.813-0.362c2.047,0.325,4.057,0.885,6.234,1.385c0.418-1.661,0.77-3.513,1.369-5.281
	c0.205-0.604,0.206-1.037,0.013-1.348c-0.021-0.057-0.048-0.109-0.079-0.159c-0.021-0.057-0.048-0.109-0.079-0.159
	c-0.021-0.057-0.048-0.109-0.079-0.159c-0.021-0.057-0.048-0.109-0.079-0.159c-0.021-0.057-0.048-0.109-0.079-0.159
	c-0.021-0.057-0.048-0.109-0.079-0.159c-0.021-0.057-0.048-0.109-0.079-0.159c-0.021-0.057-0.048-0.109-0.079-0.159
	c-0.137-0.373-0.496-0.598-1.072-0.732c-2.112-0.49-4.216-1.076-6.359-1.353c-3.859-0.498-7.43,0.46-10.515,2.846
	c-3.596,2.782-4.608,7.477-2.792,11.103c0.025,0.053,0.053,0.106,0.079,0.159c0.025,0.053,0.053,0.106,0.079,0.159
	c0.025,0.053,0.053,0.106,0.079,0.158c0.025,0.053,0.053,0.106,0.079,0.159c0.025,0.053,0.053,0.106,0.079,0.159
	c0.025,0.053,0.053,0.106,0.079,0.158c0.025,0.053,0.053,0.106,0.079,0.159c0.025,0.053,0.053,0.106,0.079,0.159
	c0.401,0.845,0.952,1.636,1.658,2.335c1.921,1.901,4.357,2.935,6.879,3.8c1.062,0.364,2.193,0.725,3.062,1.39
	c0.121,0.093,0.242,0.211,0.358,0.344c0.02,0.137,0.022,0.267-0.001,0.384c-0.14,0.724-0.992,1.617-1.722,1.85
	c-1.111,0.355-2.428,0.441-3.576,0.219c-2.362-0.456-4.67-1.192-7.193-1.864c-0.517,2.098-1.083,4.389-1.674,6.788
	c0.035,0.018,0.07,0.035,0.106,0.052c-0.009,0.036-0.017,0.071-0.026,0.106c0.035,0.018,0.07,0.035,0.106,0.052
	c-0.009,0.036-0.017,0.071-0.026,0.106c0.035,0.018,0.07,0.035,0.106,0.052c-0.009,0.036-0.017,0.071-0.026,0.106
	c0.035,0.018,0.07,0.035,0.106,0.052c-0.009,0.036-0.017,0.071-0.026,0.106c0.035,0.018,0.07,0.035,0.106,0.052
	c-0.009,0.036-0.017,0.071-0.026,0.106c0.035,0.018,0.07,0.035,0.106,0.052c-0.009,0.036-0.017,0.071-0.026,0.106
	c0.035,0.018,0.07,0.035,0.106,0.052c-0.009,0.036-0.017,0.071-0.026,0.106c0.035,0.018,0.07,0.035,0.106,0.052
	c-0.009,0.036-0.017,0.071-0.026,0.106c0.035,0.018,0.07,0.035,0.106,0.052c-0.009,0.036-0.017,0.071-0.026,0.106
	c2.417,1.235,4.84,1.864,7.359,2.117c3.851,0.386,7.649,0.218,11.185-1.572c3.311-1.676,5.071-4.389,5.208-8.135
	C90.681,55.24,90.372,53.726,89.715,52.415z"/>
<path fill="#FFFFFF" d="M66.152,63.125c0.592-2.399,1.157-4.69,1.674-6.788c2.522,0.672,4.83,1.407,7.193,1.864
	c1.148,0.222,2.465,0.136,3.576-0.219c0.73-0.233,1.581-1.126,1.722-1.85c0.125-0.647-0.474-1.7-1.071-2.157
	c-0.869-0.664-1.999-1.026-3.062-1.39c-2.523-0.865-4.959-1.899-6.879-3.8c-3.716-3.677-3.162-9.895,1.213-13.279
	c3.085-2.386,6.656-3.344,10.515-2.846c2.142,0.277,4.247,0.863,6.359,1.353c1.032,0.239,1.368,0.773,0.98,1.921
	c-0.599,1.769-0.951,3.62-1.369,5.281c-2.177-0.499-4.187-1.059-6.234-1.385c-0.908-0.144-1.973-0.003-2.813,0.362
	c-0.617,0.268-1.308,1.08-1.369,1.708c-0.06,0.617,0.475,1.542,1.03,1.913c0.99,0.662,2.189,1.013,3.303,1.488
	c1.386,0.591,2.836,1.063,4.148,1.787c3.295,1.816,4.976,4.618,4.836,8.447c-0.137,3.745-1.897,6.459-5.208,8.135
	c-3.536,1.79-7.334,1.958-11.185,1.572C70.992,64.99,68.569,64.361,66.152,63.125z"/>
<path fill="#193754" d="M114.236,52.508c-0.025-0.053-0.053-0.106-0.079-0.159c-0.025-0.053-0.053-0.106-0.079-0.159
	c-0.025-0.053-0.053-0.106-0.079-0.159c-0.025-0.053-0.053-0.106-0.079-0.159c-0.025-0.053-0.053-0.106-0.079-0.159
	c-0.025-0.053-0.053-0.106-0.079-0.159c-0.025-0.053-0.053-0.106-0.079-0.159c-0.025-0.053-0.053-0.106-0.079-0.159
	c-0.889-1.873-2.502-3.551-5.017-4.675c-1.947-0.87-3.984-1.536-5.946-2.376c-0.35-0.15-0.682-0.334-0.958-0.562
	c-0.001-0.127,0.008-0.259,0.031-0.399c0.216-1.277,1.219-1.821,2.35-1.92c1.155-0.101,2.361-0.081,3.495,0.142
	c1.533,0.301,3.018,0.845,4.605,1.309c0.569-2.254,1.12-4.436,1.762-6.977c-0.038-0.01-0.074-0.02-0.112-0.03
	c0.011-0.044,0.022-0.085,0.033-0.129c-0.038-0.01-0.074-0.02-0.112-0.03c0.011-0.044,0.022-0.085,0.033-0.129
	c-0.038-0.01-0.074-0.02-0.112-0.03c0.011-0.044,0.022-0.085,0.033-0.129c-0.038-0.01-0.074-0.02-0.112-0.03
	c0.011-0.044,0.022-0.085,0.033-0.129c-0.038-0.01-0.074-0.02-0.112-0.03c0.011-0.044,0.022-0.085,0.033-0.129
	c-0.038-0.01-0.074-0.02-0.112-0.03c0.011-0.044,0.022-0.085,0.033-0.129c-0.038-0.01-0.074-0.02-0.112-0.03
	c0.011-0.044,0.022-0.085,0.033-0.129c-0.038-0.01-0.074-0.02-0.112-0.03c0.011-0.044,0.022-0.085,0.033-0.129
	c-0.038-0.01-0.074-0.02-0.112-0.03c0.011-0.044,0.022-0.085,0.033-0.129c-2.089-0.532-3.998-1.198-5.962-1.482
	c-4.451-0.643-8.674-0.1-12.391,2.789c-2.906,2.258-4.635,7.041-2.69,10.93c0.025,0.053,0.053,0.106,0.079,0.159
	c0.025,0.053,0.053,0.106,0.079,0.159c0.025,0.053,0.053,0.106,0.079,0.159c0.025,0.053,0.053,0.106,0.079,0.159
	c0.025,0.053,0.053,0.106,0.079,0.159c0.025,0.053,0.053,0.106,0.079,0.159c0.025,0.053,0.053,0.106,0.079,0.159
	c0.025,0.053,0.053,0.106,0.079,0.159c0.615,1.305,1.634,2.516,3.152,3.506c1.527,0.995,3.27,1.664,4.937,2.434
	c1.024,0.473,2.112,0.806,3.133,1.285c0.332,0.156,0.631,0.341,0.877,0.561c0.011,0.186,0.003,0.382-0.034,0.593
	c-0.21,1.22-1.121,1.655-2.208,1.916c-1.994,0.479-3.925,0.097-5.821-0.44c-1.473-0.418-2.896-1.01-4.478-1.574
	c-0.46,1.873-0.81,3.726-1.387,5.505c-0.211,0.651-0.21,1.1-0.004,1.441c0.022,0.056,0.049,0.108,0.079,0.159
	c0.022,0.056,0.049,0.108,0.079,0.159c0.022,0.056,0.049,0.108,0.079,0.159c0.022,0.056,0.049,0.108,0.079,0.159
	c0.022,0.056,0.049,0.108,0.079,0.159c0.022,0.056,0.049,0.108,0.079,0.159c0.022,0.056,0.049,0.108,0.079,0.159
	c0.022,0.056,0.049,0.108,0.079,0.159c0.16,0.414,0.572,0.679,1.233,0.922c4.325,1.585,8.738,1.977,13.249,1.127
	c2.561-0.483,4.903-1.492,6.705-3.461C115.127,60.389,116.018,56.072,114.236,52.508z"/>
<path fill="#FFFFFF" d="M113.21,34.351c-0.642,2.542-1.193,4.724-1.762,6.977c-1.587-0.464-3.072-1.008-4.605-1.309
	c-1.134-0.223-2.34-0.244-3.495-0.142c-1.131,0.099-2.133,0.643-2.35,1.92c-0.216,1.274,0.644,1.963,1.641,2.39
	c1.961,0.84,3.999,1.506,5.946,2.376c7.259,3.244,7.013,11.102,3.493,14.95c-1.801,1.969-4.143,2.978-6.705,3.461
	c-4.511,0.851-8.924,0.458-13.249-1.127c-1.171-0.429-1.563-0.931-1.15-2.204c0.576-1.78,0.927-3.633,1.387-5.505
	c1.583,0.564,3.006,1.156,4.478,1.574c1.896,0.538,3.827,0.919,5.821,0.44c1.088-0.261,1.998-0.697,2.208-1.916
	c0.222-1.288-0.494-2.084-1.558-2.583c-1.021-0.479-2.109-0.812-3.133-1.285c-1.667-0.769-3.411-1.439-4.937-2.434
	c-6.008-3.917-4.218-11.296-0.382-14.277c3.717-2.888,7.94-3.432,12.391-2.789C109.211,33.153,111.12,33.819,113.21,34.351z"/>
<path fill="#193754" d="M36.757,59.991c-0.004-0.013-0.007-0.025-0.011-0.038c-0.003,0-0.006-0.001-0.009-0.001
	c-0.004-0.013-0.007-0.025-0.011-0.038c-0.003-0.001-0.006-0.001-0.009-0.002c-0.004-0.013-0.007-0.025-0.011-0.038
	c-0.003-0.001-0.006-0.001-0.009-0.001c-0.004-0.013-0.007-0.025-0.011-0.038c-0.003,0-0.006-0.001-0.009-0.001
	c-0.004-0.013-0.007-0.025-0.011-0.038c-0.003-0.001-0.006-0.001-0.009-0.002c-0.004-0.013-0.007-0.025-0.011-0.038
	c-0.003-0.001-0.006-0.001-0.009-0.001c-0.004-0.013-0.007-0.025-0.011-0.038c-0.003,0-0.006-0.001-0.009-0.001
	c-0.004-0.013-0.007-0.025-0.011-0.038c-0.003-0.001-0.006-0.001-0.009-0.002c-0.004-0.013-0.007-0.025-0.011-0.038
	c-0.003-0.001-0.006-0.001-0.009-0.001c-0.004-0.013-0.007-0.025-0.011-0.038c-0.003,0-0.006-0.001-0.009-0.001
	c-0.004-0.013-0.007-0.025-0.011-0.038c-0.003-0.001-0.006-0.001-0.009-0.002c-0.004-0.013-0.007-0.025-0.011-0.038
	c-0.003-0.001-0.006-0.001-0.009-0.001c-0.004-0.013-0.007-0.025-0.011-0.038c-0.003,0-0.006-0.001-0.009-0.001
	c-0.004-0.013-0.007-0.025-0.011-0.038c-0.003-0.001-0.006-0.001-0.009-0.002c-0.004-0.013-0.007-0.025-0.011-0.038
	c-0.003-0.001-0.006-0.001-0.009-0.001c-0.004-0.013-0.007-0.025-0.011-0.038c-0.003,0-0.006-0.001-0.009-0.001
	c-0.004-0.013-0.007-0.025-0.011-0.038c-0.003-0.001-0.006-0.001-0.009-0.002c-0.004-0.013-0.007-0.025-0.011-0.038
	c-0.003-0.001-0.006-0.001-0.009-0.001c-0.004-0.013-0.007-0.025-0.011-0.038c-0.003,0-0.006-0.001-0.009-0.001
	c-0.004-0.013-0.007-0.025-0.011-0.038c-0.003-0.001-0.006-0.001-0.009-0.002c-0.004-0.013-0.007-0.025-0.011-0.038
	c-0.003-0.001-0.006-0.001-0.009-0.001c-0.004-0.013-0.007-0.025-0.011-0.038c-0.003,0-0.006-0.001-0.009-0.001
	c-0.004-0.013-0.007-0.025-0.011-0.038c-0.003-0.001-0.006-0.001-0.009-0.002c-0.004-0.013-0.007-0.025-0.011-0.038
	c-0.003-0.001-0.006-0.001-0.009-0.001c-0.004-0.013-0.007-0.025-0.011-0.038c-0.003,0-0.006-0.001-0.009-0.001
	c-0.004-0.013-0.007-0.025-0.011-0.038c-0.003-0.001-0.006-0.001-0.009-0.002c-0.004-0.013-0.007-0.025-0.011-0.038
	c-0.003-0.001-0.006-0.001-0.009-0.001c-0.004-0.013-0.007-0.025-0.011-0.038c-0.003,0-0.006-0.001-0.009-0.001
	c-0.004-0.013-0.007-0.025-0.011-0.038c-0.003-0.001-0.006-0.001-0.009-0.002c-0.004-0.013-0.007-0.025-0.011-0.038
	c-0.003-0.001-0.006-0.001-0.009-0.001c-0.004-0.013-0.007-0.025-0.011-0.038c-0.003,0-0.006-0.001-0.009-0.001
	c-0.004-0.013-0.007-0.025-0.011-0.038c-0.003-0.001-0.006-0.001-0.009-0.002c-0.004-0.013-0.007-0.025-0.011-0.038
	c-0.003-0.001-0.006-0.001-0.009-0.001c-0.004-0.013-0.007-0.025-0.011-0.038c-0.003,0-0.006-0.001-0.009-0.001
	c-0.004-0.013-0.007-0.025-0.011-0.038c-0.003-0.001-0.006-0.001-0.009-0.002c-0.004-0.013-0.007-0.025-0.011-0.038
	c-2.655-0.43-4.085-0.662-4.855-1.376c-0.185-0.916-0.185-2.212-0.183-4.115c0.008-9.294-0.045-18.59,0.094-27.882
	c0.014-0.961-0.081-1.706-0.35-2.254c-0.006-0.014-0.013-0.026-0.02-0.04c-0.006-0.014-0.013-0.026-0.02-0.04
	c-0.006-0.013-0.013-0.026-0.02-0.04c-0.006-0.014-0.013-0.026-0.02-0.04c-0.006-0.014-0.013-0.026-0.02-0.04
	c-0.006-0.013-0.013-0.026-0.02-0.04c-0.006-0.014-0.013-0.026-0.02-0.04c-0.006-0.014-0.013-0.026-0.02-0.04
	c-0.006-0.013-0.013-0.026-0.02-0.04c-0.006-0.014-0.013-0.026-0.02-0.04c-0.006-0.014-0.013-0.026-0.02-0.04
	c-0.006-0.013-0.013-0.026-0.02-0.04c-0.006-0.014-0.013-0.026-0.02-0.04c-0.006-0.014-0.013-0.026-0.02-0.04
	c-0.006-0.013-0.013-0.026-0.02-0.04c-0.006-0.014-0.013-0.026-0.02-0.04c-0.006-0.014-0.013-0.026-0.02-0.04
	c-0.006-0.013-0.013-0.026-0.02-0.04c-0.006-0.014-0.013-0.026-0.02-0.04c-0.006-0.014-0.013-0.026-0.02-0.04
	c-0.006-0.013-0.013-0.026-0.02-0.04c-0.006-0.014-0.013-0.026-0.02-0.04c-0.006-0.014-0.013-0.026-0.02-0.04
	c-0.006-0.013-0.013-0.026-0.02-0.04c-0.006-0.014-0.013-0.026-0.02-0.04c-0.006-0.014-0.013-0.026-0.02-0.04
	c-0.006-0.013-0.013-0.026-0.02-0.04c-0.006-0.014-0.013-0.026-0.02-0.04c-0.006-0.014-0.013-0.026-0.02-0.04
	c-0.006-0.013-0.013-0.026-0.02-0.04c-0.006-0.014-0.013-0.026-0.02-0.04c-0.006-0.014-0.013-0.026-0.02-0.04
	c-0.006-0.013-0.013-0.026-0.02-0.04c-0.006-0.014-0.013-0.026-0.02-0.04c-0.006-0.014-0.013-0.026-0.02-0.04
	c-0.428-0.92-1.322-1.302-2.973-1.22c-3.395,0.168-6.807-0.046-10.208,0.045c-6.291,0.169-9.978,3.512-10.659,9.784
	c-0.267,2.461-0.192,4.969-0.129,7.452c0.092,3.642-0.72,6.608-4.349,8.459c-1.574,0.803-2.021,2.458-1.376,3.741
	c0.006,0.013,0.013,0.027,0.02,0.04c0.006,0.013,0.013,0.027,0.02,0.04c0.006,0.013,0.013,0.026,0.02,0.04
	c0.006,0.013,0.013,0.027,0.02,0.04c0.006,0.013,0.013,0.027,0.02,0.04c0.006,0.013,0.013,0.026,0.02,0.04
	c0.006,0.013,0.013,0.027,0.02,0.04c0.006,0.013,0.013,0.027,0.02,0.04c0.006,0.013,0.013,0.026,0.02,0.04
	c0.006,0.013,0.013,0.027,0.02,0.04c0.006,0.013,0.013,0.027,0.02,0.04c0.006,0.013,0.013,0.026,0.02,0.04
	c0.006,0.013,0.013,0.027,0.02,0.04c0.006,0.013,0.013,0.027,0.02,0.04c0.006,0.013,0.013,0.026,0.02,0.04
	c0.006,0.013,0.013,0.027,0.02,0.04c0.006,0.013,0.013,0.027,0.02,0.04c0.006,0.013,0.013,0.026,0.02,0.04
	c0.006,0.013,0.013,0.027,0.02,0.04c0.006,0.013,0.013,0.027,0.02,0.04c0.006,0.013,0.013,0.026,0.02,0.04
	c0.006,0.013,0.013,0.027,0.02,0.04c0.006,0.013,0.013,0.027,0.02,0.04c0.006,0.013,0.013,0.026,0.02,0.04
	c0.006,0.013,0.013,0.027,0.02,0.04c0.006,0.013,0.013,0.027,0.02,0.04c0.006,0.013,0.013,0.026,0.02,0.04
	c0.006,0.013,0.013,0.027,0.02,0.04c0.006,0.013,0.013,0.027,0.02,0.04c0.006,0.013,0.013,0.026,0.02,0.04
	c0.006,0.013,0.013,0.027,0.02,0.04c0.006,0.013,0.013,0.027,0.02,0.04c0.006,0.013,0.013,0.026,0.02,0.04
	c0.006,0.013,0.013,0.027,0.02,0.04c0.006,0.013,0.013,0.027,0.02,0.04c0.284,0.588,0.794,1.102,1.528,1.426
	c1.402,0.617,2.369,1.417,3.02,2.371c0.395,1.13,0.508,2.41,0.469,3.812c-0.066,2.354-0.058,4.714,0.015,7.068
	c0.069,2.203,0.516,4.097,1.306,5.649c0.007,0.013,0.013,0.027,0.02,0.04s0.013,0.027,0.02,0.04s0.013,0.026,0.02,0.039
	s0.013,0.027,0.02,0.04s0.013,0.027,0.02,0.04s0.013,0.026,0.02,0.039s0.013,0.027,0.02,0.04s0.013,0.027,0.02,0.04
	s0.013,0.026,0.02,0.039s0.013,0.027,0.02,0.04s0.013,0.027,0.02,0.04s0.013,0.026,0.02,0.039s0.013,0.027,0.02,0.04
	s0.013,0.027,0.02,0.04s0.013,0.026,0.02,0.039s0.013,0.027,0.02,0.04s0.013,0.027,0.02,0.04s0.013,0.026,0.02,0.039
	s0.013,0.027,0.02,0.04s0.013,0.027,0.02,0.04s0.013,0.026,0.02,0.039s0.013,0.027,0.02,0.04s0.013,0.027,0.02,0.04
	s0.013,0.026,0.02,0.039s0.013,0.027,0.02,0.04s0.013,0.027,0.02,0.04s0.013,0.026,0.02,0.039s0.013,0.027,0.02,0.04
	s0.013,0.027,0.02,0.04s0.013,0.026,0.02,0.039s0.013,0.027,0.02,0.04c0.007,0.013,0.013,0.027,0.02,0.04
	c0.007,0.013,0.013,0.026,0.02,0.039c0.007,0.013,0.013,0.027,0.02,0.04c0.007,0.013,0.013,0.027,0.02,0.04
	c2.001,3.975,6.243,5.717,12.173,4.638c-0.178-1.188-0.056-3.05-0.422-3.855c-0.006-0.014-0.014-0.026-0.02-0.04
	c-0.006-0.015-0.013-0.026-0.02-0.04c-0.006-0.014-0.014-0.026-0.02-0.04s-0.014-0.026-0.02-0.04
	c-0.006-0.015-0.013-0.026-0.02-0.04c-0.006-0.014-0.014-0.026-0.02-0.04s-0.014-0.026-0.02-0.04
	c-0.006-0.015-0.013-0.026-0.02-0.04c-0.006-0.014-0.014-0.026-0.02-0.04s-0.014-0.026-0.02-0.04
	c-0.006-0.015-0.013-0.026-0.02-0.04c-0.006-0.014-0.014-0.026-0.02-0.04s-0.014-0.026-0.02-0.04
	c-0.006-0.015-0.013-0.026-0.02-0.04c-0.006-0.014-0.014-0.026-0.02-0.04s-0.014-0.026-0.02-0.04
	c-0.006-0.015-0.013-0.026-0.02-0.04c-0.006-0.014-0.014-0.026-0.02-0.04s-0.014-0.026-0.02-0.04
	c-0.006-0.015-0.013-0.026-0.02-0.04c-0.006-0.014-0.014-0.026-0.02-0.04s-0.014-0.026-0.02-0.04
	c-0.006-0.015-0.013-0.026-0.02-0.04c-0.006-0.014-0.014-0.026-0.02-0.04s-0.014-0.026-0.02-0.04
	c-0.006-0.015-0.013-0.026-0.02-0.04c-0.006-0.014-0.014-0.026-0.02-0.04s-0.014-0.026-0.02-0.04
	c-0.006-0.015-0.013-0.026-0.02-0.04c-0.006-0.014-0.014-0.026-0.02-0.04s-0.014-0.026-0.02-0.04
	c-0.006-0.015-0.013-0.026-0.02-0.04c-0.006-0.014-0.014-0.026-0.02-0.04s-0.014-0.026-0.02-0.04
	c-0.006-0.015-0.013-0.026-0.02-0.04c-0.08-0.192-0.184-0.33-0.323-0.394c-1.407-0.647-2.345-1.453-2.968-2.362
	c-0.746-2.173-0.345-4.719-0.311-7.106c0.042-2.908-0.024-5.718-1.214-8.041c-0.007-0.013-0.013-0.027-0.02-0.04
	c-0.007-0.013-0.013-0.026-0.02-0.04c-0.007-0.013-0.013-0.027-0.02-0.04c-0.007-0.013-0.013-0.027-0.02-0.04
	c-0.007-0.013-0.013-0.026-0.02-0.04c-0.007-0.013-0.013-0.027-0.02-0.04c-0.007-0.013-0.013-0.027-0.02-0.04
	c-0.007-0.013-0.013-0.026-0.02-0.04c-0.007-0.013-0.013-0.027-0.02-0.04c-0.007-0.013-0.013-0.027-0.02-0.04
	c-0.007-0.013-0.013-0.026-0.02-0.04c-0.007-0.013-0.013-0.027-0.02-0.04c-0.007-0.013-0.013-0.027-0.02-0.04
	c-0.007-0.013-0.013-0.026-0.02-0.04c-0.007-0.013-0.013-0.027-0.02-0.04c-0.007-0.013-0.013-0.027-0.02-0.04
	c-0.007-0.013-0.013-0.026-0.02-0.04c-0.007-0.013-0.013-0.027-0.02-0.04c-0.007-0.013-0.013-0.027-0.02-0.04
	c-0.007-0.013-0.013-0.026-0.02-0.04c-0.007-0.013-0.013-0.027-0.02-0.04c-0.007-0.013-0.013-0.027-0.02-0.04
	c-0.007-0.013-0.013-0.026-0.02-0.04c-0.007-0.013-0.013-0.027-0.02-0.04c-0.007-0.013-0.013-0.027-0.02-0.04
	c-0.007-0.013-0.013-0.026-0.02-0.04c-0.007-0.013-0.013-0.027-0.02-0.04c-0.007-0.013-0.013-0.027-0.02-0.04
	c-0.007-0.013-0.013-0.026-0.02-0.04c-0.007-0.013-0.013-0.027-0.02-0.04c-0.007-0.013-0.013-0.027-0.02-0.04
	c-0.007-0.013-0.013-0.026-0.02-0.04c-0.007-0.013-0.013-0.027-0.02-0.04c-0.007-0.013-0.013-0.027-0.02-0.04
	c-0.007-0.013-0.013-0.026-0.02-0.04c-0.696-1.378-1.787-2.585-3.477-3.543c4.401-2.62,5.661-6.313,5.401-10.822
	c-0.113-1.957-0.08-3.929,0.007-5.889c0.175-3.941,1.359-5.164,5.548-5.229c-0.002,0.926-0.003,1.855,0.003,2.787
	c0.051,8.509-0.003,17.02,0.197,25.525c0.045,1.939,0.415,3.595,1.085,4.961c0.006,0.013,0.013,0.026,0.02,0.04
	c0.007,0.013,0.013,0.026,0.02,0.04c0.006,0.013,0.013,0.026,0.02,0.039c0.006,0.013,0.013,0.026,0.02,0.04
	c0.007,0.013,0.013,0.026,0.02,0.04c0.006,0.013,0.013,0.026,0.02,0.039c0.006,0.013,0.013,0.026,0.02,0.04
	c0.007,0.013,0.013,0.026,0.02,0.04c0.006,0.013,0.013,0.026,0.02,0.039c0.006,0.013,0.013,0.026,0.02,0.04
	c0.007,0.013,0.013,0.026,0.02,0.04c0.006,0.013,0.013,0.026,0.02,0.039c0.006,0.013,0.013,0.026,0.02,0.04
	c0.007,0.013,0.013,0.026,0.02,0.04c0.006,0.013,0.013,0.026,0.02,0.039c0.006,0.013,0.013,0.026,0.02,0.04
	c0.007,0.013,0.013,0.026,0.02,0.04c0.006,0.013,0.013,0.026,0.02,0.039c0.006,0.013,0.013,0.026,0.02,0.04
	c0.007,0.013,0.013,0.026,0.02,0.04c0.006,0.013,0.013,0.026,0.02,0.039c0.006,0.013,0.013,0.026,0.02,0.04
	c0.007,0.013,0.013,0.026,0.02,0.04c0.006,0.013,0.013,0.026,0.02,0.039c0.006,0.013,0.013,0.026,0.02,0.04
	c0.007,0.013,0.013,0.026,0.02,0.04c0.006,0.013,0.013,0.026,0.02,0.039c0.006,0.013,0.013,0.026,0.02,0.04
	c0.007,0.013,0.013,0.026,0.02,0.04c0.006,0.013,0.013,0.026,0.02,0.039c0.006,0.013,0.013,0.026,0.02,0.04
	c0.007,0.013,0.013,0.026,0.02,0.04c0.006,0.013,0.013,0.026,0.02,0.039c0.006,0.013,0.013,0.026,0.02,0.04
	c0.007,0.013,0.013,0.026,0.02,0.04c1.453,3.001,4.347,4.617,8.454,4.778c6.31,0.248,7.014-0.696,5.211-6.983
	C36.763,59.992,36.76,59.992,36.757,59.991z"/>
<path fill="#193754" d="M136.641,49.017c-0.007-0.013-0.013-0.027-0.02-0.04s-0.013-0.027-0.02-0.04s-0.013-0.027-0.02-0.04
	s-0.013-0.027-0.02-0.04s-0.013-0.027-0.02-0.04s-0.013-0.027-0.02-0.04s-0.013-0.027-0.02-0.04s-0.013-0.027-0.02-0.04
	s-0.013-0.027-0.02-0.04s-0.013-0.027-0.02-0.04s-0.013-0.027-0.02-0.04s-0.013-0.027-0.02-0.04s-0.013-0.027-0.02-0.04
	s-0.013-0.027-0.02-0.04s-0.013-0.027-0.02-0.04s-0.013-0.027-0.02-0.04s-0.013-0.027-0.02-0.04s-0.013-0.027-0.02-0.04
	s-0.013-0.027-0.02-0.04s-0.013-0.027-0.02-0.04s-0.013-0.027-0.02-0.04s-0.013-0.027-0.02-0.04s-0.013-0.027-0.02-0.04
	s-0.013-0.027-0.02-0.04s-0.013-0.027-0.02-0.04s-0.013-0.027-0.02-0.04s-0.013-0.027-0.02-0.04s-0.013-0.027-0.02-0.04
	s-0.013-0.027-0.02-0.04s-0.013-0.027-0.02-0.04s-0.013-0.027-0.02-0.04s-0.013-0.027-0.02-0.04s-0.013-0.027-0.02-0.04
	s-0.013-0.027-0.02-0.04s-0.013-0.027-0.02-0.04c-0.31-0.596-0.905-1.157-1.788-1.628c-1.244-0.664-2.149-1.471-2.779-2.418
	c-0.339-0.957-0.482-2.025-0.47-3.204c0.029-2.749,0.121-5.512-0.092-8.247c-0.143-1.844-0.574-3.507-1.262-4.941
	c-0.006-0.013-0.013-0.026-0.02-0.04c-0.006-0.013-0.013-0.026-0.02-0.039c-0.006-0.013-0.013-0.026-0.02-0.04
	c-0.006-0.013-0.013-0.026-0.02-0.04c-0.006-0.013-0.013-0.026-0.02-0.039c-0.006-0.013-0.013-0.026-0.02-0.04
	c-0.006-0.013-0.013-0.026-0.02-0.04c-0.006-0.013-0.013-0.026-0.02-0.039c-0.006-0.013-0.013-0.026-0.02-0.04
	c-0.006-0.013-0.013-0.026-0.02-0.04c-0.006-0.013-0.013-0.026-0.02-0.039c-0.006-0.013-0.013-0.026-0.02-0.04
	c-0.006-0.013-0.013-0.026-0.02-0.04c-0.006-0.013-0.013-0.026-0.02-0.039c-0.006-0.013-0.013-0.026-0.02-0.04
	c-0.006-0.013-0.013-0.026-0.02-0.04c-0.006-0.013-0.013-0.026-0.02-0.039c-0.006-0.013-0.013-0.026-0.02-0.04
	c-0.006-0.013-0.013-0.026-0.02-0.04c-0.006-0.013-0.013-0.026-0.02-0.039c-0.006-0.013-0.013-0.026-0.02-0.04
	c-0.006-0.013-0.013-0.026-0.02-0.04c-0.006-0.013-0.013-0.026-0.02-0.039c-0.006-0.013-0.013-0.026-0.02-0.04
	c-0.006-0.013-0.013-0.026-0.02-0.04c-0.006-0.013-0.013-0.026-0.02-0.039c-0.006-0.013-0.013-0.026-0.02-0.04
	c-0.006-0.013-0.013-0.026-0.02-0.04c-0.006-0.013-0.013-0.026-0.02-0.039c-0.006-0.013-0.013-0.026-0.02-0.04
	c-0.006-0.013-0.013-0.026-0.02-0.04c-0.006-0.013-0.013-0.026-0.02-0.039c-0.006-0.013-0.013-0.026-0.02-0.04
	c-0.006-0.013-0.013-0.026-0.02-0.04c-0.006-0.013-0.013-0.026-0.02-0.039c-2.034-4.282-6.358-6.535-12.216-5.466
	c0.309,1.374,0.316,4.024,0.84,5.006c0.007,0.013,0.013,0.027,0.02,0.04c0.007,0.013,0.013,0.027,0.02,0.04
	c0.007,0.013,0.013,0.027,0.02,0.04c0.007,0.013,0.013,0.027,0.02,0.04c0.007,0.013,0.013,0.027,0.02,0.04
	c0.007,0.013,0.013,0.027,0.02,0.04c0.007,0.013,0.013,0.027,0.02,0.04c0.007,0.013,0.013,0.027,0.02,0.04
	c0.007,0.013,0.013,0.027,0.02,0.04c0.007,0.013,0.013,0.027,0.02,0.04c0.007,0.013,0.013,0.027,0.02,0.04
	c0.007,0.013,0.013,0.027,0.02,0.04c0.007,0.013,0.013,0.027,0.02,0.04c0.007,0.013,0.013,0.027,0.02,0.04
	c0.007,0.013,0.013,0.027,0.02,0.04c0.007,0.013,0.013,0.027,0.02,0.04c0.007,0.013,0.013,0.027,0.02,0.04
	c0.007,0.013,0.013,0.027,0.02,0.04c0.007,0.013,0.013,0.027,0.02,0.04c0.007,0.013,0.013,0.027,0.02,0.04
	c0.007,0.013,0.013,0.027,0.02,0.04c0.007,0.013,0.013,0.027,0.02,0.04c0.007,0.013,0.013,0.027,0.02,0.04
	c0.007,0.013,0.013,0.027,0.02,0.04c0.007,0.013,0.013,0.027,0.02,0.04c0.007,0.013,0.013,0.027,0.02,0.04
	c0.007,0.013,0.013,0.027,0.02,0.04c0.007,0.013,0.013,0.027,0.02,0.04c0.007,0.013,0.013,0.027,0.02,0.04
	c0.007,0.013,0.013,0.027,0.02,0.04c0.007,0.013,0.013,0.027,0.02,0.04c0.007,0.013,0.013,0.027,0.02,0.04
	c0.007,0.013,0.013,0.027,0.02,0.04c0.007,0.013,0.013,0.027,0.02,0.04c0.007,0.013,0.013,0.027,0.02,0.04
	c0.099,0.199,0.217,0.338,0.361,0.392c1.278,0.484,2.123,1.127,2.68,1.877c0.457,1.48,0.305,3.189,0.27,4.869
	c-0.076,3.617-0.208,7.236,1.38,10.233c0.007,0.013,0.013,0.027,0.02,0.04c0.007,0.013,0.013,0.027,0.02,0.04
	c0.007,0.013,0.013,0.027,0.02,0.04c0.007,0.013,0.013,0.027,0.02,0.04c0.007,0.013,0.013,0.027,0.02,0.04
	c0.007,0.013,0.013,0.027,0.02,0.04c0.007,0.013,0.013,0.027,0.02,0.04c0.007,0.013,0.013,0.027,0.02,0.04
	c0.007,0.013,0.013,0.027,0.02,0.04c0.007,0.013,0.013,0.027,0.02,0.04c0.007,0.013,0.013,0.027,0.02,0.04
	c0.007,0.013,0.013,0.027,0.02,0.04c0.007,0.013,0.013,0.027,0.02,0.04c0.007,0.013,0.013,0.027,0.02,0.04
	c0.007,0.013,0.013,0.027,0.02,0.04c0.007,0.013,0.013,0.027,0.02,0.04c0.007,0.013,0.013,0.027,0.02,0.04
	c0.007,0.013,0.013,0.027,0.02,0.04c0.007,0.013,0.013,0.027,0.02,0.04c0.007,0.013,0.013,0.027,0.02,0.04
	c0.007,0.013,0.013,0.027,0.02,0.04c0.007,0.013,0.013,0.027,0.02,0.04c0.007,0.013,0.013,0.027,0.02,0.04
	c0.007,0.013,0.013,0.027,0.02,0.04c0.007,0.013,0.013,0.027,0.02,0.04c0.007,0.013,0.013,0.027,0.02,0.04
	c0.007,0.013,0.013,0.027,0.02,0.04c0.007,0.013,0.013,0.027,0.02,0.04c0.007,0.013,0.013,0.027,0.02,0.04
	c0.007,0.013,0.013,0.027,0.02,0.04c0.007,0.013,0.013,0.027,0.02,0.04c0.007,0.013,0.013,0.027,0.02,0.04
	c0.007,0.013,0.013,0.027,0.02,0.04c0.007,0.013,0.013,0.027,0.02,0.04c0.007,0.013,0.013,0.027,0.02,0.04
	c0.72,1.375,1.799,2.619,3.407,3.674c-4.537,2.396-5.636,6.057-5.427,10.452c0.106,2.22,0.269,4.496-0.096,6.661
	c-0.26,1.54-0.984,3.6-2.16,4.268c-2.716,1.542-2.635,3.429-1.991,5.773c0.003,0,0.006,0.001,0.009,0.001
	c0.004,0.013,0.007,0.026,0.01,0.039c0.003,0,0.006,0.001,0.009,0.001c0.004,0.013,0.007,0.026,0.01,0.039
	c0.003,0,0.006,0.001,0.009,0.001c0.004,0.013,0.007,0.026,0.01,0.039c0.003,0,0.006,0.001,0.009,0.001
	c0.004,0.013,0.007,0.026,0.01,0.039c0.003,0,0.006,0.001,0.009,0.001c0.004,0.013,0.007,0.026,0.01,0.039
	c0.003,0,0.006,0.001,0.009,0.001c0.004,0.013,0.007,0.026,0.01,0.039c0.003,0,0.006,0.001,0.009,0.001
	c0.004,0.013,0.007,0.026,0.01,0.039c0.003,0,0.006,0.001,0.009,0.001c0.004,0.013,0.007,0.026,0.01,0.039
	c0.003,0,0.006,0.001,0.009,0.001c0.004,0.013,0.007,0.026,0.01,0.039c0.003,0,0.006,0.001,0.009,0.001
	c0.004,0.013,0.007,0.026,0.01,0.039c0.003,0,0.006,0.001,0.009,0.001c0.004,0.013,0.007,0.026,0.01,0.039
	c0.003,0,0.006,0.001,0.009,0.001c0.004,0.013,0.007,0.026,0.01,0.039c0.003,0,0.006,0.001,0.009,0.001
	c0.004,0.013,0.007,0.026,0.01,0.039c0.003,0,0.006,0.001,0.009,0.001c0.004,0.013,0.007,0.026,0.01,0.039
	c0.003,0,0.006,0.001,0.009,0.001c0.004,0.013,0.007,0.026,0.01,0.039c0.003,0,0.006,0.001,0.009,0.001
	c0.004,0.013,0.007,0.026,0.01,0.039c0.003,0,0.006,0.001,0.009,0.001c0.004,0.013,0.007,0.026,0.01,0.039
	c0.003,0,0.006,0.001,0.009,0.001c0.004,0.013,0.007,0.026,0.01,0.039c0.003,0,0.006,0.001,0.009,0.001
	c0.004,0.013,0.007,0.026,0.01,0.039c0.003,0,0.006,0.001,0.009,0.001c0.004,0.013,0.007,0.026,0.01,0.039
	c0.003,0,0.006,0.001,0.009,0.001c0.004,0.013,0.007,0.026,0.01,0.039c0.003,0,0.006,0.001,0.009,0.001
	c0.004,0.013,0.007,0.026,0.01,0.039c0.003,0,0.006,0.001,0.009,0.001c0.004,0.013,0.007,0.026,0.01,0.039
	c0.003,0,0.006,0.001,0.009,0.001c0.004,0.013,0.007,0.026,0.01,0.039c0.003,0,0.006,0.001,0.009,0.001
	c0.004,0.013,0.007,0.026,0.01,0.039c0.003,0,0.006,0.001,0.009,0.001c0.004,0.013,0.007,0.026,0.01,0.039
	c0.003,0,0.006,0.001,0.009,0.001c0.004,0.013,0.007,0.026,0.01,0.039c0.003,0,0.006,0.001,0.009,0.001
	c0.004,0.013,0.007,0.026,0.01,0.039c0.003,0,0.006,0.001,0.009,0.001c0.004,0.013,0.007,0.026,0.01,0.039
	c0.003,0,0.006,0.001,0.009,0.001c0.004,0.013,0.007,0.026,0.01,0.039c0.003,0,0.006,0.001,0.009,0.001
	c0.004,0.013,0.007,0.026,0.01,0.039c0.003,0,0.006,0.001,0.009,0.001c0.004,0.013,0.007,0.026,0.01,0.039
	c0.003,0,0.006,0.001,0.009,0.001c0.004,0.013,0.007,0.026,0.01,0.039c0.003,0,0.006,0.001,0.009,0.001
	c0.004,0.013,0.007,0.026,0.01,0.039c0.003,0,0.006,0.001,0.009,0.001c0.004,0.013,0.007,0.026,0.01,0.039
	c0.003,0,0.006,0.001,0.009,0.001c0.004,0.013,0.007,0.026,0.01,0.039c8.343,1.074,12.735-2.656,12.847-10.727
	c0.035-2.488,0.05-4.976,0.031-7.464c-0.023-3.016,1.176-5.206,3.886-6.723C136.708,51.752,137.338,50.299,136.641,49.017z"/>
<path fill="#FFFFFF" d="M36.052,58.564c1.802,6.288,1.098,7.231-5.211,6.983c-5.966-0.234-9.374-3.537-9.519-9.7
	c-0.2-8.505-0.145-17.016-0.197-25.525c-0.009-1.413-0.001-2.825-0.001-4.217c-4.775-0.061-6.08,1.072-6.264,5.23
	c-0.087,1.96-0.12,3.932-0.007,5.889c0.28,4.86-1.202,8.772-6.483,11.414c6.277,2.368,6.542,7.22,6.468,12.38
	c-0.058,4.035-1.165,8.524,3.994,10.897c0.736,0.339,0.509,2.771,0.725,4.209C11.321,77.622,6.34,73.682,6.096,65.877
	c-0.074-2.354-0.082-4.714-0.015-7.068c0.095-3.387-0.699-6.069-4.203-7.613c-2.329-1.026-2.407-3.968-0.132-5.128
	c3.629-1.851,4.441-4.817,4.349-8.459c-0.063-2.483-0.138-4.991,0.129-7.452c0.681-6.272,4.368-9.616,10.659-9.785
	c3.401-0.091,6.813,0.123,10.208-0.045c2.628-0.13,3.341,0.914,3.303,3.435c-0.139,9.292-0.085,18.588-0.094,27.882
	C30.294,57.634,30.302,57.634,36.052,58.564z"/>
<path fill="#FFFFFF" d="M116.645,20.335c7.809-1.425,12.89,3.053,13.459,10.368c0.213,2.735,0.12,5.497,0.092,8.247
	c-0.033,3.133,1.032,5.486,3.963,7.05c2.769,1.478,2.711,3.833-0.099,5.406c-2.71,1.517-3.909,3.707-3.886,6.723
	c0.019,2.488,0.004,4.976-0.031,7.464c-0.112,8.071-4.504,11.801-12.847,10.727c-0.644-2.345-0.725-4.231,1.991-5.773
	c1.176-0.668,1.9-2.727,2.16-4.268c0.365-2.166,0.202-4.441,0.096-6.661c-0.224-4.699,1.047-8.558,6.416-10.931
	c-6.856-3.24-6.592-9.032-6.47-14.817c0.068-3.23,0.572-6.569-3.664-8.174C116.954,25.364,117.01,21.958,116.645,20.335z"/>
</svg>
