<?xml version="1.0" encoding="utf-8"?>
<!-- Generator: Adobe Illustrator 17.0.2, SVG Export Plug-In . SVG Version: 6.00 Build 0)  -->
<!DOCTYPE svg PUBLIC "-//W3C//DTD SVG 1.1//EN" "http://www.w3.org/Graphics/SVG/1.1/DTD/svg11.dtd">
<svg version="1.1" id="Capa_1" xmlns="http://www.w3.org/2000/svg" xmlns:xlink="http://www.w3.org/1999/xlink" x="0px" y="0px"
	 width="79px" height="98px" viewBox="0 0 79 98" enable-background="new 0 0 79 98" xml:space="preserve">
<g id="marionette">
	<g>
		<polygon fill="#A7A9AC" points="19.77,18.755 19.77,22.883 36.494,16.24 36.494,11.518 		"/>
		<polygon fill="#BCBDC0" points="12.983,2.064 12.108,7.359 15.316,5.384 16.034,0 		"/>
		<polygon fill="#BCBDC0" points="59.377,18.755 59.377,22.883 15.316,5.384 16.034,0 		"/>
		<polygon fill="#BCBDC0" points="66.163,2.064 67.038,7.359 63.829,5.384 63.111,0 		"/>
		<polygon fill="#818285" points="12.108,7.359 15.316,5.384 59.377,22.883 55.966,23.959 		"/>
		<polygon fill="#818285" points="67.038,7.359 63.829,5.384 19.77,22.883 23.18,23.959 		"/>
		<g>
			<polygon fill="#A7A9AC" points="63.829,5.384 63.111,0 39.635,10.158 39.635,14.994 			"/>
		</g>
		<g>
			<path fill="#939598" d="M12.984,36.881c-0.015,0-0.03,0-0.045-0.001c-0.297-0.025-0.516-0.286-0.492-0.582L14.87,7.404
				c0.025-0.296,0.283-0.516,0.582-0.491c0.296,0.025,0.517,0.285,0.492,0.581L13.52,36.388
				C13.496,36.668,13.261,36.881,12.984,36.881z"/>
		</g>
		<g>
			<path fill="#939598" d="M31.828,44.33c-0.211,0-0.411-0.125-0.497-0.332L22.749,23.42c-0.115-0.274,0.015-0.59,0.29-0.704
				c0.274-0.114,0.59,0.014,0.704,0.289l8.582,20.579c0.115,0.274-0.015,0.59-0.29,0.704C31.967,44.316,31.897,44.33,31.828,44.33z"
				/>
		</g>
		<g>
			<path fill="#939598" d="M65.926,36.881c0.015,0,0.031,0,0.046-0.001c0.296-0.025,0.516-0.286,0.492-0.582L64.041,7.403
				c-0.025-0.296-0.283-0.516-0.581-0.491c-0.296,0.025-0.516,0.285-0.492,0.581l2.423,28.895
				C65.414,36.668,65.65,36.881,65.926,36.881z"/>
		</g>
		<g>
			<path fill="#939598" d="M47.082,44.33c0.211,0,0.411-0.125,0.497-0.332L56.16,23.42c0.115-0.274-0.015-0.59-0.29-0.704
				c-0.274-0.114-0.59,0.014-0.704,0.289l-8.582,20.579c-0.115,0.274,0.016,0.59,0.29,0.704
				C46.943,44.316,47.014,44.33,47.082,44.33z"/>
		</g>
		<path fill="#931A2B" d="M54.441,33.202L39.5,50.566v12.339c0.644,0,1.167,0.521,1.167,1.166c0,0.644-0.522,1.166-1.167,1.166
			v12.159c0,0,16.287-9.31,19.921-22.098L70.817,42.69L54.441,33.202z"/>
		<path fill="#A81E2C" d="M38.333,64.071c0-0.645,0.522-1.166,1.167-1.166V50.566L24.559,33.202L7.823,42.175l11.756,13.123
			C23.213,68.087,39.5,77.397,39.5,77.397V65.238C38.856,65.238,38.333,64.715,38.333,64.071z"/>
		<g>
			<path fill="#959094" d="M39.5,64.968c-0.164,0-0.327-0.059-0.456-0.178L19.93,47.157c-0.273-0.251-0.29-0.677-0.038-0.951
				c0.252-0.273,0.678-0.29,0.951-0.039L39.5,63.379l18.657-17.212c0.274-0.252,0.699-0.235,0.951,0.039
				c0.252,0.273,0.235,0.7-0.038,0.951L39.957,64.79C39.828,64.909,39.664,64.968,39.5,64.968z"/>
		</g>
		<path fill="#CF2227" d="M22.405,64.7c0-10.365,2.153-31.498,2.153-31.498l-21.94,3.635c0,0-2.423,11.576-2.423,30.286
			c0,10.229,2.423,28.535,2.423,28.535L25.367,98C25.367,98,22.405,84.082,22.405,64.7z M12.243,88.885
			c-0.781,0-1.413-0.633-1.413-1.413s0.633-1.414,1.413-1.414c0.781,0,1.414,0.633,1.414,1.414S13.023,88.885,12.243,88.885z
			 M12.243,44.778c-0.781,0-1.413-0.633-1.413-1.414s0.633-1.414,1.413-1.414c0.781,0,1.414,0.633,1.414,1.414
			S13.023,44.778,12.243,44.778z"/>
		<g>
			<path fill="#959094" d="M12.242,88.658c-0.329,0-0.616-0.241-0.665-0.575c-0.011-0.079-1.151-8-1.151-20.557
				c0-13.342,1.136-24.125,1.148-24.233c0.04-0.37,0.371-0.639,0.741-0.598c0.37,0.039,0.637,0.371,0.598,0.741
				c-0.011,0.107-1.14,10.824-1.14,24.09c0,12.46,1.125,20.284,1.137,20.362c0.054,0.367-0.2,0.709-0.569,0.763
				C12.308,88.656,12.275,88.658,12.242,88.658z"/>
		</g>
		<path fill="#CF2227" d="M53.633,98l22.748-2.342c0,0,2.423-18.306,2.423-28.535c0-18.71-2.423-30.286-2.423-30.286l-21.94-3.635
			c0,0,2.154,21.133,2.154,31.498C56.595,84.082,53.633,98,53.633,98z M65.344,87.472c0-0.781,0.633-1.414,1.414-1.414
			s1.413,0.633,1.413,1.414s-0.632,1.413-1.413,1.413S65.344,88.252,65.344,87.472z M65.344,43.364c0-0.781,0.633-1.414,1.414-1.414
			s1.413,0.633,1.413,1.414s-0.632,1.414-1.413,1.414S65.344,44.145,65.344,43.364z"/>
		<g>
			<path fill="#959094" d="M66.758,88.658c0.329,0,0.616-0.241,0.665-0.575c0.012-0.079,1.151-8,1.151-20.557
				c0-13.342-1.136-24.125-1.148-24.233c-0.039-0.37-0.371-0.639-0.741-0.598c-0.37,0.039-0.637,0.371-0.598,0.741
				c0.011,0.107,1.14,10.824,1.14,24.09c0,12.46-1.126,20.284-1.137,20.362c-0.054,0.367,0.201,0.709,0.568,0.763
				C66.693,88.656,66.726,88.658,66.758,88.658z"/>
		</g>
	</g>
</g>
</svg>
