<?xml version="1.0" encoding="utf-8"?>
<!-- Generator: Adobe Illustrator 17.0.0, SVG Export Plug-In . SVG Version: 6.00 Build 0)  -->
<!DOCTYPE svg PUBLIC "-//W3C//DTD SVG 1.1//EN" "http://www.w3.org/Graphics/SVG/1.1/DTD/svg11.dtd">
<svg version="1.1" id="Layer_2" xmlns="http://www.w3.org/2000/svg" xmlns:xlink="http://www.w3.org/1999/xlink" x="0px" y="0px"
	 width="108px" height="98px" viewBox="0 0 108 98" enable-background="new 0 0 108 98" xml:space="preserve">
<g>
	<path fill="#007760" d="M77.737,91.025c0,3.579-2.901,6.48-6.48,6.48H36.743c-3.579,0-6.48-2.901-6.48-6.48V9.921
		c0-3.579,2.901-6.48,6.48-6.48h34.513c3.579,0,6.48,2.901,6.48,6.48V91.025z"/>
	<path fill="#00A083" d="M77.737,88.079c0,3.579-2.901,6.481-6.48,6.481H36.743c-3.579,0-6.48-2.902-6.48-6.481V6.975
		c0-3.579,2.901-6.48,6.48-6.48h34.513c3.579,0,6.48,2.901,6.48,6.48V88.079z"/>
	<rect x="35.148" y="9.724" fill="#00D6C3" width="37.704" height="70.401"/>
	<rect x="35.148" y="9.725" opacity="0.1" fill="#201600" width="37.704" height="35.201"/>
	<circle fill="#007760" cx="54" cy="87.637" r="4.566"/>
	<circle fill="#00BB99" cx="54" cy="85.87" r="4.566"/>
	<path fill="#007760" d="M47.507,6.42c0,0.519,0.659,0.939,1.473,0.939h10.04c0.813,0,1.473-0.42,1.473-0.939l0,0
		c0-0.519-0.659-0.939-1.473-0.939H48.98C48.167,5.481,47.507,5.901,47.507,6.42L47.507,6.42z"/>
	<path fill="#007760" d="M50.993,4.128c0,0.488,0.396,0.883,0.884,0.883h4.247c0.488,0,0.883-0.396,0.883-0.883l0,0
		c0-0.488-0.396-0.884-0.883-0.884h-4.247C51.388,3.244,50.993,3.64,50.993,4.128L50.993,4.128z"/>
</g>
</svg>
