<?xml version="1.0" encoding="utf-8"?>
<!-- Generator: Adobe Illustrator 17.0.2, SVG Export Plug-In . SVG Version: 6.00 Build 0)  -->
<!DOCTYPE svg PUBLIC "-//W3C//DTD SVG 1.1//EN" "http://www.w3.org/Graphics/SVG/1.1/DTD/svg11.dtd">
<svg version="1.1" id="Capa_1" xmlns="http://www.w3.org/2000/svg" xmlns:xlink="http://www.w3.org/1999/xlink" x="0px" y="0px"
	 width="73px" height="98px" viewBox="0 0 73 98" enable-background="new 0 0 73 98" xml:space="preserve">
<g id="node2">
	<g>
		<polygon fill="#EDECEB" points="5.391,66.96 5.391,31.04 36.454,13.105 36.454,7.272 0.339,28.123 0.339,69.877 36.454,90.728 
			36.454,84.895 		"/>
		<polygon fill="#FFFFFF" points="72.661,69.877 72.661,28.123 36.499,7.246 36.454,7.272 36.454,13.105 36.499,13.079 
			67.609,31.04 67.609,66.96 36.499,84.921 36.454,84.895 36.454,90.728 36.499,90.754 		"/>
		<polygon fill="#809E46" points="2.865,29.582 36.499,10.162 70.135,29.582 70.135,68.418 36.499,87.838 2.865,68.418 		"/>
		<polyline fill="#6E9622" points="36.499,87.838 2.865,68.418 2.865,29.582 36.499,10.162 		"/>
		<polyline fill="#79A92B" points="36.499,10.162 70.135,29.582 70.135,68.418 36.499,87.838 		"/>
		<polygon fill="#FFFFFF" points="28.547,42.273 36.499,37.179 44.453,42.273 44.453,60.859 60.336,69.239 60.773,68.986 
			60.773,32.3 36.499,18.285 12.227,32.3 12.227,68.986 12.664,69.239 28.547,60.859 		"/>
		<polyline fill="#FFFFFF" points="36.499,18.285 12.227,32.3 12.227,68.986 12.664,69.239 28.547,60.859 28.547,42.273 
			36.499,37.179 		"/>
	</g>
</g>
</svg>
