<?xml version="1.0" encoding="utf-8"?>
<!-- Generator: Adobe Illustrator 17.0.2, SVG Export Plug-In . SVG Version: 6.00 Build 0)  -->
<!DOCTYPE svg PUBLIC "-//W3C//DTD SVG 1.1//EN" "http://www.w3.org/Graphics/SVG/1.1/DTD/svg11.dtd">
<svg version="1.1" id="Capa_1" xmlns="http://www.w3.org/2000/svg" xmlns:xlink="http://www.w3.org/1999/xlink" x="0px" y="0px"
	 width="88px" height="98px" viewBox="0 0 88 98" enable-background="new 0 0 88 98" xml:space="preserve">
<g id="phonegap">
	<g>
		<path fill="#E8E8E8" d="M56.944,45.515c-1.1,0-1.991,3.317-1.991,7.408s0.892,7.408,1.991,7.408s1.991-3.317,1.991-7.408
			C58.936,48.831,58.044,45.515,56.944,45.515z M67.897,7.18H20.103L0.189,39.042L8.154,90.82h14.189l-0.996-11.949h6.97
			l0.996,11.949h29.374l0.996-11.949h6.97L65.657,90.82h14.189l7.966-51.777L67.897,7.18z M67.897,70.905H20.103L16.12,39.042
			l7.966-15.931h12.802l-0.853,5.974h15.931l-0.853-5.974h12.802l7.966,15.931L67.897,70.905z M31.803,46.132
			c-1.1,0-1.991,3.317-1.991,7.408s0.892,7.408,1.991,7.408c1.099,0,1.991-3.317,1.991-7.408S32.902,46.132,31.803,46.132z"/>
		<polygon fill="#D8D8D8" points="87.808,39.061 79.845,90.82 65.656,90.82 66.652,78.872 59.682,78.872 58.686,90.82 29.312,90.82 
			28.317,78.872 21.347,78.872 22.342,90.82 8.153,90.82 0.19,39.061 16.122,39.061 20.102,70.906 67.896,70.906 71.877,39.061 		
			"/>
	</g>
</g>
</svg>
