<?xml version="1.0" encoding="utf-8"?>
<!-- Generator: Adobe Illustrator 17.0.2, SVG Export Plug-In . SVG Version: 6.00 Build 0)  -->
<!DOCTYPE svg PUBLIC "-//W3C//DTD SVG 1.1//EN" "http://www.w3.org/Graphics/SVG/1.1/DTD/svg11.dtd">
<svg version="1.1" id="Capa_1" xmlns="http://www.w3.org/2000/svg" xmlns:xlink="http://www.w3.org/1999/xlink" x="0px" y="0px"
	 width="91px" height="98px" viewBox="0 0 91 98" enable-background="new 0 0 91 98" xml:space="preserve">
<g id="react">
	<g>
		<g>
			<path fill="#46A6BC" d="M76.694,36.447c-1.4-0.532-2.882-1.02-4.423-1.471c0.396-1.556,0.729-3.08,0.983-4.556
				c1.653-9.612-0.017-16.429-4.703-19.197c-1.423-0.841-3.058-1.267-4.859-1.267c-5.142,0-11.628,3.7-18.192,9.955
				c-6.564-6.256-13.05-9.955-18.192-9.955c-1.801,0-3.436,0.426-4.859,1.267c-4.685,2.767-6.355,9.584-4.703,19.197
				c0.254,1.476,0.587,3,0.983,4.556c-1.542,0.451-3.023,0.939-4.423,1.471C5.188,39.913,0.167,44.816,0.167,50.258
				c0,5.441,5.021,10.346,14.138,13.811c1.4,0.532,2.881,1.019,4.422,1.47c-0.396,1.556-0.729,3.08-0.983,4.556
				c-1.652,9.613,0.018,16.43,4.704,19.197c1.423,0.84,3.057,1.266,4.859,1.266l0,0c5.142,0,11.628-3.7,18.192-9.955
				c6.564,6.256,13.05,9.955,18.192,9.955c1.801,0,3.436-0.426,4.858-1.266c4.686-2.767,6.356-9.584,4.704-19.197
				C73,68.62,72.668,67.096,72.271,65.54c1.542-0.451,3.023-0.938,4.423-1.47c9.117-3.465,14.138-8.37,14.138-13.811
				C90.833,44.816,85.812,39.913,76.694,36.447z M63.692,14.849c0.927,0,1.703,0.192,2.372,0.587
				c3.282,1.939,3.917,8.854,1.492,18.336c-3.642-0.806-7.553-1.406-11.639-1.784c-2.275-3.139-4.628-6.023-7.001-8.597
				C54.457,18.071,59.777,14.849,63.692,14.849z M27.162,55.897c0.702,1.301,1.435,2.6,2.198,3.892
				c0.686,1.163,1.387,2.301,2.099,3.417c-2.331-0.312-4.539-0.698-6.616-1.145C25.511,60.047,26.283,57.987,27.162,55.897z
				 M24.828,38.458c2.081-0.448,4.294-0.835,6.631-1.147c-0.712,1.115-1.413,2.253-2.099,3.416
				c-0.766,1.296-1.499,2.597-2.202,3.899C26.261,42.499,25.488,40.439,24.828,38.458z M29.748,50.26
				c1.163-2.345,2.44-4.701,3.824-7.045c1.339-2.266,2.745-4.451,4.193-6.539c2.481-0.173,5.059-0.269,7.735-0.269
				s5.254,0.096,7.734,0.269c1.448,2.088,2.855,4.273,4.193,6.539c1.384,2.344,2.661,4.7,3.824,7.045
				c-1.144,2.301-2.414,4.653-3.824,7.042c-1.339,2.267-2.746,4.451-4.194,6.539c-2.48,0.173-5.058,0.27-7.734,0.27
				s-5.254-0.096-7.734-0.27c-1.448-2.087-2.855-4.272-4.194-6.539C32.162,54.913,30.892,52.561,29.748,50.26z M61.64,59.789
				c0.764-1.293,1.496-2.592,2.198-3.892c0.879,2.091,1.65,4.15,2.318,6.164c-2.076,0.448-4.285,0.833-6.616,1.145
				C60.253,62.09,60.953,60.952,61.64,59.789z M63.842,44.626c-0.703-1.303-1.437-2.603-2.202-3.899
				c-0.686-1.163-1.387-2.301-2.099-3.416c2.337,0.312,4.55,0.699,6.631,1.147C65.512,40.439,64.739,42.499,63.842,44.626z
				 M49.464,31.584c-1.312-0.045-2.633-0.071-3.965-0.071s-2.653,0.026-3.965,0.071c1.31-1.656,2.637-3.221,3.965-4.68
				C46.828,28.363,48.154,29.928,49.464,31.584z M24.936,15.436c0.669-0.395,1.444-0.587,2.372-0.587
				c3.914,0,9.234,3.222,14.777,8.542c-2.373,2.574-4.726,5.458-7.001,8.597c-4.087,0.378-7.998,0.978-11.639,1.784
				C21.019,24.29,21.654,17.375,24.936,15.436z M20.089,60.868C10.691,58.134,5.06,54.071,5.06,50.258s5.631-7.876,15.03-10.609
				c1.124,3.443,2.542,7.007,4.229,10.608C22.631,53.86,21.214,57.424,20.089,60.868z M27.308,85.667
				c-0.927,0-1.702-0.192-2.371-0.587c-2.73-1.612-3.616-6.904-2.369-14.155c0.232-1.351,0.537-2.748,0.9-4.176
				c3.635,0.804,7.539,1.403,11.617,1.779c2.275,3.14,4.628,6.024,7.001,8.597C36.542,82.445,31.222,85.667,27.308,85.667z
				 M41.535,68.932c1.311,0.044,2.633,0.07,3.965,0.07c1.331,0,2.653-0.026,3.964-0.07c-1.31,1.655-2.636,3.221-3.964,4.679
				C44.171,72.153,42.845,70.588,41.535,68.932z M66.063,85.08c-0.669,0.394-1.444,0.587-2.371,0.587
				c-3.914,0-9.234-3.222-14.777-8.542c2.373-2.573,4.725-5.457,7.001-8.597c4.078-0.376,7.981-0.975,11.617-1.779
				c0.362,1.428,0.668,2.826,0.9,4.176C69.679,78.176,68.793,83.468,66.063,85.08z M70.911,60.868
				c-1.125-3.444-2.542-7.007-4.229-10.61c1.687-3.601,3.104-7.165,4.229-10.609c9.399,2.734,15.03,6.797,15.03,10.609
				C85.94,54.071,80.309,58.134,70.911,60.868z"/>
			<circle fill="#46A6BC" cx="45.5" cy="50.258" r="8.739"/>
		</g>
		<g>
			<path fill="#61D8FD" d="M76.694,33.931c-1.4-0.532-2.882-1.02-4.423-1.471c0.396-1.556,0.729-3.08,0.983-4.556
				c1.653-9.612-0.017-16.429-4.703-19.197c-1.423-0.841-3.058-1.267-4.859-1.267c-5.142,0-11.628,3.7-18.192,9.955
				C38.936,11.139,32.45,7.44,27.308,7.44c-1.801,0-3.436,0.426-4.859,1.267c-4.685,2.767-6.355,9.584-4.703,19.197
				c0.254,1.476,0.587,3,0.983,4.556c-1.542,0.451-3.023,0.939-4.423,1.471c-9.118,3.466-14.139,8.37-14.139,13.812
				c0,5.441,5.021,10.346,14.138,13.811c1.4,0.532,2.881,1.019,4.422,1.47c-0.396,1.556-0.729,3.08-0.983,4.556
				c-1.652,9.613,0.018,16.43,4.704,19.197c1.423,0.84,3.057,1.266,4.859,1.266l0,0c5.142,0,11.628-3.7,18.192-9.955
				c6.564,6.256,13.05,9.955,18.192,9.955c1.801,0,3.436-0.426,4.858-1.266c4.686-2.767,6.356-9.584,4.704-19.197
				c-0.254-1.475-0.586-2.999-0.983-4.556c1.542-0.451,3.023-0.938,4.423-1.47c9.117-3.465,14.138-8.37,14.138-13.811
				C90.833,42.301,85.812,37.397,76.694,33.931z M63.692,12.333c0.927,0,1.703,0.192,2.372,0.587
				c3.282,1.939,3.917,8.854,1.492,18.336c-3.642-0.806-7.553-1.406-11.639-1.784c-2.275-3.139-4.628-6.023-7.001-8.597
				C54.457,15.555,59.777,12.333,63.692,12.333z M27.162,53.381c0.702,1.301,1.435,2.6,2.198,3.892
				c0.686,1.163,1.387,2.301,2.099,3.417c-2.331-0.312-4.539-0.698-6.616-1.145C25.511,57.531,26.283,55.472,27.162,53.381z
				 M24.828,35.943c2.081-0.448,4.294-0.835,6.631-1.147c-0.712,1.115-1.413,2.253-2.099,3.416
				c-0.766,1.296-1.499,2.597-2.202,3.899C26.261,39.983,25.488,37.923,24.828,35.943z M29.748,47.744
				c1.163-2.345,2.44-4.701,3.824-7.045c1.339-2.266,2.745-4.451,4.193-6.539c2.481-0.173,5.059-0.269,7.735-0.269
				s5.254,0.096,7.734,0.269c1.448,2.088,2.855,4.273,4.193,6.539c1.384,2.344,2.661,4.7,3.824,7.045
				c-1.144,2.301-2.414,4.653-3.824,7.042c-1.339,2.267-2.746,4.451-4.194,6.539c-2.48,0.173-5.058,0.27-7.734,0.27
				s-5.254-0.096-7.734-0.27c-1.448-2.087-2.855-4.272-4.194-6.539C32.162,52.397,30.892,50.045,29.748,47.744z M61.64,57.274
				c0.764-1.293,1.496-2.592,2.198-3.892c0.879,2.091,1.65,4.15,2.318,6.164c-2.076,0.448-4.285,0.833-6.616,1.145
				C60.253,59.575,60.953,58.436,61.64,57.274z M63.842,42.111c-0.703-1.303-1.437-2.603-2.202-3.899
				c-0.686-1.163-1.387-2.301-2.099-3.416c2.337,0.312,4.55,0.699,6.631,1.147C65.512,37.923,64.739,39.983,63.842,42.111z
				 M49.464,29.069c-1.312-0.045-2.633-0.071-3.965-0.071s-2.653,0.026-3.965,0.071c1.31-1.656,2.637-3.221,3.965-4.68
				C46.828,25.848,48.154,27.412,49.464,29.069z M24.936,12.921c0.669-0.395,1.444-0.587,2.372-0.587
				c3.914,0,9.234,3.222,14.777,8.542c-2.373,2.574-4.726,5.458-7.001,8.597c-4.087,0.378-7.998,0.978-11.639,1.784
				C21.019,21.775,21.654,14.859,24.936,12.921z M20.089,58.352C10.691,55.619,5.06,51.555,5.06,47.743s5.631-7.876,15.03-10.609
				c1.124,3.443,2.542,7.007,4.229,10.608C22.631,51.345,21.214,54.908,20.089,58.352z M27.308,83.151
				c-0.927,0-1.702-0.192-2.371-0.587c-2.73-1.612-3.616-6.904-2.369-14.155c0.232-1.351,0.537-2.748,0.9-4.176
				c3.635,0.804,7.539,1.403,11.617,1.779c2.275,3.14,4.628,6.024,7.001,8.597C36.542,79.929,31.222,83.151,27.308,83.151z
				 M41.535,66.417c1.311,0.044,2.633,0.07,3.965,0.07c1.331,0,2.653-0.026,3.964-0.07c-1.31,1.655-2.636,3.221-3.964,4.679
				C44.171,69.638,42.845,68.072,41.535,66.417z M66.063,82.564c-0.669,0.394-1.444,0.587-2.371,0.587
				c-3.914,0-9.234-3.222-14.777-8.542c2.373-2.573,4.725-5.457,7.001-8.597c4.078-0.376,7.981-0.975,11.617-1.779
				c0.362,1.428,0.668,2.826,0.9,4.176C69.679,75.66,68.793,80.952,66.063,82.564z M70.911,58.352
				c-1.125-3.444-2.542-7.007-4.229-10.61c1.687-3.601,3.104-7.165,4.229-10.609c9.399,2.734,15.03,6.797,15.03,10.609
				S80.309,55.619,70.911,58.352z"/>
			<circle fill="#61D8FD" cx="45.5" cy="47.743" r="8.739"/>
		</g>
	</g>
</g>
</svg>
