<svg xmlns="http://www.w3.org/2000/svg" width="90" height="98" viewBox="0 0 90 98">
  <g fill="#764ABC" transform="translate(0 7)">
    <path d="M61.88,59.3866667 C65.1666667,59.0466667 67.66,56.2133333 67.5466667,52.8133333 C67.4333333,49.4133333 64.6,46.6933333 61.2,46.6933333 L60.9733333,46.6933333 C57.46,46.8066667 54.74,49.7533333 54.8533333,53.2666667 C54.9666667,54.9666667 55.6466667,56.44 56.6666667,57.46 C52.8133333,65.0533333 46.92,70.6066667 38.08,75.2533333 C32.0733333,78.4266667 25.84,79.56 19.6066667,78.7666667 C14.5066667,78.0866667 10.54,75.82 8.04666667,72.08 C4.42,66.5266667 4.08,60.52 7.14,54.5133333 C9.29333333,50.2066667 12.6933333,47.0333333 14.8466667,45.4466667 C14.3933333,43.9733333 13.7133333,41.48 13.3733333,39.6666667 C-3.06,51.5666667 -1.36,67.66 3.62666667,75.2533333 C7.36666667,80.92 14.96,84.4333333 23.3466667,84.4333333 C25.6133333,84.4333333 27.88,84.2066667 30.1466667,83.64 C44.6533333,80.8066667 55.6466667,72.1933333 61.88,59.3866667 Z"/>
    <path d="M81.8266667,45.3333333 C73.2133333,35.2466667 60.52,29.6933333 46.0133333,29.6933333 L44.2,29.6933333 C43.18,27.6533333 41.0266667,26.2933333 38.6466667,26.2933333 L38.42,26.2933333 C34.9066667,26.4066667 32.1866667,29.3533333 32.3,32.8666667 C32.4133333,36.2666667 35.2466667,38.9866667 38.6466667,38.9866667 L38.8733333,38.9866667 C41.3666667,38.8733333 43.52,37.2866667 44.4266667,35.1333333 L46.4666667,35.1333333 C55.08,35.1333333 63.24,37.6266667 70.6066667,42.5 C76.2733333,46.24 80.3533333,51.1133333 82.62,57.0066667 C84.5466667,61.7666667 84.4333333,66.4133333 82.3933333,70.38 C79.22,76.3866667 73.8933333,79.6733333 66.8666667,79.6733333 C62.3333333,79.6733333 58.0266667,78.3133333 55.76,77.2933333 C54.5133333,78.4266667 52.2466667,80.24 50.66,81.3733333 C55.5333333,83.64 60.52,84.8866667 65.28,84.8866667 C76.16,84.8866667 84.2066667,78.88 87.2666667,72.8733333 C90.5533333,66.3 90.3266667,54.9666667 81.8266667,45.3333333 Z"/>
    <path d="M24.2533333,61.3133333 C24.3666667,64.7133333 27.2,67.4333333 30.6,67.4333333 L30.8266667,67.4333333 C34.34,67.32 37.06,64.3733333 36.9466667,60.86 C36.8333333,57.46 34,54.74 30.6,54.74 L30.3733333,54.74 C30.1466667,54.74 29.8066667,54.74 29.58,54.8533333 C24.9333333,47.1466667 23.0066667,38.76 23.6866667,29.6933333 C24.14,22.8933333 26.4066667,17 30.3733333,12.1266667 C33.66,7.93333333 40.0066667,5.89333333 44.3133333,5.78 C56.3266667,5.55333333 61.4266667,20.5133333 61.7666667,26.52 C63.24,26.86 65.7333333,27.6533333 67.4333333,28.22 C66.0733333,9.86 54.74,0.34 43.86,0.34 C33.66,0.34 24.2533333,7.70666667 20.5133333,18.5866667 C15.3,33.0933333 18.7,47.0333333 25.0466667,58.0266667 C24.48,58.82 24.14,60.0666667 24.2533333,61.3133333 Z"/>
  </g>
</svg>
