<?xml version="1.0" encoding="utf-8"?>
<!-- Generator: Adobe Illustrator 17.0.2, SVG Export Plug-In . SVG Version: 6.00 Build 0)  -->
<!DOCTYPE svg PUBLIC "-//W3C//DTD SVG 1.1//EN" "http://www.w3.org/Graphics/SVG/1.1/DTD/svg11.dtd">
<svg version="1.1" id="Capa_1" xmlns="http://www.w3.org/2000/svg" xmlns:xlink="http://www.w3.org/1999/xlink" x="0px" y="0px"
	 width="102px" height="98px" viewBox="0 0 102 98" enable-background="new 0 0 102 98" xml:space="preserve">
<g id="sass">
	<path fill="#E978B3" d="M45.989,55.694c3.198-0.186,3.63,0.381,2.874,3.339c-0.719,2.815-1.416,5.636-2.031,8.474
		c-0.173,0.798-0.027,1.666-0.027,3.17c0.661-0.996,1.025-1.405,1.235-1.884c3.098-7.048,6.195-14.098,9.242-21.169
		c0.695-1.613,4.639-2.664,5.778-1.32c0.357,0.422,0.183,1.481-0.025,2.165c-1.032,3.419-1.023,6.701,0.999,10.018
		c0.328-0.312,0.645-0.488,0.774-0.756c2.067-4.31,4.184-8.599,6.128-12.964c0.892-2.005,3.733-2.682,6.394-1.174
		c-0.376,1.489-1.192,3.06-1.054,4.542c0.244,2.613,1,5.192,1.738,7.728c0.096,0.33,1.463,0.632,2.056,0.423
		c4.087-1.447,8.241-1.928,12.444-0.841c4.499,1.163,7.897,3.721,9.142,8.44c1.014,3.841-1.101,7.295-4.812,8.085
		c-0.192-0.189-0.384-0.378-0.576-0.566c0.443-0.173,0.976-0.241,1.317-0.533c2.992-2.562,3.25-5.788,0.577-8.751
		c-3.392-3.76-7.957-4.266-12.625-4.084c-1.916,0.076-3.813,0.652-5.556,0.972c-0.139,0.506-0.232,0.652-0.204,0.77
		c1.404,5.968-1.658,10.582-7.768,11.688c-2.279,0.413-3.377-0.493-3.191-2.809c0.261-3.254,2.149-5.692,4.414-7.79
		c1.185-1.099,1.214-1.95,0.568-3.338c-0.866-1.862-1.392-3.883-2.117-5.99c-1.99,3.285-3.91,6.358-5.7,9.506
		c-0.286,0.504-0.121,1.384,0.069,2.021c2.014,6.754-3.752,13.132-10.73,11.833c-1.668-0.311-2.114-1.519-0.941-3.088
		c1.698-2.274,3.483-4.49,5.352-6.624c1.143-1.304,1.431-2.399,0.561-4.065c-1.014-1.943-1.568-4.126-2.444-6.543
		c-0.404,0.862-0.688,1.493-0.989,2.114c-2.474,5.101-4.917,10.218-7.455,15.288c-0.578,1.154-1.363,2.261-2.265,3.183
		c-1.968,2.013-3.947,1.428-4.625-1.281c-0.175-0.702-0.261-1.432-0.318-2.154c-0.052-0.675-0.012-1.358-0.431-2.115
		c-0.885,1.793-1.756,3.592-2.662,5.375c-0.798,1.572-1.901,2.818-3.827,2.795c-1.972-0.022-2.885-1.44-3.657-2.998
		c-1.99-4.018-1.676-8.171-0.762-12.363c0.106-0.483,0.23-0.963,0.48-2.012c-2.173,1.219-3.938,2.208-5.829,3.268
		c1.826,4.916,1.625,9.647-0.561,14.275c-2.639,5.586-9.181,9.598-14.986,9.184c-4.642-0.331-7.15-3.473-6.525-8.1
		c0.49-3.623,2.425-6.402,5.248-8.498c2.795-2.077,5.789-3.888,8.712-5.789c0.77-0.502,1.601-0.91,2.761-1.562
		c-1.611-1.192-2.95-2.142-4.244-3.147c-3.615-2.81-7.462-5.381-10.763-8.525c-6.269-5.97-6.6-11.503-1.625-18.642
		c3.301-4.737,7.586-8.447,12.443-11.476c8.334-5.194,17.089-9.36,27.038-10.388c4.638-0.479,9.172,0,13.504,1.732
		c6.229,2.49,8.794,7.768,7.123,14.284c-1.065,4.151-3.276,7.634-6.372,10.493c-7.646,7.057-16.793,9.302-26.874,7.615
		c-1.981-0.331-3.806-1.959-5.54-3.213c-0.661-0.478-0.865-1.588-1.496-2.843c10.081,6.483,18.638,2.809,26.948-2.251
		c3.266-1.988,5.794-4.872,7.422-8.408c2.66-5.778,0.583-9.827-5.662-11.13c-4.524-0.944-9.004-0.53-13.39,0.688
		c-10.119,2.81-19.266,7.465-26.63,15.087c-1.713,1.774-3.043,4.115-3.946,6.431c-1.597,4.093-0.251,7.822,2.789,10.748
		c2.825,2.715,5.963,5.108,8.982,7.622c1.32,1.099,2.628,2.888,4.051,3.004c1.465,0.119,3.047-1.454,4.608-2.225
		c3.018-1.49,5.781-3.265,8.086-5.805c1.034-1.14,2.527-1.99,3.967-2.613c3.432-1.481,5.346-0.149,5.409,3.564
		C45.997,54.369,45.989,54.949,45.989,55.694z M21.801,65.934c-4.287,2.616-8.67,5.04-11.436,9.426
		c-0.634,1.005-1.008,2.27-1.163,3.459c-0.334,2.555,0.749,3.779,3.201,3.203c1.968-0.462,3.984-1.402,5.578-2.644
		C22.09,76.178,23.751,70.101,21.801,65.934z M35.51,71.948c0.384,0.069,0.768,0.138,1.152,0.207
		c2.964-5.757,5.511-11.666,6.629-18.6c-4.257,0.8-5.568,3.811-6.862,6.656C34.701,64.014,33.925,67.961,35.51,71.948z
		 M71.168,68.499c0.208,0.141,0.416,0.282,0.623,0.424c3.353-0.701,4.965-3.695,3.345-7.293
		C73.687,64.137,72.427,66.318,71.168,68.499z M61.793,66.785c-1.493,1.788-2.985,3.578-4.478,5.367
		c0.161,0.127,0.323,0.254,0.484,0.381C59.934,71.281,61.742,69.763,61.793,66.785z"/>
</g>
</svg>
