<?xml version="1.0" encoding="utf-8"?>
<!-- Generator: Adobe Illustrator 17.0.2, SVG Export Plug-In . SVG Version: 6.00 Build 0)  -->
<!DOCTYPE svg PUBLIC "-//W3C//DTD SVG 1.1//EN" "http://www.w3.org/Graphics/SVG/1.1/DTD/svg11.dtd">
<svg version="1.1" id="Capa_1" xmlns="http://www.w3.org/2000/svg" xmlns:xlink="http://www.w3.org/1999/xlink" x="0px" y="0px"
	 width="84px" height="98px" viewBox="0 0 84 98" enable-background="new 0 0 84 98" xml:space="preserve">
<g id="vim">
	<g>
		<path fill="#46AF46" d="M83.316,47.782c0.673,0.673,0.673,1.764,0,2.436L43.218,90.316c-0.673,0.673-1.764,0.673-2.436,0
			L0.684,50.218c-0.673-0.673-0.673-1.764,0-2.436L40.782,7.684c0.673-0.673,1.764-0.673,2.436,0L83.316,47.782z"/>
		<path fill="#195E19" d="M80.365,22.78c0.028-0.196-0.008-0.405-0.105-0.664c0.028-0.196-0.008-0.405-0.105-0.664
			c0.028-0.196-0.008-0.405-0.105-0.664c0.028-0.196-0.008-0.405-0.105-0.664c0.072-0.499-0.269-1.083-0.988-2.352
			c-0.415-0.733-0.987-1.105-1.827-1.108c-0.931-0.004-1.861-0.043-2.792-0.053c-6.779-0.07-13.558-0.113-20.336-0.225
			c-1.257-0.021-2.144,0.339-2.679,1.494c-0.133,0.288-0.329,0.549-0.507,0.815c-0.317,0.475-0.362,0.892-0.16,1.276
			c-0.042,0.234-0.005,0.454,0.105,0.664c-0.042,0.234-0.005,0.454,0.105,0.664c-0.042,0.234-0.005,0.454,0.105,0.664
			c-0.042,0.234-0.005,0.454,0.105,0.664c-0.079,0.444,0.121,0.838,0.578,1.21c1.06,0.863,2.107,1.742,3.155,2.618
			c-2.527,2.451-5.056,4.902-7.574,7.362c-6.557,6.406-13.106,12.819-19.662,19.226c-0.517,0.505-1.048,0.994-1.576,1.487
			c0.019-1.808,0.04-3.615,0.052-5.423c0.043-6.053,0.117-12.106,0.088-18.159c-0.008-1.583,0.415-2.836,1.451-4.042
			c1.207-1.407,2.277-2.947,3.274-4.514c0.386-0.606,0.448-1.188,0.25-1.668c0.016-0.236-0.02-0.459-0.105-0.664
			c0.016-0.236-0.02-0.459-0.105-0.664c0.016-0.236-0.02-0.459-0.105-0.664c0.016-0.236-0.02-0.459-0.105-0.664
			c0.055-0.833-0.539-1.511-1.591-1.761c-0.197-0.047-0.401-0.079-0.603-0.086c-2.092-0.072-4.184-0.171-6.277-0.199
			c-5.147-0.067-10.293-0.114-15.44-0.117c-0.414,0-1.053,0.3-1.204,0.635c-0.579,1.282-1.045,2.622-1.466,3.968
			c-0.107,0.34-0.078,0.632,0.057,0.867c-0.042,0.254-0.003,0.477,0.105,0.664c-0.042,0.254-0.003,0.477,0.105,0.664
			c-0.042,0.254-0.003,0.477,0.105,0.664c-0.042,0.254-0.003,0.477,0.105,0.664c-0.101,0.615,0.27,1.046,0.939,1.23
			c0.645,0.177,1.286,0.366,1.933,0.533c0.937,0.242,1.543,0.529,1.918,0.993C9.325,37.416,9.262,48.045,9.213,58.674
			c-0.023,5.18-0.017,10.361-0.031,15.542c-0.008,3.085,0.045,6.172-0.064,9.254c-0.039,1.096-0.066,1.755,0.083,2.22
			c0.014,0.262,0.045,0.478,0.105,0.664c0.014,0.262,0.045,0.478,0.105,0.664c0.014,0.262,0.045,0.478,0.105,0.664
			c0.014,0.262,0.045,0.478,0.105,0.664c0.063,1.206,0.498,1.437,2.332,2.184c1.151,0.469,1.517,0.401,2.402-0.489
			c1.396-1.403,2.778-2.82,4.176-4.22c8.389-8.405,16.781-16.808,25.173-25.211c11.744-11.76,23.487-23.521,35.235-35.277
			C80.27,23.998,80.712,23.706,80.365,22.78z"/>
		<g>
			<g>
				<path fill="#D0D0D0" d="M25.76,54.751c-0.087-0.034-0.173-0.067-0.26-0.101c-0.019-0.306-0.055-0.613-0.053-0.919
					c0.023-2.648,0.06-5.295,0.078-7.943c0.043-6.053,0.117-12.106,0.088-18.159c-0.008-1.583,0.415-2.836,1.451-4.042
					c1.207-1.407,2.277-2.947,3.274-4.514c0.802-1.261,0.217-2.421-1.236-2.765c-0.197-0.047-0.401-0.079-0.603-0.086
					c-2.092-0.072-4.184-0.171-6.277-0.199c-5.147-0.067-10.293-0.114-15.44-0.117c-0.414,0-1.053,0.3-1.204,0.635
					c-0.579,1.282-1.045,2.622-1.466,3.968c-0.227,0.723,0.151,1.229,0.892,1.433c0.645,0.177,1.286,0.366,1.933,0.533
					c1.922,0.497,2.458,1.177,2.448,3.198c-0.054,11-0.12,22-0.17,33C9.19,63.854,9.196,69.035,9.182,74.216
					c-0.008,3.085,0.045,6.172-0.064,9.254c-0.094,2.666-0.126,2.747,2.31,3.74c1.151,0.469,1.517,0.401,2.402-0.489
					c1.396-1.403,2.778-2.82,4.176-4.22c8.389-8.405,16.781-16.808,25.173-25.211c11.744-11.76,23.487-23.521,35.235-35.277
					c1.906-1.907,1.993-1.681,0.543-4.239c-0.415-0.733-0.987-1.105-1.827-1.108c-0.931-0.004-1.861-0.043-2.792-0.053
					c-6.779-0.07-13.558-0.113-20.336-0.225c-1.257-0.021-2.144,0.339-2.679,1.494c-0.133,0.288-0.329,0.549-0.507,0.815
					c-0.472,0.709-0.343,1.288,0.313,1.822c1.4,1.139,2.776,2.306,4.164,3.459c0.956,0.794,0.965,1.071,0.079,1.931
					c-2.715,2.634-5.432,5.265-8.138,7.909c-6.557,6.406-13.106,12.819-19.662,19.226C26.979,53.623,26.364,54.182,25.76,54.751z"/>
				<path fill="#FFFFFF" d="M12.506,88.021c-0.395,0-0.795-0.13-1.275-0.326c-2.658-1.083-2.736-1.419-2.64-4.151l0.003-0.092
					c0.079-2.23,0.072-4.505,0.066-6.705c-0.002-0.844-0.005-1.688-0.002-2.532c0.005-2.052,0.008-4.104,0.01-6.156
					c0.004-3.077,0.007-6.258,0.021-9.388c0.029-6.285,0.062-12.57,0.096-18.855c0.025-4.715,0.051-9.43,0.074-14.145
					c0.009-1.772-0.356-2.249-2.055-2.688c-0.421-0.109-0.845-0.228-1.254-0.343c-0.229-0.064-0.457-0.129-0.687-0.192
					c-0.546-0.15-0.95-0.44-1.168-0.838c-0.199-0.365-0.229-0.8-0.086-1.257c0.518-1.651,0.977-2.893,1.489-4.027
					c0.251-0.556,1.087-0.943,1.681-0.943c4.557,0.003,9.465,0.04,15.448,0.117c1.527,0.02,3.077,0.079,4.575,0.136
					c0.571,0.022,1.142,0.043,1.713,0.063c0.222,0.008,0.46,0.041,0.706,0.1c0.914,0.217,1.574,0.719,1.857,1.416
					c0.267,0.658,0.161,1.418-0.299,2.141c-1.188,1.868-2.242,3.321-3.318,4.574c-0.936,1.09-1.332,2.196-1.325,3.698
					c0.023,4.63-0.016,9.335-0.054,13.886c-0.012,1.426-0.024,2.853-0.034,4.279c-0.01,1.479-0.027,2.958-0.043,4.436
					c-0.013,1.169-0.026,2.338-0.035,3.507c0,0.033,0,0.066,0.001,0.1c0.002-0.002,0.003-0.003,0.005-0.005
					c0.407-0.379,0.828-0.771,1.23-1.164c2.933-2.867,5.865-5.735,8.798-8.603c3.621-3.542,7.242-7.083,10.864-10.623
					c2.325-2.271,4.697-4.572,6.99-6.796l1.149-1.114c0.431-0.418,0.488-0.556,0.493-0.596c-0.008-0.034-0.076-0.169-0.542-0.556
					c-0.471-0.391-0.941-0.784-1.411-1.177c-0.898-0.751-1.827-1.528-2.749-2.279c-0.877-0.713-1.026-1.608-0.418-2.519
					c0.039-0.059,0.08-0.118,0.12-0.178c0.134-0.196,0.261-0.381,0.347-0.567c0.747-1.612,2.101-1.798,3.054-1.798
					c0.036,0,0.072,0,0.109,0.001c4.867,0.081,9.817,0.126,14.605,0.17c1.909,0.018,3.819,0.035,5.728,0.055
					c0.426,0.004,0.853,0.015,1.279,0.026c0.495,0.012,1.008,0.025,1.509,0.027c1.013,0.004,1.759,0.454,2.281,1.374l0.06,0.105
					c1.358,2.395,1.434,2.665-0.304,4.382c-0.118,0.117-0.246,0.243-0.384,0.381c-9.546,9.552-19.089,19.108-28.631,28.664
					l-7.04,7.05c-8.246,8.257-16.492,16.515-24.736,24.774c-0.755,0.756-1.505,1.518-2.256,2.279
					c-0.639,0.648-1.278,1.296-1.919,1.941C13.616,87.68,13.15,88.021,12.506,88.021z M6.78,16.432c-0.261,0-0.661,0.215-0.728,0.33
					c-0.492,1.09-0.937,2.295-1.442,3.905c-0.057,0.182-0.055,0.33,0.006,0.441c0.077,0.141,0.263,0.257,0.525,0.329
					c0.231,0.064,0.462,0.129,0.693,0.194c0.404,0.114,0.822,0.231,1.233,0.338c2.162,0.559,2.852,1.46,2.841,3.708
					c-0.023,4.715-0.049,9.43-0.074,14.146C9.8,46.106,9.766,52.391,9.737,58.676c-0.014,3.128-0.018,6.308-0.021,9.384
					c-0.002,2.052-0.005,4.105-0.01,6.158c-0.002,0.842,0,1.684,0.002,2.527c0.006,2.21,0.012,4.495-0.067,6.744l-0.003,0.093
					C9.597,84.74,9.574,85.378,9.78,85.71c0.197,0.319,0.714,0.555,1.846,1.016c0.427,0.174,0.69,0.248,0.88,0.248
					c0.217,0,0.433-0.099,0.953-0.622c0.641-0.644,1.278-1.291,1.916-1.938c0.752-0.763,1.504-1.525,2.26-2.283
					c8.244-8.26,16.49-16.517,24.736-24.775l7.04-7.05c9.543-9.556,19.085-19.112,28.632-28.664
					c0.139-0.139,0.268-0.267,0.388-0.385c0.634-0.626,0.983-0.971,0.999-1.239c0.018-0.315-0.316-0.904-0.87-1.881l-0.06-0.105
					c-0.333-0.588-0.744-0.84-1.373-0.843c-0.512-0.002-1.03-0.015-1.531-0.028c-0.421-0.011-0.843-0.021-1.264-0.025
					c-1.909-0.02-3.818-0.037-5.727-0.055c-4.789-0.044-9.741-0.09-14.612-0.17l-0.092-0.001c-1.117,0-1.706,0.334-2.103,1.191
					c-0.123,0.266-0.281,0.496-0.433,0.719c-0.038,0.055-0.076,0.111-0.113,0.166c-0.309,0.464-0.257,0.748,0.208,1.126
					c0.928,0.755,1.859,1.534,2.76,2.288c0.469,0.392,0.938,0.784,1.408,1.175c0.473,0.392,0.899,0.789,0.919,1.324
					c0.021,0.534-0.372,0.96-0.81,1.386l-1.149,1.114c-2.293,2.224-4.664,4.524-6.987,6.793c-3.623,3.539-7.243,7.081-10.864,10.623
					c-2.932,2.868-5.865,5.736-8.798,8.603c-0.411,0.402-0.837,0.798-1.249,1.181c-0.191,0.178-0.382,0.356-0.572,0.534
					l-0.241,0.226l-0.881-0.342l-0.02-0.335c-0.006-0.093-0.013-0.187-0.021-0.281c-0.017-0.217-0.035-0.442-0.033-0.674
					c0.01-1.17,0.023-2.34,0.036-3.51c0.016-1.477,0.032-2.955,0.043-4.432c0.01-1.427,0.022-2.853,0.034-4.28
					c0.038-4.547,0.077-9.25,0.054-13.872c-0.009-1.753,0.478-3.105,1.577-4.386c1.042-1.214,2.068-2.63,3.229-4.454
					c0.193-0.303,0.386-0.755,0.212-1.184c-0.152-0.373-0.552-0.654-1.127-0.79c-0.179-0.042-0.347-0.067-0.501-0.072
					c-0.572-0.02-1.144-0.041-1.716-0.063c-1.492-0.057-3.034-0.115-4.549-0.135C16.236,16.471,11.332,16.434,6.78,16.432z"/>
			</g>
			<g>
				<path fill="#D0D0D0" d="M25.76,54.751c0.605-0.569,1.219-1.128,1.813-1.709c6.555-6.407,13.105-12.82,19.662-19.226
					c2.706-2.643,5.423-5.275,8.138-7.909c0.886-0.86,0.878-1.137-0.079-1.931c-1.388-1.153-2.764-2.32-4.164-3.459
					c-0.657-0.534-0.785-1.114-0.313-1.822c0.177-0.266,0.373-0.527,0.507-0.815c0.535-1.155,1.422-1.514,2.679-1.494
					c6.778,0.112,13.557,0.155,20.336,0.225c0.931,0.01,1.861,0.049,2.792,0.053c0.84,0.003,1.411,0.375,1.827,1.108
					c1.45,2.558,1.364,2.332-0.543,4.239C66.666,33.768,54.923,45.529,43.179,57.289C34.787,65.692,26.396,74.095,18.006,82.5
					c-1.398,1.401-2.78,2.817-4.176,4.22c-0.886,0.89-1.251,0.958-2.402,0.489c-2.436-0.993-2.404-1.074-2.31-3.74
					c0.109-3.082,0.056-6.169,0.064-9.254c0.014-5.181,0.008-10.362,0.032-15.543c0.05-11,0.116-22,0.17-33
					c0.01-2.021-0.526-2.701-2.448-3.198c-0.647-0.167-1.289-0.356-1.933-0.533c-0.741-0.203-1.119-0.709-0.892-1.433
					c0.422-1.345,0.887-2.685,1.466-3.968c0.151-0.334,0.79-0.635,1.204-0.635c5.147,0.003,10.294,0.051,15.44,0.117
					c2.093,0.027,4.185,0.126,6.277,0.199c0.202,0.007,0.406,0.039,0.603,0.086c1.453,0.344,2.039,1.504,1.236,2.765
					c-0.997,1.567-2.066,3.108-3.274,4.514c-1.036,1.206-1.459,2.459-1.451,4.042c0.03,6.053-0.045,12.106-0.088,18.159
					c-0.019,2.648-0.056,5.295-0.078,7.943c-0.003,0.306,0.034,0.612,0.053,0.919C25.586,54.684,25.673,54.718,25.76,54.751z"/>
				<path fill="#FFFFFF" d="M12.506,88.021c-0.395,0-0.795-0.13-1.275-0.326c-2.658-1.083-2.736-1.419-2.64-4.151l0.003-0.092
					c0.079-2.23,0.072-4.505,0.066-6.705c-0.002-0.844-0.005-1.688-0.002-2.532c0.005-2.052,0.008-4.104,0.01-6.156
					c0.004-3.077,0.007-6.258,0.021-9.388c0.029-6.285,0.062-12.57,0.096-18.855c0.025-4.715,0.051-9.43,0.074-14.145
					c0.009-1.772-0.356-2.249-2.055-2.688c-0.421-0.109-0.845-0.228-1.254-0.343c-0.229-0.064-0.457-0.129-0.687-0.192
					c-0.546-0.15-0.95-0.44-1.168-0.838c-0.199-0.365-0.229-0.8-0.086-1.257c0.518-1.651,0.977-2.893,1.489-4.027
					c0.251-0.556,1.087-0.943,1.681-0.943c4.557,0.003,9.465,0.04,15.448,0.117c1.527,0.02,3.077,0.079,4.575,0.136
					c0.571,0.022,1.142,0.043,1.713,0.063c0.222,0.008,0.46,0.041,0.706,0.1c0.914,0.217,1.574,0.719,1.857,1.416
					c0.267,0.658,0.161,1.418-0.299,2.141c-1.188,1.868-2.242,3.321-3.318,4.574c-0.936,1.09-1.332,2.196-1.325,3.698
					c0.023,4.63-0.016,9.335-0.054,13.886c-0.012,1.426-0.024,2.853-0.034,4.279c-0.01,1.479-0.027,2.958-0.043,4.436
					c-0.013,1.169-0.026,2.338-0.035,3.507c0,0.033,0,0.066,0.001,0.1c0.002-0.002,0.003-0.003,0.005-0.005
					c0.407-0.379,0.828-0.771,1.23-1.164c2.933-2.867,5.865-5.735,8.798-8.603c3.621-3.542,7.242-7.083,10.864-10.623
					c2.325-2.271,4.697-4.572,6.99-6.796l1.149-1.114c0.431-0.418,0.488-0.556,0.493-0.596c-0.008-0.034-0.076-0.169-0.542-0.556
					c-0.471-0.391-0.941-0.784-1.411-1.177c-0.898-0.751-1.827-1.528-2.749-2.279c-0.877-0.713-1.026-1.608-0.418-2.519
					c0.039-0.059,0.08-0.118,0.12-0.178c0.134-0.196,0.261-0.381,0.347-0.567c0.747-1.612,2.101-1.798,3.054-1.798
					c0.036,0,0.072,0,0.109,0.001c4.867,0.081,9.817,0.126,14.605,0.17c1.909,0.018,3.819,0.035,5.728,0.055
					c0.426,0.004,0.853,0.015,1.279,0.026c0.495,0.012,1.008,0.025,1.509,0.027c1.013,0.004,1.759,0.454,2.281,1.374l0.06,0.105
					c1.358,2.395,1.434,2.665-0.304,4.382c-0.118,0.117-0.246,0.243-0.384,0.381c-9.546,9.552-19.089,19.108-28.631,28.664
					l-7.04,7.05c-8.246,8.257-16.492,16.515-24.736,24.774c-0.755,0.756-1.505,1.518-2.256,2.279
					c-0.639,0.648-1.278,1.296-1.919,1.941C13.616,87.68,13.15,88.021,12.506,88.021z M6.78,16.432c-0.261,0-0.661,0.215-0.728,0.33
					c-0.492,1.09-0.937,2.295-1.442,3.905c-0.057,0.182-0.055,0.33,0.006,0.441c0.077,0.141,0.263,0.257,0.525,0.329
					c0.231,0.064,0.462,0.129,0.693,0.194c0.404,0.114,0.822,0.231,1.233,0.338c2.162,0.559,2.852,1.46,2.841,3.708
					c-0.023,4.715-0.049,9.43-0.074,14.146C9.8,46.106,9.766,52.391,9.737,58.676c-0.014,3.128-0.018,6.308-0.021,9.384
					c-0.002,2.052-0.005,4.105-0.01,6.158c-0.002,0.842,0,1.684,0.002,2.527c0.006,2.21,0.012,4.495-0.067,6.744l-0.003,0.093
					C9.597,84.74,9.574,85.378,9.78,85.71c0.197,0.319,0.714,0.555,1.846,1.016c0.427,0.174,0.69,0.248,0.88,0.248
					c0.217,0,0.434-0.099,0.953-0.622c0.641-0.644,1.278-1.291,1.916-1.938c0.752-0.763,1.504-1.525,2.26-2.283
					c8.244-8.26,16.49-16.517,24.736-24.775l7.04-7.05c9.543-9.556,19.085-19.112,28.632-28.664
					c0.139-0.139,0.268-0.267,0.388-0.385c0.634-0.626,0.983-0.971,0.999-1.239c0.018-0.315-0.316-0.904-0.87-1.881l-0.06-0.105
					c-0.333-0.588-0.744-0.84-1.373-0.843c-0.512-0.002-1.03-0.015-1.531-0.028c-0.421-0.011-0.843-0.021-1.264-0.025
					c-1.909-0.02-3.818-0.037-5.727-0.055c-4.789-0.044-9.741-0.09-14.612-0.17l-0.092-0.001c-1.117,0-1.706,0.334-2.103,1.191
					c-0.123,0.266-0.281,0.496-0.433,0.719c-0.038,0.055-0.076,0.111-0.113,0.166c-0.309,0.464-0.257,0.748,0.208,1.126
					c0.928,0.755,1.859,1.534,2.76,2.288c0.469,0.392,0.938,0.784,1.408,1.175c0.473,0.392,0.899,0.789,0.919,1.324
					c0.021,0.534-0.372,0.96-0.81,1.386l-1.149,1.114c-2.293,2.224-4.664,4.524-6.987,6.793c-3.623,3.539-7.243,7.081-10.864,10.623
					c-2.932,2.868-5.865,5.736-8.798,8.603c-0.411,0.402-0.837,0.798-1.249,1.181c-0.191,0.178-0.382,0.356-0.572,0.534
					l-0.241,0.226l-0.881-0.342l-0.02-0.335c-0.006-0.093-0.013-0.187-0.021-0.281c-0.017-0.217-0.035-0.442-0.033-0.674
					c0.01-1.17,0.023-2.34,0.036-3.51c0.016-1.477,0.032-2.955,0.043-4.432c0.01-1.427,0.022-2.853,0.034-4.28
					c0.038-4.547,0.077-9.25,0.054-13.872c-0.009-1.753,0.478-3.105,1.577-4.386c1.042-1.214,2.068-2.63,3.229-4.454
					c0.193-0.303,0.386-0.755,0.212-1.184c-0.152-0.373-0.552-0.654-1.127-0.79c-0.179-0.042-0.347-0.067-0.501-0.072
					c-0.572-0.02-1.144-0.041-1.716-0.063c-1.492-0.057-3.034-0.115-4.549-0.135C16.236,16.471,11.332,16.434,6.78,16.432z"/>
			</g>
		</g>
	</g>
</g>
</svg>
