<?xml version="1.0" encoding="utf-8"?>
<!-- Generator: Adobe Illustrator 17.0.0, SVG Export Plug-In . SVG Version: 6.00 Build 0)  -->
<!DOCTYPE svg PUBLIC "-//W3C//DTD SVG 1.1//EN" "http://www.w3.org/Graphics/SVG/1.1/DTD/svg11.dtd">
<svg version="1.1" id="Layer_2" xmlns="http://www.w3.org/2000/svg" xmlns:xlink="http://www.w3.org/1999/xlink" x="0px" y="0px"
	 width="88px" height="90px" viewBox="0 0 88 90" enable-background="new 0 0 88 90" xml:space="preserve">
<path fill="#FFFFFF" d="M44,84.452c-23.171,0-42.022-18.851-42.022-42.022S20.829,0.407,44,0.407s42.022,18.851,42.022,42.022
	S67.171,84.452,44,84.452z"/>
<path fill="#DCDCDC" d="M44,89.593c-24.262,0-44-19.738-44-44c0-24.262,19.738-44,44-44c24.262,0,44,19.738,44,44
	C88,69.855,68.262,89.593,44,89.593z"/>
<circle fill="#42799A" cx="44" cy="42.429" r="40.243"/>
<g>
	<defs>
		<circle id="SVGID_1_" cx="44" cy="42.429" r="40.243"/>
	</defs>
	<clipPath id="SVGID_2_">
		<use xlink:href="#SVGID_1_"  overflow="visible"/>
	</clipPath>
	<g opacity="0.2" clip-path="url(#SVGID_2_)">
		<polygon fill="#201600" points="71.117,22.73 44.516,13.33 43.606,12.967 43.547,12.987 43.488,12.967 42.579,13.33 15.978,22.73 
			19.986,58.456 20.011,58.47 20.012,58.479 20.153,59.744 43.575,72.671 66.963,59.744 67.108,58.457 67.109,58.456 		"/>
		<polygon fill="#201600" points="70.846,23.001 44.245,13.601 43.336,13.237 43.277,13.258 43.218,13.237 42.308,13.601 
			15.707,23.001 19.715,58.727 19.74,58.74 19.741,58.75 19.883,60.014 43.305,72.942 66.693,60.014 66.838,58.727 66.838,58.727 		
			"/>
		<polygon fill="#201600" points="70.576,23.271 43.975,13.872 43.065,13.508 43.006,13.529 42.947,13.508 42.037,13.872 
			15.437,23.271 19.445,58.997 19.47,59.011 19.471,59.02 19.612,60.285 43.034,73.212 66.422,60.285 66.567,58.998 66.568,58.997 
					"/>
		<polygon fill="#201600" points="70.305,23.542 43.704,14.142 42.795,13.778 42.736,13.799 42.676,13.778 41.767,14.142 
			15.166,23.542 19.174,59.268 19.199,59.282 19.2,59.291 19.342,60.555 42.764,73.483 66.152,60.555 66.297,59.268 66.297,59.268 
					"/>
		<polygon fill="#201600" points="70.035,23.813 43.434,14.413 42.524,14.049 42.465,14.07 42.406,14.049 41.496,14.413 
			14.896,23.813 18.903,59.539 18.928,59.552 18.929,59.561 19.071,60.826 42.493,73.754 65.881,60.826 66.026,59.539 
			66.027,59.539 		"/>
		<polygon fill="#201600" points="69.764,24.083 43.163,14.683 42.254,14.32 42.194,14.34 42.135,14.32 41.226,14.683 
			14.625,24.083 18.633,59.809 18.658,59.823 18.659,59.832 18.801,61.097 42.222,74.024 65.611,61.097 65.756,59.81 65.756,59.809 
					"/>
		<polygon fill="#201600" points="69.493,24.354 42.893,14.954 41.983,14.59 41.924,14.611 41.865,14.59 40.955,14.954 
			14.354,24.354 18.362,60.08 18.387,60.093 18.388,60.103 18.53,61.367 41.952,74.295 65.34,61.367 65.485,60.08 65.485,60.08 		
			"/>
		<polygon fill="#201600" points="69.223,24.624 42.622,15.225 41.712,14.861 41.653,14.882 41.594,14.861 40.685,15.225 
			14.084,24.624 18.092,60.35 18.117,60.364 18.118,60.373 18.259,61.638 41.681,74.565 65.069,61.638 65.214,60.351 65.215,60.35 
					"/>
		<polygon fill="#201600" points="68.952,24.895 42.351,15.495 41.442,15.131 41.383,15.152 41.324,15.131 40.414,15.495 
			13.813,24.895 17.821,60.621 17.846,60.634 17.847,60.644 17.989,61.908 41.411,74.836 64.799,61.908 64.944,60.621 
			64.944,60.621 		"/>
		<polygon fill="#201600" points="68.682,25.165 42.081,15.766 41.171,15.402 41.112,15.423 41.053,15.402 40.143,15.766 
			13.543,25.165 17.551,60.892 17.576,60.905 17.577,60.914 17.718,62.179 41.14,75.106 64.528,62.179 64.673,60.892 64.674,60.892 
					"/>
		<polygon fill="#201600" points="68.411,25.436 41.81,16.036 40.901,15.672 40.842,15.693 40.782,15.672 39.873,16.036 
			13.272,25.436 17.28,61.162 17.305,61.176 17.306,61.185 17.448,62.449 40.87,75.377 64.258,62.449 64.403,61.162 64.403,61.162 
					"/>
		<polygon fill="#201600" points="68.14,25.707 41.54,16.307 40.63,15.943 40.571,15.964 40.512,15.943 39.602,16.307 
			13.002,25.707 17.009,61.433 17.034,61.446 17.035,61.455 17.177,62.72 40.599,75.648 63.987,62.72 64.132,61.433 64.133,61.433 
					"/>
		<polygon fill="#201600" points="67.87,25.977 41.269,16.577 40.36,16.214 40.3,16.234 40.241,16.214 39.332,16.577 12.731,25.977 
			16.739,61.703 16.764,61.717 16.765,61.726 16.907,62.991 40.328,75.918 63.717,62.991 63.862,61.704 63.862,61.703 		"/>
		<polygon fill="#201600" points="67.599,26.248 40.999,16.848 40.089,16.484 40.03,16.505 39.971,16.484 39.061,16.848 
			12.46,26.248 16.468,61.974 16.493,61.987 16.494,61.997 16.636,63.261 40.058,76.189 63.446,63.261 63.591,61.974 63.591,61.974 
					"/>
		<polygon fill="#201600" points="67.329,26.518 40.728,17.119 39.818,16.755 39.759,16.776 39.7,16.755 38.791,17.119 
			12.19,26.518 16.198,62.244 16.223,62.258 16.224,62.267 16.365,63.532 39.787,76.459 63.175,63.532 63.32,62.245 63.321,62.244 
					"/>
		<polygon fill="#201600" points="67.058,26.789 40.457,17.389 39.548,17.025 39.489,17.046 39.43,17.025 38.52,17.389 
			11.919,26.789 15.927,62.515 15.952,62.529 15.953,62.538 16.095,63.802 39.517,76.73 62.905,63.802 63.05,62.515 63.05,62.515 		
			"/>
		<polygon fill="#201600" points="66.788,27.059 40.187,17.66 39.277,17.296 39.218,17.317 39.159,17.296 38.249,17.66 
			11.649,27.059 15.657,62.786 15.681,62.799 15.682,62.808 15.824,64.073 39.246,77 62.634,64.073 62.779,62.786 62.78,62.786 		
			"/>
		<polygon fill="#201600" points="66.517,27.33 39.916,17.93 39.007,17.566 38.948,17.587 38.888,17.566 37.979,17.93 11.378,27.33 
			15.386,63.056 15.411,63.07 15.412,63.079 15.554,64.343 38.976,77.271 62.364,64.343 62.509,63.056 62.509,63.056 		"/>
		<polygon fill="#201600" points="66.246,27.601 39.646,18.201 38.736,17.837 38.677,17.858 38.618,17.837 37.708,18.201 
			11.107,27.601 15.115,63.327 15.14,63.34 15.141,63.349 15.283,64.614 38.705,77.542 62.093,64.614 62.238,63.327 62.238,63.327 
					"/>
		<polygon fill="#201600" points="65.976,27.871 39.375,18.471 38.465,18.108 38.406,18.128 38.347,18.108 37.438,18.471 
			10.837,27.871 14.845,63.597 14.87,63.611 14.871,63.62 15.012,64.885 38.434,77.812 61.822,64.885 61.968,63.598 61.968,63.597 
					"/>
		<polygon fill="#201600" points="65.705,28.142 39.104,18.742 38.195,18.378 38.136,18.399 38.077,18.378 37.167,18.742 
			10.566,28.142 14.574,63.868 14.599,63.881 14.6,63.891 14.742,65.155 38.164,78.083 61.552,65.155 61.697,63.868 61.697,63.868 
					"/>
		<polygon fill="#201600" points="65.435,28.412 38.834,19.013 37.924,18.649 37.865,18.67 37.806,18.649 36.897,19.013 
			10.296,28.412 14.304,64.138 14.329,64.152 14.33,64.161 14.471,65.426 37.893,78.353 61.281,65.426 61.426,64.139 61.427,64.138 
					"/>
		<polygon fill="#201600" points="65.164,28.683 38.563,19.283 37.654,18.919 37.595,18.94 37.536,18.919 36.626,19.283 
			10.025,28.683 14.033,64.409 14.058,64.423 14.059,64.432 14.201,65.696 37.623,78.624 61.011,65.696 61.156,64.409 
			61.156,64.409 		"/>
		<polygon fill="#201600" points="64.894,28.953 38.293,19.554 37.383,19.19 37.324,19.211 37.265,19.19 36.355,19.554 
			9.755,28.953 13.763,64.68 13.787,64.693 13.788,64.702 13.93,65.967 37.352,78.894 60.74,65.967 60.885,64.68 60.886,64.68 		"/>
		<polygon fill="#201600" points="64.623,29.224 38.022,19.824 37.113,19.46 37.054,19.481 36.994,19.46 36.085,19.824 
			9.484,29.224 13.492,64.95 13.517,64.964 13.518,64.973 13.66,66.237 37.082,79.165 60.47,66.237 60.615,64.951 60.615,64.95 		
			"/>
		<polygon fill="#201600" points="64.352,29.495 37.752,20.095 36.842,19.731 36.783,19.752 36.724,19.731 35.814,20.095 
			9.213,29.495 13.221,65.221 13.246,65.234 13.247,65.244 13.389,66.508 36.811,79.436 60.199,66.508 60.344,65.221 60.344,65.221 
					"/>
		<polygon fill="#201600" points="64.082,29.765 37.481,20.365 36.571,20.002 36.512,20.022 36.453,20.002 35.544,20.365 
			8.943,29.765 12.951,65.491 12.976,65.505 12.977,65.514 13.118,66.779 36.54,79.706 59.928,66.779 60.073,65.492 60.074,65.491 
					"/>
		<polygon fill="#201600" points="63.811,30.036 37.21,20.636 36.301,20.272 36.242,20.293 36.183,20.272 35.273,20.636 
			8.672,30.036 12.68,65.762 12.705,65.775 12.706,65.785 12.848,67.049 36.27,79.977 59.658,67.049 59.803,65.762 59.803,65.762 		
			"/>
		<polygon fill="#201600" points="63.541,30.306 36.94,20.907 36.03,20.543 35.971,20.564 35.912,20.543 35.003,20.907 
			8.402,30.306 12.41,66.032 12.435,66.046 12.436,66.055 12.577,67.32 35.999,80.247 59.387,67.32 59.532,66.033 59.533,66.032 		
			"/>
		<polygon fill="#201600" points="63.27,30.577 36.669,21.177 35.76,20.813 35.701,20.834 35.642,20.813 34.732,21.177 
			8.131,30.577 12.139,66.303 12.164,66.317 12.165,66.326 12.307,67.59 35.729,80.518 59.117,67.59 59.262,66.303 59.262,66.303 		
			"/>
		<polygon fill="#201600" points="63,30.847 36.399,21.448 35.489,21.084 35.43,21.105 35.371,21.084 34.461,21.448 7.861,30.847 
			11.869,66.574 11.893,66.587 11.894,66.596 12.036,67.861 35.458,80.789 58.846,67.861 58.991,66.574 58.992,66.574 		"/>
		<polygon fill="#201600" points="62.729,31.118 36.128,21.718 35.219,21.354 35.159,21.375 35.1,21.354 34.191,21.718 7.59,31.118 
			11.598,66.844 11.623,66.858 11.624,66.867 11.766,68.132 35.187,81.059 58.576,68.132 58.721,66.845 58.721,66.844 		"/>
		<polygon fill="#201600" points="62.458,31.389 35.858,21.989 34.948,21.625 34.889,21.646 34.83,21.625 33.92,21.989 
			7.319,31.389 11.327,67.115 11.352,67.128 11.353,67.138 11.495,68.402 34.917,81.33 58.305,68.402 58.45,67.115 58.45,67.115 		
			"/>
		<polygon fill="#201600" points="62.188,31.659 35.587,22.259 34.677,21.896 34.618,21.917 34.559,21.896 33.65,22.259 
			7.049,31.659 11.057,67.385 11.082,67.399 11.083,67.408 11.224,68.673 34.646,81.6 58.034,68.673 58.179,67.386 58.18,67.385 		
			"/>
		<polygon fill="#201600" points="61.917,31.93 35.316,22.53 34.407,22.166 34.348,22.187 34.289,22.166 33.379,22.53 6.778,31.93 
			10.786,67.656 10.811,67.669 10.812,67.679 10.954,68.943 34.376,81.871 57.764,68.943 57.909,67.656 57.909,67.656 		"/>
		<polygon fill="#201600" points="61.647,32.2 35.046,22.801 34.136,22.437 34.077,22.458 34.018,22.437 33.108,22.801 6.508,32.2 
			10.516,67.927 10.541,67.94 10.542,67.949 10.683,69.214 34.105,82.141 57.493,69.214 57.638,67.927 57.639,67.927 		"/>
		<polygon fill="#201600" points="61.376,32.471 34.775,23.071 33.866,22.707 33.807,22.728 33.747,22.707 32.838,23.071 
			6.237,32.471 10.245,68.197 10.27,68.211 10.271,68.22 10.413,69.484 33.835,82.412 57.223,69.484 57.368,68.197 57.368,68.197 		
			"/>
		<polygon fill="#201600" points="61.105,32.742 34.505,23.342 33.595,22.978 33.536,22.999 33.477,22.978 32.567,23.342 
			5.967,32.742 9.974,68.468 9.999,68.481 10,68.49 10.142,69.755 33.564,82.683 56.952,69.755 57.097,68.468 57.098,68.468 		"/>
		<polygon fill="#201600" points="60.835,33.012 34.234,23.612 33.325,23.249 33.265,23.269 33.206,23.249 32.297,23.612 
			5.696,33.012 9.704,68.738 9.729,68.752 9.73,68.761 9.872,70.026 33.293,82.953 56.682,70.026 56.827,68.739 56.827,68.738 		"/>
		<polygon fill="#201600" points="60.564,33.283 33.964,23.883 33.054,23.519 32.995,23.54 32.936,23.519 32.026,23.883 
			5.425,33.283 9.433,69.009 9.458,69.022 9.459,69.032 9.601,70.296 33.023,83.224 56.411,70.296 56.556,69.009 56.556,69.009 		
			"/>
		<polygon fill="#201600" points="60.294,33.553 33.693,24.154 32.783,23.79 32.724,23.811 32.665,23.79 31.756,24.154 
			5.155,33.553 9.163,69.279 9.188,69.293 9.189,69.302 9.33,70.567 32.752,83.494 56.14,70.567 56.285,69.28 56.286,69.279 		"/>
		<polygon fill="#201600" points="60.023,33.824 33.422,24.424 32.513,24.06 32.454,24.081 32.395,24.06 31.485,24.424 
			4.884,33.824 8.892,69.55 8.917,69.563 8.918,69.573 9.06,70.837 32.482,83.765 55.87,70.837 56.015,69.55 56.015,69.55 		"/>
		<polygon fill="#201600" points="59.753,34.094 33.152,24.695 32.242,24.331 32.183,24.352 32.124,24.331 31.214,24.695 
			4.614,34.094 8.622,69.821 8.647,69.834 8.647,69.843 8.789,71.108 32.211,84.035 55.599,71.108 55.744,69.821 55.745,69.821 		
			"/>
		<polygon fill="#201600" points="59.482,34.365 32.881,24.965 31.972,24.601 31.913,24.622 31.853,24.601 30.944,24.965 
			4.343,34.365 8.351,70.091 8.376,70.105 8.377,70.114 8.519,71.378 31.941,84.306 55.329,71.378 55.474,70.091 55.474,70.091 		
			"/>
		<polygon fill="#201600" points="59.211,34.636 32.611,25.236 31.701,24.872 31.642,24.893 31.583,24.872 30.673,25.236 
			4.073,34.636 8.08,70.362 8.105,70.375 8.106,70.384 8.248,71.649 31.67,84.577 55.058,71.649 55.203,70.362 55.204,70.362 		"/>
		<polygon fill="#201600" points="58.941,34.906 32.34,25.506 31.431,25.143 31.371,25.163 31.312,25.143 30.403,25.506 
			3.802,34.906 7.81,70.632 7.835,70.646 7.836,70.655 7.978,71.92 31.399,84.847 54.788,71.92 54.933,70.633 54.933,70.632 		"/>
		<polygon fill="#201600" points="58.67,35.177 32.07,25.777 31.16,25.413 31.101,25.434 31.042,25.413 30.132,25.777 3.531,35.177 
			7.539,70.903 7.564,70.916 7.565,70.926 7.707,72.19 31.129,85.118 54.517,72.19 54.662,70.903 54.662,70.903 		"/>
		<polygon fill="#201600" points="58.4,35.447 31.799,26.048 30.889,25.684 30.83,25.705 30.771,25.684 29.862,26.048 3.261,35.447 
			7.269,71.173 7.294,71.187 7.295,71.196 7.436,72.461 30.858,85.388 54.246,72.461 54.391,71.174 54.392,71.173 		"/>
		<polygon fill="#201600" points="58.129,35.718 31.528,26.318 30.619,25.954 30.56,25.975 30.501,25.954 29.591,26.318 
			2.99,35.718 6.998,71.444 7.023,71.458 7.024,71.467 7.166,72.731 30.588,85.659 53.976,72.731 54.121,71.444 54.121,71.444 		"/>
		<polygon fill="#201600" points="57.859,35.988 31.258,26.589 30.348,26.225 30.289,26.246 30.23,26.225 29.32,26.589 2.72,35.988 
			6.728,71.715 6.752,71.728 6.753,71.737 6.895,73.002 30.317,85.929 53.705,73.002 53.85,71.715 53.851,71.715 		"/>
		<polygon fill="#201600" points="57.588,36.259 30.987,26.859 30.078,26.495 30.019,26.516 29.959,26.495 29.05,26.859 
			2.449,36.259 6.457,71.985 6.482,71.999 6.483,72.008 6.625,73.272 30.047,86.2 53.435,73.272 53.58,71.986 53.58,71.985 		"/>
		<polygon fill="#201600" points="57.317,36.53 30.717,27.13 29.807,26.766 29.748,26.787 29.689,26.766 28.779,27.13 2.178,36.53 
			6.186,72.256 6.211,72.269 6.212,72.279 6.354,73.543 29.776,86.471 53.164,73.543 53.309,72.256 53.309,72.256 		"/>
		<polygon fill="#201600" points="57.047,36.8 30.446,27.4 29.536,27.037 29.477,27.057 29.418,27.037 28.509,27.4 1.908,36.8 
			5.916,72.526 5.941,72.54 5.942,72.549 6.083,73.814 29.505,86.741 52.893,73.814 53.039,72.527 53.039,72.526 		"/>
		<polygon fill="#201600" points="56.776,37.071 30.175,27.671 29.266,27.307 29.207,27.328 29.148,27.307 28.238,27.671 
			1.637,37.071 5.645,72.797 5.67,72.81 5.671,72.82 5.813,74.084 29.235,87.012 52.623,74.084 52.768,72.797 52.768,72.797 		"/>
		<polygon fill="#201600" points="56.506,37.341 29.905,27.942 28.995,27.578 28.936,27.599 28.877,27.578 27.968,27.942 
			1.367,37.341 5.375,73.067 5.4,73.081 5.401,73.09 5.542,74.355 28.964,87.282 52.352,74.355 52.497,73.068 52.498,73.067 		"/>
		<polygon fill="#201600" points="56.235,37.612 29.634,28.212 28.725,27.848 28.666,27.869 28.607,27.848 27.697,28.212 
			1.096,37.612 5.104,73.338 5.129,73.352 5.13,73.361 5.272,74.625 28.694,87.553 52.082,74.625 52.227,73.338 52.227,73.338 		"/>
		<polygon fill="#201600" points="55.965,37.882 29.364,28.483 28.454,28.119 28.395,28.14 28.336,28.119 27.426,28.483 
			0.826,37.882 4.834,73.609 4.858,73.622 4.859,73.631 5.001,74.896 28.423,87.823 51.811,74.896 51.956,73.609 51.957,73.609 		
			"/>
		<polygon fill="#201600" points="55.694,38.153 29.093,28.753 28.184,28.389 28.125,28.41 28.065,28.389 27.156,28.753 
			0.555,38.153 4.563,73.879 4.588,73.893 4.589,73.902 4.731,75.166 28.153,88.094 51.541,75.166 51.686,73.88 51.686,73.879 		"/>
		<polygon fill="#201600" points="55.423,38.424 28.823,29.024 27.913,28.66 27.854,28.681 27.795,28.66 26.885,29.024 
			0.284,38.424 4.292,74.15 4.317,74.163 4.318,74.173 4.46,75.437 27.882,88.365 51.27,75.437 51.415,74.15 51.415,74.15 		"/>
		<polygon fill="#201600" points="55.153,38.694 28.552,29.294 27.642,28.931 27.583,28.951 27.524,28.931 26.615,29.294 
			0.014,38.694 4.022,74.42 4.047,74.434 4.048,74.443 4.189,75.708 27.611,88.635 50.999,75.708 51.144,74.421 51.145,74.42 		"/>
		<polygon fill="#201600" points="54.882,38.965 28.281,29.565 27.372,29.201 27.313,29.222 27.254,29.201 26.344,29.565 
			-0.257,38.965 3.751,74.691 3.776,74.704 3.777,74.714 3.919,75.978 27.341,88.906 50.729,75.978 50.874,74.691 50.874,74.691 		
			"/>
		<polygon fill="#201600" points="54.612,39.235 28.011,29.836 27.101,29.472 27.042,29.493 26.983,29.472 26.074,29.836 
			-0.527,39.235 3.481,74.961 3.506,74.975 3.507,74.984 3.648,76.249 27.07,89.176 50.458,76.249 50.603,74.962 50.604,74.961 		
			"/>
		<polygon fill="#201600" points="54.341,39.506 27.74,30.106 26.831,29.742 26.772,29.763 26.713,29.742 25.803,30.106 
			-0.798,39.506 3.21,75.232 3.235,75.246 3.236,75.255 3.378,76.519 26.8,89.447 50.188,76.519 50.333,75.232 50.333,75.232 		"/>
		<polygon fill="#201600" points="54.071,39.777 27.47,30.377 26.56,30.013 26.501,30.034 26.442,30.013 25.532,30.377 
			-1.068,39.777 2.94,75.503 2.964,75.516 2.965,75.525 3.107,76.79 26.529,89.718 49.917,76.79 50.062,75.503 50.063,75.503 		"/>
		<polygon fill="#201600" points="53.8,40.047 27.199,30.647 26.29,30.284 26.23,30.304 26.171,30.284 25.262,30.647 -1.339,40.047 
			2.669,75.773 2.694,75.787 2.695,75.796 2.837,77.061 26.258,89.988 49.647,77.061 49.792,75.774 49.792,75.773 		"/>
		<polygon fill="#201600" points="53.529,40.318 26.929,30.918 26.019,30.554 25.96,30.575 25.901,30.554 24.991,30.918 
			-1.61,40.318 2.398,76.044 2.423,76.057 2.424,76.067 2.566,77.331 25.988,90.259 49.376,77.331 49.521,76.044 49.521,76.044 		
			"/>
		<polygon fill="#201600" points="53.259,40.588 26.658,31.188 25.748,30.825 25.689,30.846 25.63,30.825 24.721,31.188 
			-1.88,40.588 2.128,76.314 2.153,76.328 2.154,76.337 2.295,77.602 25.717,90.529 49.105,77.602 49.25,76.315 49.251,76.314 		"/>
		<polygon fill="#201600" points="52.988,40.859 26.387,31.459 25.478,31.095 25.419,31.116 25.36,31.095 24.45,31.459 
			-2.151,40.859 1.857,76.585 1.882,76.598 1.883,76.608 2.025,77.872 25.447,90.8 48.835,77.872 48.98,76.585 48.98,76.585 		"/>
		<polygon fill="#201600" points="52.718,41.129 26.117,31.73 25.207,31.366 25.148,31.387 25.089,31.366 24.179,31.73 
			-2.421,41.129 1.587,76.856 1.612,76.869 1.613,76.878 1.754,78.143 25.176,91.07 48.564,78.143 48.709,76.856 48.71,76.856 		"/>
		<polygon fill="#201600" points="52.447,41.4 25.846,32 24.937,31.636 24.878,31.657 24.818,31.636 23.909,32 -2.692,41.4 
			1.316,77.126 1.341,77.14 1.342,77.149 1.484,78.413 24.906,91.341 48.294,78.413 48.439,77.126 48.439,77.126 		"/>
		<polygon fill="#201600" points="52.176,41.671 25.576,32.271 24.666,31.907 24.607,31.928 24.548,31.907 23.638,32.271 
			-2.962,41.671 1.045,77.397 1.07,77.41 1.071,77.419 1.213,78.684 24.635,91.612 48.023,78.684 48.168,77.397 48.169,77.397 		"/>
		<polygon fill="#201600" points="51.906,41.941 25.305,32.541 24.396,32.178 24.336,32.198 24.277,32.178 23.368,32.541 
			-3.233,41.941 0.775,77.667 0.8,77.681 0.801,77.69 0.943,78.955 24.364,91.882 47.753,78.955 47.898,77.668 47.898,77.667 		"/>
		<polygon fill="#201600" points="51.635,42.212 25.035,32.812 24.125,32.448 24.066,32.469 24.007,32.448 23.097,32.812 
			-3.504,42.212 0.504,77.938 0.529,77.951 0.53,77.961 0.672,79.225 24.094,92.153 47.482,79.225 47.627,77.938 47.627,77.938 		
			"/>
		<polygon fill="#201600" points="51.365,42.482 24.764,33.083 23.854,32.719 23.795,32.74 23.736,32.719 22.827,33.083 
			-3.774,42.482 0.234,78.208 0.259,78.222 0.26,78.231 0.401,79.496 23.823,92.423 47.211,79.496 47.356,78.209 47.357,78.208 		
			"/>
		<polygon fill="#201600" points="51.094,42.753 24.493,33.353 23.584,32.989 23.525,33.01 23.466,32.989 22.556,33.353 
			-4.045,42.753 -0.037,78.479 -0.012,78.492 -0.011,78.502 0.131,79.766 23.553,92.694 46.941,79.766 47.086,78.479 47.086,78.479 
					"/>
		<polygon fill="#201600" points="50.824,43.023 24.223,33.624 23.313,33.26 23.254,33.281 23.195,33.26 22.285,33.624 
			-4.315,43.023 -0.307,78.75 -0.282,78.763 -0.282,78.772 -0.14,80.037 23.282,92.964 46.67,80.037 46.815,78.75 46.816,78.75 		
			"/>
		<polygon fill="#201600" points="50.553,43.294 23.952,33.894 23.043,33.53 22.984,33.551 22.924,33.53 22.015,33.894 
			-4.586,43.294 -0.578,79.02 -0.553,79.034 -0.552,79.043 -0.41,80.307 23.012,93.235 46.4,80.307 46.545,79.02 46.545,79.02 		"/>
		<polygon fill="#201600" points="50.282,43.565 23.682,34.165 22.772,33.801 22.713,33.822 22.654,33.801 21.744,34.165 
			-4.857,43.565 -0.849,79.291 -0.824,79.304 -0.823,79.313 -0.681,80.578 22.741,93.506 46.129,80.578 46.274,79.291 
			46.275,79.291 		"/>
		<polygon fill="#201600" points="50.012,43.835 23.411,34.435 22.501,34.072 22.442,34.092 22.383,34.072 21.474,34.435 
			-5.127,43.835 -1.119,79.561 -1.094,79.575 -1.093,79.584 -0.951,80.849 22.47,93.776 45.859,80.849 46.004,79.562 46.004,79.561 
					"/>
		<polygon fill="#201600" points="49.741,44.106 23.14,34.706 22.231,34.342 22.172,34.363 22.113,34.342 21.203,34.706 
			-5.398,44.106 -1.39,79.832 -1.365,79.845 -1.364,79.855 -1.222,81.119 22.2,94.047 45.588,81.119 45.733,79.832 45.733,79.832 		
			"/>
		<polygon fill="#201600" points="49.471,44.376 22.87,34.977 21.96,34.613 21.901,34.634 21.842,34.613 20.933,34.977 
			-5.668,44.376 -1.66,80.102 -1.635,80.116 -1.634,80.125 -1.493,81.39 21.929,94.317 45.317,81.39 45.462,80.103 45.463,80.102 		
			"/>
		<polygon fill="#201600" points="49.2,44.647 22.599,35.247 21.69,34.883 21.631,34.904 21.572,34.883 20.662,35.247 
			-5.939,44.647 -1.931,80.373 -1.906,80.387 -1.905,80.396 -1.763,81.66 21.659,94.588 45.047,81.66 45.192,80.373 45.192,80.373 
					"/>
		<polygon fill="#201600" points="48.93,44.917 22.329,35.518 21.419,35.154 21.36,35.175 21.301,35.154 20.391,35.518 
			-6.209,44.917 -2.201,80.644 -2.177,80.657 -2.176,80.666 -2.034,81.931 21.388,94.858 44.776,81.931 44.921,80.644 
			44.922,80.644 		"/>
		<polygon fill="#201600" points="48.659,45.188 22.058,35.788 21.149,35.424 21.09,35.445 21.03,35.424 20.121,35.788 
			-6.48,45.188 -2.472,80.914 -2.447,80.928 -2.446,80.937 -2.304,82.201 21.118,95.129 44.506,82.201 44.651,80.915 44.651,80.914 
					"/>
		<polygon fill="#201600" points="48.388,45.459 21.788,36.059 20.878,35.695 20.819,35.716 20.76,35.695 19.85,36.059 
			-6.751,45.459 -2.743,81.185 -2.718,81.198 -2.717,81.208 -2.575,82.472 20.847,95.4 44.235,82.472 44.38,81.185 44.38,81.185 		
			"/>
		<polygon fill="#201600" points="48.118,45.729 21.517,36.329 20.607,35.966 20.548,35.986 20.489,35.966 19.58,36.329 
			-7.021,45.729 -3.013,81.455 -2.988,81.469 -2.987,81.478 -2.846,82.743 20.576,95.67 43.964,82.743 44.11,81.456 44.11,81.455 		
			"/>
		<polygon fill="#201600" points="47.847,46 21.246,36.6 20.337,36.236 20.278,36.257 20.219,36.236 19.309,36.6 -7.292,46 
			-3.284,81.726 -3.259,81.739 -3.258,81.749 -3.116,83.013 20.306,95.941 43.694,83.013 43.839,81.726 43.839,81.726 		"/>
		<polygon fill="#201600" points="47.577,46.27 20.976,36.871 20.066,36.507 20.007,36.528 19.948,36.507 19.039,36.871 
			-7.562,46.27 -3.554,81.996 -3.529,82.01 -3.528,82.019 -3.387,83.284 20.035,96.211 43.423,83.284 43.568,81.997 43.569,81.996 
					"/>
		<polygon fill="#201600" points="47.306,46.541 20.705,37.141 19.796,36.777 19.737,36.798 19.678,36.777 18.768,37.141 
			-7.833,46.541 -3.825,82.267 -3.8,82.281 -3.799,82.29 -3.657,83.554 19.765,96.482 43.153,83.554 43.298,82.267 43.298,82.267 		
			"/>
		<polygon fill="#201600" points="47.036,46.811 20.435,37.412 19.525,37.048 19.466,37.069 19.407,37.048 18.497,37.412 
			-8.103,46.811 -4.095,82.538 -4.071,82.551 -4.07,82.56 -3.928,83.825 19.494,96.753 42.882,83.825 43.027,82.538 43.028,82.538 
					"/>
		<polygon fill="#201600" points="46.765,47.082 20.164,37.682 19.255,37.318 19.195,37.339 19.136,37.318 18.227,37.682 
			-8.374,47.082 -4.366,82.808 -4.341,82.822 -4.34,82.831 -4.198,84.095 19.223,97.023 42.612,84.095 42.757,82.809 42.757,82.808 
					"/>
		<polygon fill="#201600" points="46.494,47.353 19.894,37.953 18.984,37.589 18.925,37.61 18.866,37.589 17.956,37.953 
			-8.645,47.353 -4.637,83.079 -4.612,83.092 -4.611,83.102 -4.469,84.366 18.953,97.294 42.341,84.366 42.486,83.079 
			42.486,83.079 		"/>
		<polygon fill="#201600" points="46.224,47.623 19.623,38.223 18.713,37.86 18.654,37.88 18.595,37.86 17.686,38.223 
			-8.915,47.623 -4.907,83.349 -4.882,83.363 -4.881,83.372 -4.74,84.637 18.682,97.564 42.07,84.637 42.215,83.35 42.216,83.349 		
			"/>
		<polygon fill="#201600" points="45.953,47.894 19.352,38.494 18.443,38.13 18.384,38.151 18.325,38.13 17.415,38.494 
			-9.186,47.894 -5.178,83.62 -5.153,83.633 -5.152,83.643 -5.01,84.907 18.412,97.835 41.8,84.907 41.945,83.62 41.945,83.62 		"/>
		<polygon fill="#201600" points="45.683,48.164 19.082,38.765 18.172,38.401 18.113,38.422 18.054,38.401 17.145,38.765 
			-9.456,48.164 -5.448,83.89 -5.423,83.904 -5.422,83.913 -5.281,85.178 18.141,98.105 41.529,85.178 41.674,83.891 41.675,83.89 
					"/>
		<polygon fill="#201600" points="45.412,48.435 18.811,39.035 17.902,38.671 17.843,38.692 17.784,38.671 16.874,39.035 
			-9.727,48.435 -5.719,84.161 -5.694,84.175 -5.693,84.184 -5.551,85.448 17.871,98.376 41.259,85.448 41.404,84.161 
			41.404,84.161 		"/>
		<polygon fill="#201600" points="45.141,48.706 18.541,39.306 17.631,38.942 17.572,38.963 17.513,38.942 16.603,39.306 
			-9.997,48.706 -5.99,84.432 -5.965,84.445 -5.964,84.454 -5.822,85.719 17.6,98.647 40.988,85.719 41.133,84.432 41.134,84.432 		
			"/>
		<polygon fill="#201600" points="44.871,48.976 18.27,39.576 17.361,39.213 17.301,39.233 17.242,39.213 16.333,39.576 
			-10.268,48.976 -6.26,84.702 -6.235,84.716 -6.234,84.725 -6.092,85.99 17.329,98.917 40.718,85.99 40.863,84.703 40.863,84.702 
					"/>
		<polygon fill="#201600" points="44.6,49.247 18,39.847 17.09,39.483 17.031,39.504 16.972,39.483 16.062,39.847 -10.539,49.247 
			-6.531,84.973 -6.506,84.986 -6.505,84.996 -6.363,86.26 17.059,99.188 40.447,86.26 40.592,84.973 40.592,84.973 		"/>
		<polygon fill="#201600" points="44.33,49.517 17.729,40.118 16.819,39.754 16.76,39.775 16.701,39.754 15.792,40.118 
			-10.809,49.517 -6.801,85.243 -6.776,85.257 -6.775,85.266 -6.634,86.531 16.788,99.458 40.176,86.531 40.321,85.244 
			40.322,85.243 		"/>
		<polygon fill="#201600" points="44.059,49.788 17.458,40.388 16.549,40.024 16.49,40.045 16.431,40.024 15.521,40.388 
			-11.08,49.788 -7.072,85.514 -7.047,85.527 -7.046,85.537 -6.904,86.801 16.518,99.729 39.906,86.801 40.051,85.514 
			40.051,85.514 		"/>
		<polygon fill="#201600" points="43.789,50.058 17.188,40.659 16.278,40.295 16.219,40.316 16.16,40.295 15.25,40.659 
			-11.35,50.058 -7.342,85.785 -7.317,85.798 -7.316,85.807 -7.175,87.072 16.247,99.999 39.635,87.072 39.78,85.785 39.781,85.785 
					"/>
		<polygon fill="#201600" points="43.518,50.329 16.917,40.929 16.008,40.565 15.949,40.586 15.889,40.565 14.98,40.929 
			-11.621,50.329 -7.613,86.055 -7.588,86.069 -7.587,86.078 -7.445,87.342 15.977,100.27 39.365,87.342 39.51,86.055 39.51,86.055 
					"/>
		<polygon fill="#201600" points="43.247,50.6 16.647,41.2 15.737,40.836 15.678,40.857 15.619,40.836 14.709,41.2 -11.891,50.6 
			-7.884,86.326 -7.859,86.339 -7.858,86.348 -7.716,87.613 15.706,100.541 39.094,87.613 39.239,86.326 39.24,86.326 		"/>
		<polygon fill="#201600" points="42.977,50.87 16.376,41.47 15.467,41.107 15.407,41.127 15.348,41.107 14.439,41.47 
			-12.162,50.87 -8.154,86.596 -8.129,86.61 -8.128,86.619 -7.986,87.884 15.435,100.811 38.824,87.884 38.969,86.597 
			38.969,86.596 		"/>
		<polygon fill="#201600" points="42.706,51.141 16.106,41.741 15.196,41.377 15.137,41.398 15.078,41.377 14.168,41.741 
			-12.433,51.141 -8.425,86.867 -8.4,86.88 -8.399,86.89 -8.257,88.154 15.165,101.082 38.553,88.154 38.698,86.867 38.698,86.867 
					"/>
		<polygon fill="#201600" points="42.436,51.411 15.835,42.012 14.925,41.648 14.866,41.669 14.807,41.648 13.898,42.012 
			-12.703,51.411 -8.695,87.137 -8.67,87.151 -8.669,87.16 -8.528,88.425 14.894,101.352 38.282,88.425 38.427,87.138 
			38.428,87.137 		"/>
		<polygon fill="#201600" points="42.165,51.682 15.564,42.282 14.655,41.918 14.596,41.939 14.537,41.918 13.627,42.282 
			-12.974,51.682 -8.966,87.408 -8.941,87.422 -8.94,87.431 -8.798,88.695 14.624,101.623 38.012,88.695 38.157,87.408 
			38.157,87.408 		"/>
		<polygon fill="#201600" points="41.895,51.952 15.294,42.553 14.384,42.189 14.325,42.21 14.266,42.189 13.356,42.553 
			-13.244,51.952 -9.236,87.679 -9.211,87.692 -9.211,87.701 -9.069,88.966 14.353,101.893 37.741,88.966 37.886,87.679 
			37.887,87.679 		"/>
		<polygon fill="#201600" points="41.624,52.223 15.023,42.823 14.114,42.459 14.055,42.48 13.995,42.459 13.086,42.823 
			-13.515,52.223 -9.507,87.949 -9.482,87.963 -9.481,87.972 -9.339,89.236 14.083,102.164 37.471,89.236 37.616,87.95 
			37.616,87.949 		"/>
		<polygon fill="#201600" points="41.353,52.494 14.753,43.094 13.843,42.73 13.784,42.751 13.725,42.73 12.815,43.094 
			-13.786,52.494 -9.778,88.22 -9.753,88.233 -9.752,88.242 -9.61,89.507 13.812,102.435 37.2,89.507 37.345,88.22 37.345,88.22 		
			"/>
		<polygon fill="#201600" points="41.083,52.764 14.482,43.364 13.572,43.001 13.513,43.021 13.454,43.001 12.545,43.364 
			-14.056,52.764 -10.048,88.49 -10.023,88.504 -10.022,88.513 -9.881,89.778 13.541,102.705 36.93,89.778 37.075,88.491 
			37.075,88.49 		"/>
		<polygon fill="#201600" points="40.812,53.035 14.211,43.635 13.302,43.271 13.243,43.292 13.184,43.271 12.274,43.635 
			-14.327,53.035 -10.319,88.761 -10.294,88.774 -10.293,88.784 -10.151,90.048 13.271,102.976 36.659,90.048 36.804,88.761 
			36.804,88.761 		"/>
		<polygon fill="#201600" points="40.542,53.305 13.941,43.906 13.031,43.542 12.972,43.563 12.913,43.542 12.004,43.906 
			-14.597,53.305 -10.589,89.031 -10.564,89.045 -10.563,89.054 -10.422,90.319 13,103.246 36.388,90.319 36.533,89.032 
			36.534,89.031 		"/>
		<polygon fill="#201600" points="40.271,53.576 13.67,44.176 12.761,43.812 12.702,43.833 12.643,43.812 11.733,44.176 
			-14.868,53.576 -10.86,89.302 -10.835,89.316 -10.834,89.325 -10.692,90.589 12.73,103.517 36.118,90.589 36.263,89.302 
			36.263,89.302 		"/>
		<polygon fill="#201600" points="40.001,53.846 13.4,44.447 12.49,44.083 12.431,44.104 12.372,44.083 11.462,44.447 
			-15.138,53.846 -11.13,89.573 -11.106,89.586 -11.105,89.595 -10.963,90.86 12.459,103.787 35.847,90.86 35.992,89.573 
			35.993,89.573 		"/>
		<polygon fill="#201600" points="39.73,54.117 13.129,44.717 12.22,44.353 12.161,44.374 12.101,44.353 11.192,44.717 
			-15.409,54.117 -11.401,89.843 -11.376,89.857 -11.375,89.866 -11.233,91.13 12.189,104.058 35.577,91.13 35.722,89.844 
			35.722,89.843 		"/>
		<polygon fill="#201600" points="39.459,54.388 12.859,44.988 11.949,44.624 11.89,44.645 11.831,44.624 10.921,44.988 
			-15.68,54.388 -11.672,90.114 -11.647,90.127 -11.646,90.137 -11.504,91.401 11.918,104.329 35.306,91.401 35.451,90.114 
			35.451,90.114 		"/>
		<polygon fill="#201600" points="39.189,54.658 12.588,45.258 11.678,44.895 11.619,44.915 11.56,44.895 10.651,45.258 
			-15.95,54.658 -11.942,90.384 -11.917,90.398 -11.916,90.407 -11.775,91.672 11.647,104.599 35.035,91.672 35.181,90.385 
			35.181,90.384 		"/>
		<polygon fill="#201600" points="38.918,54.929 12.317,45.529 11.408,45.165 11.349,45.186 11.29,45.165 10.38,45.529 
			-16.221,54.929 -12.213,90.655 -12.188,90.668 -12.187,90.678 -12.045,91.942 11.377,104.87 34.765,91.942 34.91,90.655 
			34.91,90.655 		"/>
		<polygon fill="#201600" points="38.648,55.199 12.047,45.8 11.137,45.436 11.078,45.457 11.019,45.436 10.11,45.8 -16.491,55.199 
			-12.483,90.925 -12.458,90.939 -12.457,90.948 -12.316,92.213 11.106,105.14 34.494,92.213 34.639,90.926 34.64,90.925 		"/>
		<polygon fill="#201600" points="38.377,55.47 11.776,46.07 10.867,45.706 10.808,45.727 10.749,45.706 9.839,46.07 -16.762,55.47 
			-12.754,91.196 -12.729,91.21 -12.728,91.219 -12.586,92.483 10.836,105.411 34.224,92.483 34.369,91.196 34.369,91.196 		"/>
		<polygon fill="#201600" points="38.107,55.74 11.506,46.341 10.596,45.977 10.537,45.998 10.478,45.977 9.568,46.341 
			-17.032,55.74 -13.024,91.467 -13,91.48 -12.999,91.489 -12.857,92.754 10.565,105.682 33.953,92.754 34.098,91.467 
			34.099,91.467 		"/>
		<polygon fill="#201600" points="37.836,56.011 11.235,46.611 10.326,46.247 10.266,46.268 10.207,46.247 9.298,46.611 
			-17.303,56.011 -13.295,91.737 -13.27,91.751 -13.269,91.76 -13.127,93.025 10.294,105.952 33.683,93.025 33.828,91.738 
			33.828,91.737 		"/>
		<polygon fill="#201600" points="37.565,56.282 10.965,46.882 10.055,46.518 9.996,46.539 9.937,46.518 9.027,46.882 
			-17.574,56.282 -13.566,92.008 -13.541,92.021 -13.54,92.031 -13.398,93.295 10.024,106.223 33.412,93.295 33.557,92.008 
			33.557,92.008 		"/>
		<polygon fill="#201600" points="37.295,56.552 10.694,47.152 9.784,46.789 9.725,46.81 9.666,46.789 8.757,47.152 -17.844,56.552 
			-13.836,92.278 -13.811,92.292 -13.81,92.301 -13.669,93.566 9.753,106.493 33.141,93.566 33.286,92.279 33.287,92.278 		"/>
		<polygon fill="#201600" points="37.024,56.823 10.423,47.423 9.514,47.059 9.455,47.08 9.396,47.059 8.486,47.423 -18.115,56.823 
			-14.107,92.549 -14.082,92.562 -14.081,92.572 -13.939,93.836 9.483,106.764 32.871,93.836 33.016,92.549 33.016,92.549 		"/>
		<polygon fill="#201600" points="36.754,57.093 10.153,47.694 9.243,47.33 9.184,47.351 9.125,47.33 8.215,47.694 -18.385,57.093 
			-14.377,92.819 -14.352,92.833 -14.351,92.842 -14.21,94.107 9.212,107.034 32.6,94.107 32.745,92.82 32.746,92.819 		"/>
		<polygon fill="#201600" points="36.483,57.364 9.882,47.964 8.973,47.6 8.914,47.621 8.854,47.6 7.945,47.964 -18.656,57.364 
			-14.648,93.09 -14.623,93.104 -14.622,93.113 -14.48,94.377 8.942,107.305 32.33,94.377 32.475,93.09 32.475,93.09 		"/>
		<polygon fill="#201600" points="36.212,57.635 9.612,48.235 8.702,47.871 8.643,47.892 8.584,47.871 7.674,48.235 -18.926,57.635 
			-14.919,93.361 -14.894,93.374 -14.893,93.383 -14.751,94.648 8.671,107.576 32.059,94.648 32.204,93.361 32.205,93.361 		"/>
		<polygon fill="#201600" points="35.942,57.905 9.341,48.505 8.432,48.142 8.372,48.162 8.313,48.142 7.404,48.505 -19.197,57.905 
			-15.189,93.631 -15.164,93.645 -15.163,93.654 -15.021,94.919 8.4,107.846 31.789,94.919 31.934,93.632 31.934,93.631 		"/>
		<polygon fill="#201600" points="35.671,58.176 9.071,48.776 8.161,48.412 8.102,48.433 8.043,48.412 7.133,48.776 -19.468,58.176 
			-15.46,93.902 -15.435,93.915 -15.434,93.925 -15.292,95.189 8.13,108.117 31.518,95.189 31.663,93.902 31.663,93.902 		"/>
		<polygon fill="#201600" points="35.401,58.446 8.8,49.047 7.89,48.683 7.831,48.704 7.772,48.683 6.863,49.047 -19.738,58.446 
			-15.73,94.172 -15.705,94.186 -15.704,94.195 -15.563,95.46 7.859,108.387 31.247,95.46 31.392,94.173 31.393,94.172 		"/>
		<polygon fill="#201600" points="35.13,58.717 8.529,49.317 7.62,48.953 7.561,48.974 7.502,48.953 6.592,49.317 -20.009,58.717 
			-16.001,94.443 -15.976,94.456 -15.975,94.466 -15.833,95.73 7.589,108.658 30.977,95.73 31.122,94.443 31.122,94.443 		"/>
		<polygon fill="#201600" points="34.86,58.987 8.259,49.588 7.349,49.224 7.29,49.245 7.231,49.224 6.321,49.588 -20.279,58.987 
			-16.271,94.714 -16.246,94.727 -16.246,94.736 -16.104,96.001 7.318,108.928 30.706,96.001 30.851,94.714 30.852,94.714 		"/>
		<polygon fill="#201600" points="34.589,59.258 7.988,49.858 7.079,49.494 7.02,49.515 6.96,49.494 6.051,49.858 -20.55,59.258 
			-16.542,94.984 -16.517,94.998 -16.516,95.007 -16.374,96.271 7.048,109.199 30.436,96.271 30.581,94.984 30.581,94.984 		"/>
		<polygon fill="#201600" points="34.318,59.529 7.718,50.129 6.808,49.765 6.749,49.786 6.69,49.765 5.78,50.129 -20.82,59.529 
			-16.813,95.255 -16.788,95.268 -16.787,95.277 -16.645,96.542 6.777,109.47 30.165,96.542 30.31,95.255 30.311,95.255 		"/>
		<polygon fill="#201600" points="34.048,59.799 7.447,50.399 6.538,50.036 6.478,50.056 6.419,50.036 5.51,50.399 -21.091,59.799 
			-17.083,95.525 -17.058,95.539 -17.057,95.548 -16.915,96.813 6.506,109.74 29.895,96.813 30.04,95.526 30.04,95.525 		"/>
		<polygon fill="#201600" points="33.777,60.07 7.177,50.67 6.267,50.306 6.208,50.327 6.149,50.306 5.239,50.67 -21.362,60.07 
			-17.354,95.796 -17.329,95.809 -17.328,95.819 -17.186,97.083 6.236,110.011 29.624,97.083 29.769,95.796 29.769,95.796 		"/>
		<polygon fill="#201600" points="33.507,60.34 6.906,50.941 5.996,50.577 5.937,50.598 5.878,50.577 4.969,50.941 -21.632,60.34 
			-17.624,96.066 -17.599,96.08 -17.598,96.089 -17.457,97.354 5.965,110.281 29.353,97.354 29.498,96.067 29.499,96.066 		"/>
		<polygon fill="#201600" points="33.236,60.611 6.635,51.211 5.726,50.847 5.667,50.868 5.608,50.847 4.698,51.211 -21.903,60.611 
			-17.895,96.337 -17.87,96.351 -17.869,96.36 -17.727,97.624 5.695,110.552 29.083,97.624 29.228,96.337 29.228,96.337 		"/>
		<polygon fill="#201600" points="32.966,60.881 6.365,51.482 5.455,51.118 5.396,51.139 5.337,51.118 4.427,51.482 -22.173,60.881 
			-18.165,96.608 -18.141,96.621 -18.14,96.63 -17.998,97.895 5.424,110.822 28.812,97.895 28.957,96.608 28.958,96.608 		"/>
		<polygon fill="#201600" points="32.695,61.152 6.094,51.752 5.185,51.388 5.126,51.409 5.066,51.388 4.157,51.752 -22.444,61.152 
			-18.436,96.878 -18.411,96.892 -18.41,96.901 -18.268,98.165 5.154,111.093 28.542,98.165 28.687,96.879 28.687,96.878 		"/>
		<polygon fill="#201600" points="32.424,61.423 5.824,52.023 4.914,51.659 4.855,51.68 4.796,51.659 3.886,52.023 -22.715,61.423 
			-18.707,97.149 -18.682,97.162 -18.681,97.171 -18.539,98.436 4.883,111.364 28.271,98.436 28.416,97.149 28.416,97.149 		"/>
		<polygon fill="#201600" points="32.154,61.693 5.553,52.293 4.643,51.93 4.584,51.95 4.525,51.93 3.616,52.293 -22.985,61.693 
			-18.977,97.419 -18.952,97.433 -18.951,97.442 -18.81,98.707 4.612,111.634 28.001,98.707 28.146,97.42 28.146,97.419 		"/>
		<polygon fill="#201600" points="31.883,61.964 5.282,52.564 4.373,52.2 4.314,52.221 4.255,52.2 3.345,52.564 -23.256,61.964 
			-19.248,97.69 -19.223,97.703 -19.222,97.713 -19.08,98.977 4.342,111.905 27.73,98.977 27.875,97.69 27.875,97.69 		"/>
		<polygon fill="#201600" points="31.613,62.234 5.012,52.835 4.102,52.471 4.043,52.492 3.984,52.471 3.075,52.835 -23.526,62.234 
			-19.518,97.96 -19.493,97.974 -19.492,97.983 -19.351,99.248 4.071,112.175 27.459,99.248 27.604,97.961 27.605,97.96 		"/>
		<polygon fill="#201600" points="31.342,62.505 4.741,53.105 3.832,52.741 3.773,52.762 3.714,52.741 2.804,53.105 -23.797,62.505 
			-19.789,98.231 -19.764,98.245 -19.763,98.254 -19.621,99.518 3.801,112.446 27.189,99.518 27.334,98.231 27.334,98.231 		"/>
		<polygon fill="#201600" points="31.072,62.775 4.471,53.376 3.561,53.012 3.502,53.033 3.443,53.012 2.533,53.376 -24.067,62.775 
			-20.059,98.502 -20.035,98.515 -20.034,98.524 -19.892,99.789 3.53,112.716 26.918,99.789 27.063,98.502 27.064,98.502 		"/>
		<polygon fill="#201600" points="30.801,63.046 4.2,53.646 3.291,53.282 3.232,53.303 3.172,53.282 2.263,53.646 -24.338,63.046 
			-20.33,98.772 -20.305,98.786 -20.304,98.795 -20.162,100.059 3.26,112.987 26.648,100.059 26.793,98.773 26.793,98.772 		"/>
		<polygon fill="#201600" points="30.53,63.317 3.93,53.917 3.02,53.553 2.961,53.574 2.902,53.553 1.992,53.917 -24.609,63.317 
			-20.601,99.043 -20.576,99.056 -20.575,99.066 -20.433,100.33 2.989,113.258 26.377,100.33 26.522,99.043 26.522,99.043 		"/>
		<polygon fill="#201600" points="30.26,63.587 3.659,54.187 2.749,53.824 2.69,53.844 2.631,53.824 1.722,54.187 -24.879,63.587 
			-20.871,99.313 -20.846,99.327 -20.845,99.336 -20.704,100.601 2.718,113.528 26.106,100.601 26.252,99.314 26.252,99.313 		"/>
		<polygon fill="#201600" points="29.989,63.858 3.388,54.458 2.479,54.094 2.42,54.115 2.361,54.094 1.451,54.458 -25.15,63.858 
			-21.142,99.584 -21.117,99.597 -21.116,99.607 -20.974,100.871 2.448,113.799 25.836,100.871 25.981,99.584 25.981,99.584 		"/>
		<polygon fill="#201600" points="29.719,64.128 3.118,54.729 2.208,54.365 2.149,54.386 2.09,54.365 1.181,54.729 -25.42,64.128 
			-21.412,99.854 -21.387,99.868 -21.386,99.877 -21.245,101.142 2.177,114.069 25.565,101.142 25.71,99.855 25.711,99.854 		"/>
		<polygon fill="#201600" points="29.448,64.399 2.847,54.999 1.938,54.635 1.879,54.656 1.82,54.635 0.91,54.999 -25.691,64.399 
			-21.683,100.125 -21.658,100.139 -21.657,100.148 -21.515,101.412 1.907,114.34 25.295,101.412 25.44,100.125 25.44,100.125 		"/>
		<polygon fill="#201600" points="29.178,64.67 2.577,55.27 1.667,54.906 1.608,54.927 1.549,54.906 0.639,55.27 -25.961,64.67 
			-21.953,100.396 -21.929,100.409 -21.928,100.418 -21.786,101.683 1.636,114.611 25.024,101.683 25.169,100.396 25.17,100.396 		
			"/>
		<polygon fill="#201600" points="28.907,64.94 2.306,55.54 1.397,55.176 1.337,55.197 1.278,55.176 0.369,55.54 -26.232,64.94 
			-22.224,100.666 -22.199,100.68 -22.198,100.689 -22.056,101.954 1.365,114.881 24.754,101.954 24.899,100.667 24.899,100.666 		
			"/>
		<polygon fill="#201600" points="28.636,65.211 2.036,55.811 1.126,55.447 1.067,55.468 1.008,55.447 0.098,55.811 -26.503,65.211 
			-22.495,100.937 -22.47,100.95 -22.469,100.96 -22.327,102.224 1.095,115.152 24.483,102.224 24.628,100.937 24.628,100.937 		"/>
		<polygon fill="#201600" points="28.366,65.481 1.765,56.082 0.855,55.718 0.796,55.739 0.737,55.718 -0.172,56.082 
			-26.773,65.481 -22.765,101.207 -22.74,101.221 -22.739,101.23 -22.598,102.495 0.824,115.422 24.212,102.495 24.357,101.208 
			24.358,101.207 		"/>
		<polygon fill="#201600" points="28.095,65.752 1.494,56.352 0.585,55.988 0.526,56.009 0.467,55.988 -0.443,56.352 
			-27.044,65.752 -23.036,101.478 -23.011,101.491 -23.01,101.501 -22.868,102.765 0.554,115.693 23.942,102.765 24.087,101.478 
			24.087,101.478 		"/>
		<polygon fill="#201600" points="27.825,66.022 1.224,56.623 0.314,56.259 0.255,56.28 0.196,56.259 -0.714,56.623 -27.314,66.022 
			-23.306,101.748 -23.281,101.762 -23.28,101.771 -23.139,103.036 0.283,115.963 23.671,103.036 23.816,101.749 23.817,101.748 		
			"/>
		<polygon fill="#201600" points="27.554,66.293 0.953,56.893 0.044,56.529 -0.015,56.55 -0.075,56.529 -0.984,56.893 
			-27.585,66.293 -23.577,102.019 -23.552,102.033 -23.551,102.042 -23.409,103.306 0.013,116.234 23.401,103.306 23.546,102.019 
			23.546,102.019 		"/>
		<polygon fill="#201600" points="27.283,66.564 0.683,57.164 -0.227,56.8 -0.286,56.821 -0.345,56.8 -1.255,57.164 -27.855,66.564 
			-23.848,102.29 -23.823,102.303 -23.822,102.312 -23.68,103.577 -0.258,116.505 23.13,103.577 23.275,102.29 23.276,102.29 		"/>
		<polygon fill="#201600" points="27.013,66.834 0.412,57.434 -0.497,57.071 -0.557,57.091 -0.616,57.071 -1.525,57.434 
			-28.126,66.834 -24.118,102.56 -24.093,102.574 -24.092,102.583 -23.95,103.848 -0.529,116.775 22.86,103.848 23.005,102.561 
			23.005,102.56 		"/>
		<polygon fill="#201600" points="26.742,67.105 0.142,57.705 -0.768,57.341 -0.827,57.362 -0.886,57.341 -1.796,57.705 
			-28.397,67.105 -24.389,102.831 -24.364,102.844 -24.363,102.854 -24.221,104.118 -0.799,117.046 22.589,104.118 22.734,102.831 
			22.734,102.831 		"/>
		<polygon fill="#201600" points="26.472,67.375 -0.129,57.976 -1.039,57.612 -1.098,57.633 -1.157,57.612 -2.066,57.976 
			-28.667,67.375 -24.659,103.101 -24.634,103.115 -24.633,103.124 -24.492,104.389 -1.07,117.316 22.318,104.389 22.463,103.102 
			22.464,103.101 		"/>
		<polygon fill="#201600" points="26.201,67.646 -0.4,58.246 -1.309,57.882 -1.368,57.903 -1.427,57.882 -2.337,58.246 
			-28.938,67.646 -24.93,103.372 -24.905,103.385 -24.904,103.395 -24.762,104.659 -1.34,117.587 22.048,104.659 22.193,103.372 
			22.193,103.372 		"/>
		<polygon fill="#201600" points="25.931,67.916 -0.67,58.517 -1.58,58.153 -1.639,58.174 -1.698,58.153 -2.608,58.517 
			-29.208,67.916 -25.2,103.643 -25.175,103.656 -25.175,103.665 -25.033,104.93 -1.611,117.857 21.777,104.93 21.922,103.643 
			21.923,103.643 		"/>
		<polygon fill="#201600" points="25.66,68.187 -0.941,58.787 -1.85,58.423 -1.909,58.444 -1.969,58.423 -2.878,58.787 
			-29.479,68.187 -25.471,103.913 -25.446,103.927 -25.445,103.936 -25.303,105.2 -1.881,118.128 21.507,105.2 21.652,103.913 
			21.652,103.913 		"/>
		<polygon fill="#201600" points="25.389,68.458 -1.211,59.058 -2.121,58.694 -2.18,58.715 -2.239,58.694 -3.149,59.058 
			-29.749,68.458 -25.742,104.184 -25.717,104.197 -25.716,104.206 -25.574,105.471 -2.152,118.399 21.236,105.471 21.381,104.184 
			21.382,104.184 		"/>
		<polygon fill="#201600" points="25.119,68.728 -1.482,59.328 -2.392,58.965 -2.451,58.985 -2.51,58.965 -3.419,59.328 
			-30.02,68.728 -26.012,104.454 -25.987,104.468 -25.986,104.477 -25.845,105.742 -2.423,118.669 20.966,105.742 21.111,104.455 
			21.111,104.454 		"/>
		<polygon fill="#201600" points="24.848,68.999 -1.753,59.599 -2.662,59.235 -2.721,59.256 -2.78,59.235 -3.69,59.599 
			-30.291,68.999 -26.283,104.725 -26.258,104.738 -26.257,104.748 -26.115,106.012 -2.693,118.94 20.695,106.012 20.84,104.725 
			20.84,104.725 		"/>
		<polygon fill="#201600" points="24.578,69.269 -2.023,59.87 -2.933,59.506 -2.992,59.527 -3.051,59.506 -3.96,59.87 
			-30.561,69.269 -26.553,104.995 -26.528,105.009 -26.527,105.018 -26.386,106.283 -2.964,119.21 20.424,106.283 20.569,104.996 
			20.57,104.995 		"/>
		<polygon fill="#201600" points="24.307,69.54 -2.294,60.14 -3.203,59.776 -3.262,59.797 -3.321,59.776 -4.231,60.14 
			-30.832,69.54 -26.824,105.266 -26.799,105.28 -26.798,105.289 -26.656,106.553 -3.234,119.481 20.154,106.553 20.299,105.266 
			20.299,105.266 		"/>
		<polygon fill="#201600" points="24.037,69.81 -2.564,60.411 -3.474,60.047 -3.533,60.068 -3.592,60.047 -4.502,60.411 
			-31.102,69.81 -27.094,105.537 -27.07,105.55 -27.069,105.559 -26.927,106.824 -3.505,119.751 19.883,106.824 20.028,105.537 
			20.029,105.537 		"/>
		<polygon fill="#201600" points="23.766,70.081 -2.835,60.681 -3.744,60.317 -3.803,60.338 -3.863,60.317 -4.772,60.681 
			-31.373,70.081 -27.365,105.807 -27.34,105.821 -27.339,105.83 -27.197,107.094 -3.775,120.022 19.613,107.094 19.758,105.808 
			19.758,105.807 		"/>
		<polygon fill="#201600" points="23.495,70.352 -3.105,60.952 -4.015,60.588 -4.074,60.609 -4.133,60.588 -5.043,60.952 
			-31.644,70.352 -27.636,106.078 -27.611,106.091 -27.61,106.1 -27.468,107.365 -4.046,120.293 19.342,107.365 19.487,106.078 
			19.487,106.078 		"/>
		<polygon fill="#201600" points="23.225,70.622 -3.376,61.222 -4.286,60.859 -4.345,60.879 -4.404,60.859 -5.313,61.222 
			-31.914,70.622 -27.906,106.348 -27.881,106.362 -27.88,106.371 -27.739,107.636 -4.317,120.563 19.072,107.636 19.217,106.349 
			19.217,106.348 		"/>
		<polygon fill="#201600" points="22.954,70.893 -3.647,61.493 -4.556,61.129 -4.615,61.15 -4.674,61.129 -5.584,61.493 
			-32.185,70.893 -28.177,106.619 -28.152,106.632 -28.151,106.642 -28.009,107.906 -4.587,120.834 18.801,107.906 18.946,106.619 
			18.946,106.619 		"/>
		<polygon fill="#201600" points="22.684,71.163 -3.917,61.764 -4.827,61.4 -4.886,61.421 -4.945,61.4 -5.854,61.764 
			-32.455,71.163 -28.447,106.889 -28.422,106.903 -28.421,106.912 -28.28,108.177 -4.858,121.104 18.53,108.177 18.675,106.89 
			18.676,106.889 		"/>
		<polygon fill="#201600" points="22.413,71.434 -4.188,62.034 -5.097,61.67 -5.156,61.691 -5.215,61.67 -6.125,62.034 
			-32.726,71.434 -28.718,107.16 -28.693,107.174 -28.692,107.183 -28.55,108.447 -5.128,121.375 18.26,108.447 18.405,107.16 
			18.405,107.16 		"/>
		<polygon fill="#201600" points="22.143,71.704 -4.458,62.305 -5.368,61.941 -5.427,61.962 -5.486,61.941 -6.396,62.305 
			-32.996,71.704 -28.988,107.431 -28.964,107.444 -28.963,107.453 -28.821,108.718 -5.399,121.645 17.989,108.718 18.134,107.431 
			18.135,107.431 		"/>
		<polygon fill="#201600" points="21.872,71.975 -4.729,62.575 -5.638,62.211 -5.698,62.232 -5.757,62.211 -6.666,62.575 
			-33.267,71.975 -29.259,107.701 -29.234,107.715 -29.233,107.724 -29.091,108.988 -5.67,121.916 17.719,108.988 17.864,107.702 
			17.864,107.701 		"/>
		<polygon fill="#201600" points="21.601,72.246 -4.999,62.846 -5.909,62.482 -5.968,62.503 -6.027,62.482 -6.937,62.846 
			-33.538,72.246 -29.53,107.972 -29.505,107.985 -29.504,107.995 -29.362,109.259 -5.94,122.187 17.448,109.259 17.593,107.972 
			17.593,107.972 		"/>
		<polygon fill="#201600" points="21.331,72.516 -5.27,63.116 -6.18,62.753 -6.239,62.774 -6.298,62.753 -7.207,63.116 
			-33.808,72.516 -29.8,108.242 -29.775,108.256 -29.774,108.265 -29.633,109.53 -6.211,122.457 17.177,109.53 17.322,108.243 
			17.323,108.242 		"/>
		<polygon fill="#201600" points="21.06,72.787 -5.541,63.387 -6.45,63.023 -6.509,63.044 -6.568,63.023 -7.478,63.387 
			-34.079,72.787 -30.071,108.513 -30.046,108.526 -30.045,108.536 -29.903,109.8 -6.481,122.728 16.907,109.8 17.052,108.513 
			17.052,108.513 		"/>
		<polygon fill="#201600" points="20.79,73.057 -5.811,63.658 -6.721,63.294 -6.78,63.315 -6.839,63.294 -7.748,63.658 
			-34.349,73.057 -30.341,108.783 -30.316,108.797 -30.315,108.806 -30.174,110.071 -6.752,122.998 16.636,110.071 16.781,108.784 
			16.782,108.783 		"/>
		<polygon fill="#201600" points="20.519,73.328 -6.082,63.928 -6.991,63.564 -7.05,63.585 -7.109,63.564 -8.019,63.928 
			-34.62,73.328 -30.612,109.054 -30.587,109.068 -30.586,109.077 -30.444,110.341 -7.022,123.269 16.366,110.341 16.511,109.054 
			16.511,109.054 		"/>
		<polygon fill="#201600" points="20.248,73.599 -6.352,64.199 -7.262,63.835 -7.321,63.856 -7.38,63.835 -8.29,64.199 
			-34.89,73.599 -30.882,109.325 -30.858,109.338 -30.857,109.347 -30.715,110.612 -7.293,123.54 16.095,110.612 16.24,109.325 
			16.241,109.325 		"/>
		<polygon fill="#201600" points="19.978,73.869 -6.623,64.469 -7.532,64.105 -7.592,64.126 -7.651,64.105 -8.56,64.469 
			-35.161,73.869 -31.153,109.595 -31.128,109.609 -31.127,109.618 -30.985,110.883 -7.564,123.81 15.825,110.883 15.97,109.596 
			15.97,109.595 		"/>
		<polygon fill="#201600" points="19.707,74.14 -6.893,64.74 -7.803,64.376 -7.862,64.397 -7.921,64.376 -8.831,64.74 
			-35.432,74.14 -31.424,109.866 -31.399,109.879 -31.398,109.889 -31.256,111.153 -7.834,124.081 15.554,111.153 15.699,109.866 
			15.699,109.866 		"/>
		<polygon fill="#201600" points="19.437,74.41 -7.164,65.011 -8.074,64.647 -8.133,64.668 -8.192,64.647 -9.101,65.011 
			-35.702,74.41 -31.694,110.136 -31.669,110.15 -31.668,110.159 -31.527,111.424 -8.105,124.351 15.283,111.424 15.428,110.137 
			15.429,110.136 		"/>
		<polygon fill="#201600" points="19.166,74.681 -7.435,65.281 -8.344,64.917 -8.403,64.938 -8.462,64.917 -9.372,65.281 
			-35.973,74.681 -31.965,110.407 -31.94,110.42 -31.939,110.43 -31.797,111.694 -8.375,124.622 15.013,111.694 15.158,110.407 
			15.158,110.407 		"/>
		<polygon fill="#201600" points="18.896,74.951 -7.705,65.552 -8.615,65.188 -8.674,65.209 -8.733,65.188 -9.643,65.552 
			-36.243,74.951 -32.235,110.678 -32.21,110.691 -32.21,110.7 -32.068,111.965 -8.646,124.892 14.742,111.965 14.887,110.678 
			14.888,110.678 		"/>
		<polygon fill="#201600" points="18.625,75.222 -7.976,65.822 -8.885,65.458 -8.944,65.479 -9.004,65.458 -9.913,65.822 
			-36.514,75.222 -32.506,110.948 -32.481,110.962 -32.48,110.971 -32.338,112.235 -8.916,125.163 14.472,112.235 14.617,110.948 
			14.617,110.948 		"/>
		<polygon fill="#201600" points="18.354,75.493 -8.246,66.093 -9.156,65.729 -9.215,65.75 -9.274,65.729 -10.184,66.093 
			-36.784,75.493 -32.777,111.219 -32.752,111.232 -32.751,111.241 -32.609,112.506 -9.187,125.434 14.201,112.506 14.346,111.219 
			14.347,111.219 		"/>
		<polygon fill="#201600" points="18.084,75.763 -8.517,66.363 -9.426,66 -9.486,66.02 -9.545,66 -10.454,66.363 -37.055,75.763 
			-33.047,111.489 -33.022,111.503 -33.021,111.512 -32.879,112.777 -9.458,125.704 13.931,112.777 14.076,111.49 14.076,111.489 		
			"/>
		<polygon fill="#201600" points="17.813,76.034 -8.787,66.634 -9.697,66.27 -9.756,66.291 -9.815,66.27 -10.725,66.634 
			-37.326,76.034 -33.318,111.76 -33.293,111.773 -33.292,111.783 -33.15,113.047 -9.728,125.975 13.66,113.047 13.805,111.76 
			13.805,111.76 		"/>
		<polygon fill="#201600" points="17.543,76.304 -9.058,66.905 -9.968,66.541 -10.027,66.562 -10.086,66.541 -10.995,66.905 
			-37.596,76.304 -33.588,112.03 -33.563,112.044 -33.562,112.053 -33.421,113.318 -9.999,126.245 13.389,113.318 13.534,112.031 
			13.535,112.03 		"/>
		<polygon fill="#201600" points="17.272,76.575 -9.329,67.175 -10.238,66.811 -10.297,66.832 -10.356,66.811 -11.266,67.175 
			-37.867,76.575 -33.859,112.301 -33.834,112.314 -33.833,112.324 -33.691,113.588 -10.269,126.516 13.119,113.588 13.264,112.301 
			13.264,112.301 		"/>
		<polygon fill="#201600" points="17.002,76.845 -9.599,67.446 -10.509,67.082 -10.568,67.103 -10.627,67.082 -11.537,67.446 
			-38.137,76.845 -34.129,112.572 -34.104,112.585 -34.104,112.594 -33.962,113.859 -10.54,126.786 12.848,113.859 12.993,112.572 
			12.994,112.572 		"/>
		<polygon fill="#201600" points="16.731,77.116 -9.87,67.716 -10.779,67.352 -10.838,67.373 -10.898,67.352 -11.807,67.716 
			-38.408,77.116 -34.4,112.842 -34.375,112.856 -34.374,112.865 -34.232,114.129 -10.81,127.057 12.578,114.129 12.723,112.843 
			12.723,112.842 		"/>
	</g>
</g>
<path fill="#FFFFFF" d="M44,84.452c-23.171,0-42.022-18.851-42.022-42.022S20.829,0.407,44,0.407s42.022,18.851,42.022,42.022
	S67.171,84.452,44,84.452z M44,3.966c-21.209,0-38.463,17.255-38.463,38.463c0,21.208,17.254,38.463,38.463,38.463
	s38.463-17.255,38.463-38.463C82.463,21.221,65.209,3.966,44,3.966z"/>
<polygon fill="#929393" points="20.153,59.744 20.012,58.479 16.649,24.041 42.607,14.617 43.516,14.254 43.575,14.275 
	43.634,14.254 44.544,14.617 70.066,23.637 67.109,58.452 66.963,59.744 43.575,72.671 "/>
<polygon fill="#B3B3B3" points="19.986,58.456 15.978,22.73 42.579,13.33 43.488,12.967 43.547,12.987 43.606,12.967 44.516,13.33 
	71.117,22.73 67.109,58.456 43.547,71.384 "/>
<polygon fill="#929393" points="43.557,16.405 43.547,16.408 43.537,16.405 19.461,24.913 22.998,56.438 43.547,67.713 
	64.097,56.438 67.634,24.913 "/>
<polygon fill="#B82934" points="43.557,17.691 43.547,17.695 43.537,17.691 19.461,26.2 22.998,57.725 43.547,69 64.097,57.725 
	67.634,26.2 "/>
<polygon fill="#E52A3A" points="19.461,26.2 22.998,57.725 43.488,68.967 43.488,17.709 "/>
<polygon fill="none" points="43.557,16.405 43.547,16.408 43.537,16.405 19.461,24.913 22.998,56.438 43.547,67.713 64.097,56.438 
	67.634,24.913 "/>
<path fill-rule="evenodd" clip-rule="evenodd" fill="#B3B3B3" d="M26.839,56.093c5.574-12.401,11.098-24.691,16.703-37.161
	c5.842,12.479,11.609,24.798,17.43,37.234c-0.323,0-0.525,0.003-0.727,0c-1.544-0.026-3.088-0.072-4.632-0.066
	c-0.469,0.002-0.67-0.179-0.844-0.591c-1.038-2.453-2.116-4.888-3.151-7.342c-0.181-0.427-0.41-0.567-0.864-0.558
	c-2.277,0.042-4.555,0.066-6.832,0.07c-2.296,0.003-4.592-0.017-6.888-0.051c-0.414-0.007-0.612,0.127-0.763,0.513
	c-0.958,2.442-1.951,4.871-2.907,7.315c-0.159,0.407-0.371,0.545-0.804,0.547c-1.679,0.009-3.358,0.057-5.037,0.09
	C27.338,56.096,27.152,56.093,26.839,56.093z M43.616,30.962c-1.669,3.961-3.274,7.768-4.903,11.635c3.522,0,6.943,0,10.471,0
	C47.329,38.721,45.511,34.922,43.616,30.962z"/>
<path fill="#FFFFFF" d="M38.713,42.597c1.587-3.767,3.152-7.48,4.775-11.331V19.051c-5.586,12.429-11.093,24.68-16.649,37.042
	c0.313,0,0.499,0.003,0.684,0c1.679-0.033,3.358-0.081,5.037-0.09c0.433-0.002,0.644-0.14,0.804-0.547
	c0.956-2.444,1.949-4.873,2.907-7.315c0.151-0.385,0.35-0.519,0.763-0.513c2.151,0.033,4.303,0.048,6.454,0.048v-5.079
	C41.904,42.597,40.319,42.597,38.713,42.597z"/>
<path fill="none" d="M44,84.452c-23.171,0-42.022-18.851-42.022-42.022S20.829,0.407,44,0.407s42.022,18.851,42.022,42.022
	S67.171,84.452,44,84.452z"/>
</svg>
