<?xml version="1.0" ?><!DOCTYPE svg  PUBLIC '-//W3C//DTD SVG 1.1//EN'  'http://www.w3.org/Graphics/SVG/1.1/DTD/svg11.dtd'><svg enable-background="new 0 0 512 512" height="512px" id="Layer_1" version="1.1" viewBox="0 0 512 512" width="512px" xml:space="preserve" xmlns="http://www.w3.org/2000/svg" xmlns:xlink="http://www.w3.org/1999/xlink"><g><path d="M490,114.186V374H22V114.186C22,103.453,32.477,94,43.577,94H469.57C480.668,94,490,103.453,490,114.186z" fill="#414242"/><rect fill="#232323" height="243" opacity="0.6" width="432" x="40" y="113"/><path d="M28.872,407h455.219c15.037,0,27.227-9,27.227-19H1.645C1.645,398,13.835,407,28.872,407z" fill="#ECF0F1"/><polygon fill="#D8D8D8" points="511.317,388 1.645,388 22,374 490,374   "/><path d="M190.247,387c1.289,5.408,7.279,10,14.484,10h103.5c7.206,0,13.195-4.592,14.484-10H190.247z" fill="#777777"/><path d="M190.247,387c1.289-3.854,7.279-6,14.484-6h103.5c7.206,0,13.195,2.146,14.484,6H190.247z" fill="#666666"/></g></svg>