<?xml version="1.0" encoding="utf-8"?>
<!-- Generator: Adobe Illustrator 17.0.0, SVG Export Plug-In . SVG Version: 6.00 Build 0)  -->
<!DOCTYPE svg PUBLIC "-//W3C//DTD SVG 1.1//EN" "http://www.w3.org/Graphics/SVG/1.1/DTD/svg11.dtd">
<svg version="1.1" id="Layer_3" xmlns="http://www.w3.org/2000/svg" xmlns:xlink="http://www.w3.org/1999/xlink" x="0px" y="0px"
	 width="88px" height="90px" viewBox="0 0 88 90" enable-background="new 0 0 88 90" xml:space="preserve">
<g>
	<path fill="#FFFFFF" d="M44,84.466c-23.171,0-42.022-18.851-42.022-42.022S20.829,0.422,44,0.422s42.022,18.851,42.022,42.022
		C86.024,65.615,67.171,84.466,44,84.466z"/>
	<path fill="#DCDCDC" d="M44,89.608c-24.262,0-44-19.738-44-44c0-24.261,19.738-44,44-44s44,19.738,44,44
		C88.001,69.871,68.262,89.608,44,89.608z"/>
	<circle fill="#007A9C" cx="44" cy="42.444" r="40.243"/>
	<path opacity="0.2" fill="#1E0E00" enable-background="new    " d="M53.772,81.21l16.432-16.432l-43.899-43.9
		c-0.308,0.235-0.684,0.394-1.115,0.43c-0.257,0.119-0.558,0.187-0.901,0.189c-2.26,0.01-4.517,0.119-6.776,0
		c-0.204-0.01-0.394-0.055-0.574-0.114l-14.15,14.15l5.917,28.076l23.189,19.079L53.772,81.21z"/>
	<path fill="#0086B0" d="M70.627,63.716c0,1.48-1.198,2.679-2.678,2.679H19.366c-1.48,0-2.679-1.2-2.679-2.679V23.451
		c0-1.48,1.2-2.679,2.679-2.679h48.583c1.478,0,2.678,1.2,2.678,2.679V63.716z"/>
	<path fill="#36A1D2" d="M70.627,62.498c0,1.48-1.198,2.679-2.678,2.679H19.366c-1.48,0-2.679-1.2-2.679-2.679V22.233
		c0-1.48,1.2-2.678,2.679-2.678h48.583c1.478,0,2.678,1.2,2.678,2.678V62.498z"/>
	<rect x="18.706" y="23.371" fill="#46C9EA" width="49.903" height="35.84"/>
	<rect x="18.706" y="22.946" fill="#0086B0" width="49.903" height="6.105"/>
	<rect x="21.18" y="24.451" fill="#46C9EA" width="31.629" height="3.234"/>
	<rect x="55.211" y="24.451" fill="#46C9EA" width="10.868" height="3.234"/>
	<path fill="#0086B0" d="M38.339,46.375c0.764,0,1.481-0.311,2.021-0.876c0.54-0.565,0.836-1.317,0.836-2.117
		s-0.297-1.551-0.836-2.117c-0.54-0.565-1.258-0.877-2.021-0.877c-0.763,0-1.481,0.312-2.021,0.877
		c-0.54,0.565-0.837,1.317-0.837,2.117s0.297,1.551,0.837,2.117C36.858,46.065,37.576,46.375,38.339,46.375z M36.57,41.529
		c0.473-0.495,1.1-0.767,1.768-0.767c0.668,0,1.297,0.272,1.768,0.767c0.473,0.495,0.733,1.152,0.733,1.853
		c0,0.699-0.26,1.358-0.733,1.853c-0.471,0.495-1.1,0.769-1.768,0.769c-0.668,0-1.297-0.274-1.768-0.769
		c-0.471-0.495-0.733-1.152-0.733-1.853C35.838,42.682,36.098,42.025,36.57,41.529z"/>
	<path fill="#0086B0" d="M37.618,44.878c0.001,0,0.003,0,0.006,0c0.049,0,0.095-0.021,0.128-0.058l2.233-2.433
		c0.068-0.076,0.065-0.193-0.004-0.265c-0.071-0.071-0.184-0.07-0.253,0.004l-2.097,2.282l-0.855-1.057
		c-0.064-0.08-0.177-0.089-0.251-0.022c-0.074,0.067-0.085,0.186-0.021,0.265l0.983,1.216C37.52,44.853,37.568,44.878,37.618,44.878
		z"/>
	<path fill="#0086B0" d="M39.536,50.924c-0.07-0.073-0.183-0.073-0.253,0l-0.141,0.15l-0.341-0.357
		c0.269-0.341,0.43-0.775,0.43-1.251c0-1.084-0.842-1.964-1.877-1.964c-1.033,0-1.875,0.882-1.875,1.964s0.842,1.964,1.875,1.964
		c0.454,0,0.868-0.168,1.194-0.451l0.341,0.357l-0.141,0.149c-0.07,0.073-0.07,0.192,0,0.265l1.607,1.686
		c0.036,0.036,0.082,0.054,0.126,0.054c0.046,0,0.092-0.018,0.126-0.054l0.535-0.564c0.07-0.073,0.07-0.19,0-0.265L39.536,50.924z
		 M35.838,49.467c0-0.877,0.681-1.59,1.518-1.59c0.837,0,1.518,0.712,1.518,1.59s-0.681,1.59-1.518,1.59
		C36.519,51.056,35.838,50.344,35.838,49.467z M40.482,53.038l-1.355-1.42l0.283-0.296l1.356,1.42L40.482,53.038z"/>
	<path fill="#0086B0" d="M29.144,35.003h3.93c0.098,0,0.178-0.083,0.178-0.187c0-0.103-0.08-0.186-0.178-0.186h-3.93
		c-0.098,0-0.178,0.083-0.178,0.186C28.966,34.92,29.046,35.003,29.144,35.003z"/>
	<path fill="#0086B0" d="M29.144,35.939h3.93c0.098,0,0.178-0.083,0.178-0.187c0-0.103-0.08-0.187-0.178-0.187h-3.93
		c-0.098,0-0.178,0.085-0.178,0.187C28.966,35.855,29.046,35.939,29.144,35.939z"/>
	<path fill="#0086B0" d="M33.252,36.687c0-0.103-0.08-0.186-0.178-0.186h-3.93c-0.098,0-0.178,0.083-0.178,0.186
		c0,0.104,0.08,0.187,0.178,0.187h3.93C33.174,36.875,33.252,36.791,33.252,36.687z"/>
	<path fill="#0086B0" d="M28.25,37.717c0,0.103,0.08,0.186,0.18,0.186h1.251v0.935c0,0.073,0.04,0.14,0.104,0.17
		c0.024,0.012,0.049,0.018,0.074,0.018c0.042,0,0.083-0.016,0.116-0.045l1.2-1.078h2.614c0.098,0,0.178-0.083,0.178-0.186v-3.931
		c0-0.103-0.08-0.186-0.178-0.186H28.43c-0.098,0-0.18,0.085-0.18,0.186C28.25,33.786,28.25,37.717,28.25,37.717z M28.609,33.974
		h5.002v3.555H31.11c-0.042,0-0.083,0.015-0.116,0.045l-0.956,0.858v-0.715c0-0.104-0.08-0.187-0.178-0.187h-1.251
		C28.609,37.53,28.609,33.974,28.609,33.974z"/>
	<path fill="#0086B0" d="M35.48,33.881c0,0.103,0.08,0.187,0.178,0.187h0.552l0.342,4.132l0,0c0,0.406,0.326,0.733,0.715,0.733
		c0.332,0,0.611-0.239,0.69-0.561h0.763c0.079,0.323,0.358,0.561,0.69,0.561c0.394,0,0.714-0.336,0.714-0.748
		c0-0.413-0.32-0.749-0.714-0.749c-0.332,0-0.611,0.239-0.69,0.562h-0.763c-0.079-0.323-0.358-0.562-0.69-0.562
		c-0.152,0-0.291,0.051-0.407,0.135l-0.051-0.604c0.003,0,0.007,0.001,0.012,0.001c0.001,0,0.004,0,0.009,0l3.662-0.186
		c0.076-0.004,0.141-0.059,0.162-0.135l0.535-1.966c0.016-0.057,0.004-0.117-0.03-0.164c-0.033-0.048-0.086-0.074-0.143-0.074
		h-4.419l-0.049-0.578c-0.007-0.097-0.085-0.171-0.178-0.171h-0.714C35.56,33.693,35.48,33.777,35.48,33.881z M39.41,37.811
		c0.198,0,0.358,0.168,0.358,0.375s-0.161,0.375-0.358,0.375c-0.196,0-0.357-0.168-0.357-0.375
		C39.053,37.977,39.214,37.811,39.41,37.811z M37.267,37.811c0.196,0,0.357,0.168,0.357,0.375s-0.161,0.375-0.357,0.375
		c-0.198,0-0.357-0.168-0.357-0.375C36.91,37.977,37.069,37.811,37.267,37.811z M40.782,34.816l-0.436,1.597l-3.533,0.181
		c-0.012,0-0.022,0.001-0.033,0.004l-0.147-1.783H40.782z"/>
	<path fill="#0086B0" d="M31.108,44.319c0.739,0,1.34-0.798,1.34-1.778c0-0.98-0.601-1.777-1.34-1.777
		c-0.739,0-1.34,0.797-1.34,1.777S30.371,44.319,31.108,44.319z M31.108,41.135c0.532,0,0.983,0.644,0.983,1.404
		c0,0.761-0.451,1.404-0.983,1.404c-0.532,0-0.983-0.642-0.983-1.404C30.127,41.779,30.577,41.135,31.108,41.135z"/>
	<path fill="#0086B0" d="M28.618,44.633l-0.358,1.121c-0.018,0.058-0.009,0.12,0.025,0.17c0.033,0.049,0.088,0.079,0.146,0.079
		h5.359c0.058,0,0.112-0.03,0.146-0.079c0.033-0.049,0.043-0.112,0.025-0.17l-0.357-1.121c-0.019-0.059-0.064-0.104-0.12-0.12
		l-1.251-0.375c-0.043-0.012-0.089-0.009-0.129,0.012l-0.992,0.52l-0.992-0.52c-0.04-0.021-0.086-0.025-0.129-0.012l-1.251,0.375
		C28.682,44.529,28.635,44.573,28.618,44.633z M30.02,44.517l1.01,0.528c0.051,0.027,0.11,0.027,0.159,0l1.01-0.528l1.093,0.327
		l0.248,0.782h-4.864l0.25-0.782L30.02,44.517z"/>
	<path fill="#0086B0" d="M24.053,47.503c-0.764,0-1.481,0.311-2.021,0.877c-0.54,0.565-0.837,1.317-0.837,2.117
		c0,0.8,0.297,1.551,0.837,2.117s1.258,0.877,2.021,0.877s1.481-0.311,2.021-0.877c0.54-0.567,0.837-1.317,0.837-2.117
		c0-0.8-0.297-1.552-0.837-2.117C25.534,47.813,24.817,47.503,24.053,47.503z M25.821,52.348c-0.473,0.495-1.1,0.767-1.768,0.767
		s-1.297-0.272-1.768-0.767c-0.471-0.495-0.733-1.152-0.733-1.853c0-0.7,0.26-1.358,0.733-1.853c0.473-0.495,1.1-0.767,1.768-0.767
		s1.297,0.272,1.768,0.767c0.471,0.495,0.733,1.152,0.733,1.853C26.554,51.196,26.294,51.853,25.821,52.348z"/>
	<path fill="#0086B0" d="M25.373,50.885l-1.142-0.513v-1.935c0-0.104-0.08-0.187-0.178-0.187c-0.098,0-0.178,0.083-0.178,0.187
		v2.058c0,0.076,0.043,0.143,0.109,0.171l1.251,0.562c0.024,0.01,0.048,0.016,0.07,0.016c0.07-0.001,0.135-0.043,0.165-0.114
		C25.505,51.037,25.464,50.925,25.373,50.885z"/>
	<path fill="#0086B0" d="M22.267,50.308h-0.178c-0.1,0-0.18,0.085-0.18,0.187s0.08,0.187,0.18,0.187h0.178
		c0.098,0,0.178-0.085,0.178-0.187S22.365,50.308,22.267,50.308z"/>
	<path fill="#0086B0" d="M25.66,50.496c0,0.103,0.08,0.187,0.178,0.187h0.178c0.098,0,0.178-0.085,0.178-0.187
		s-0.08-0.187-0.178-0.187h-0.178C25.74,50.308,25.66,50.393,25.66,50.496z"/>
	<path fill="#0086B0" d="M24.053,52.18c-0.098,0-0.178,0.085-0.178,0.186v0.189c0,0.103,0.08,0.187,0.178,0.187
		s0.178-0.085,0.178-0.187v-0.189C24.231,52.265,24.151,52.18,24.053,52.18z"/>
	<path fill="#0086B0" d="M33.789,47.877H28.43c-0.098,0-0.18,0.085-0.18,0.186v3.744c0,0.103,0.08,0.187,0.18,0.187h2.501v0.749
		h-0.715c-0.098,0-0.178,0.083-0.178,0.186s0.08,0.187,0.178,0.187h1.787c0.098,0,0.178-0.085,0.178-0.187s-0.08-0.186-0.178-0.186
		h-0.715v-0.749h2.501c0.098,0,0.178-0.085,0.178-0.187v-3.744C33.968,47.96,33.887,47.877,33.789,47.877z M33.611,51.618h-5.002
		V48.25h5.002V51.618z"/>
	<path fill="#0086B0" d="M24.766,35.472c0-0.413-0.32-0.748-0.714-0.748s-0.714,0.336-0.714,0.748c0,0.412,0.321,0.748,0.714,0.748
		C24.447,36.22,24.766,35.884,24.766,35.472z M23.696,35.472c0-0.207,0.161-0.375,0.357-0.375s0.357,0.168,0.357,0.375
		c0,0.205-0.161,0.373-0.357,0.373S23.696,35.677,23.696,35.472z"/>
	<path fill="#0086B0" d="M24.05,39.307c0.051,0,0.1-0.022,0.134-0.062c0.079-0.094,1.93-2.309,1.923-3.771
		c-0.004-1.187-0.926-2.155-2.055-2.155c-1.133,0-2.053,0.967-2.053,2.156c0,1.46,1.838,3.676,1.917,3.769
		C23.95,39.284,23.995,39.307,24.05,39.307z M24.053,33.693c0.931,0,1.694,0.8,1.698,1.781c0.004,1.106-1.276,2.819-1.701,3.355
		c-0.422-0.537-1.695-2.248-1.695-3.356C22.355,34.493,23.116,33.693,24.053,33.693z"/>
	<path fill="#0086B0" d="M21.373,44.13h0.586l0.103,0.323l-0.458,0.48c-0.07,0.073-0.07,0.19,0,0.265l0.715,0.748
		c0.07,0.073,0.183,0.073,0.253,0l0.458-0.479l0.309,0.107v0.616c0,0.101,0.08,0.186,0.178,0.186h1.072
		c0.098,0,0.178-0.085,0.178-0.186v-0.614l0.309-0.107l0.458,0.479c0.07,0.073,0.183,0.073,0.253,0l0.714-0.748
		c0.07-0.073,0.07-0.19,0-0.265l-0.458-0.48l0.103-0.323h0.586c0.098,0,0.178-0.083,0.178-0.187v-1.123
		c0-0.104-0.08-0.186-0.178-0.186h-0.586l-0.103-0.327l0.458-0.479c0.07-0.073,0.07-0.192,0-0.265l-0.714-0.748
		c-0.07-0.073-0.183-0.073-0.253,0l-0.458,0.48l-0.309-0.109v-0.614c0-0.103-0.08-0.187-0.178-0.187h-1.072
		c-0.098,0-0.178,0.085-0.178,0.187v0.614l-0.309,0.109l-0.458-0.48c-0.07-0.073-0.183-0.073-0.253,0l-0.715,0.748
		c-0.07,0.073-0.07,0.192,0,0.265l0.458,0.479l-0.103,0.324h-0.586c-0.098,0-0.178,0.083-0.178,0.186v1.123
		C21.193,44.047,21.275,44.13,21.373,44.13z M21.552,43.008h0.537c0.076,0,0.146-0.052,0.17-0.128l0.178-0.561
		c0.022-0.068,0.004-0.143-0.043-0.192l-0.41-0.43l0.462-0.483l0.409,0.43c0.048,0.051,0.119,0.067,0.183,0.045l0.535-0.187
		c0.073-0.025,0.122-0.097,0.122-0.177v-0.562h0.714v0.561c0,0.08,0.049,0.152,0.123,0.177l0.535,0.187
		c0.064,0.022,0.134,0.004,0.183-0.045l0.409-0.43l0.462,0.483l-0.409,0.43c-0.048,0.051-0.064,0.123-0.043,0.192l0.178,0.561
		c0.025,0.076,0.092,0.128,0.17,0.128h0.535v0.748h-0.535c-0.077,0-0.146,0.051-0.17,0.128l-0.178,0.561
		c-0.022,0.067-0.004,0.141,0.043,0.19l0.409,0.43l-0.462,0.485l-0.409-0.431c-0.049-0.049-0.119-0.067-0.183-0.043l-0.535,0.186
		c-0.073,0.025-0.123,0.097-0.123,0.177v0.562h-0.714v-0.562c0-0.08-0.049-0.152-0.122-0.177l-0.535-0.186
		c-0.064-0.024-0.135-0.006-0.183,0.043l-0.409,0.434l-0.462-0.485l0.41-0.43c0.048-0.049,0.064-0.123,0.043-0.19l-0.178-0.561
		c-0.024-0.077-0.092-0.128-0.17-0.128h-0.537V43.008z"/>
	<path fill="#0086B0" d="M24.053,44.13c0.394,0,0.714-0.336,0.714-0.748c0-0.412-0.32-0.748-0.714-0.748s-0.714,0.336-0.714,0.748
		C23.339,43.794,23.659,44.13,24.053,44.13z M24.053,43.008c0.196,0,0.357,0.167,0.357,0.373s-0.161,0.375-0.357,0.375
		s-0.357-0.168-0.357-0.375S23.856,43.008,24.053,43.008z"/>
	<path fill="#FFFFFF" d="M44,84.496c-23.187,0-42.052-18.865-42.052-42.052C1.948,19.257,20.813,0.392,44,0.392
		s42.052,18.865,42.052,42.052S67.189,84.496,44,84.496z M44,3.955c-21.223,0-38.491,17.266-38.491,38.489S22.775,80.933,44,80.933
		c21.223,0,38.489-17.266,38.489-38.489S65.223,3.955,44,3.955z"/>
	<path fill="none" d="M44,84.466c-23.171,0-42.022-18.851-42.022-42.022S20.829,0.422,44,0.422s42.022,18.851,42.022,42.022
		C86.024,65.615,67.171,84.466,44,84.466z"/>
	<path fill="#0086B0" d="M54.206,46.943c1.048-0.376,1.926-0.815,2.87-1.335c2.547-1.404,5.814-1.89,8.788-2.037V33.104h-19.33v11.1
		C48.021,44.744,51.54,45.647,54.206,46.943z"/>
	<path fill="#36A1D2" d="M54.126,46.943c0.367,0.18,0.625,0.364,0.977,0.559c3.047,1.679,7.787,1.955,10.761,1.875v-5.806
		c-2.974,0.147-6.282,0.633-8.829,2.037C56.092,46.129,55.174,46.567,54.126,46.943z"/>
	<path fill="#009DAF" d="M55.104,47.503c-0.336-0.184-0.567-0.36-0.9-0.531c0.028-0.01,0.056-0.018,0.085-0.028
		c-2.669-1.297-6.269-2.199-7.756-2.739v4.55v5.167h19.33v-4.544C62.89,49.458,58.15,49.181,55.104,47.503z"/>
	<circle fill="#46C9EA" cx="63.259" cy="36.825" r="2.616"/>
</g>
</svg>
