<?xml version="1.0" encoding="utf-8"?>
<!-- Generator: Adobe Illustrator 17.0.0, SVG Export Plug-In . SVG Version: 6.00 Build 0)  -->
<!DOCTYPE svg PUBLIC "-//W3C//DTD SVG 1.1//EN" "http://www.w3.org/Graphics/SVG/1.1/DTD/svg11.dtd">
<svg version="1.1" id="Layer_2" xmlns="http://www.w3.org/2000/svg" xmlns:xlink="http://www.w3.org/1999/xlink" x="0px" y="0px"
	 width="88px" height="90px" viewBox="0 0 88 90" enable-background="new 0 0 88 90" xml:space="preserve">
<path fill="#FFFFFF" d="M44,84.452c-23.171,0-42.022-18.851-42.022-42.022S20.829,0.407,44,0.407s42.022,18.851,42.022,42.022
	S67.171,84.452,44,84.452z"/>
<path fill="#DCDCDC" d="M44,89.593c-24.262,0-44-19.738-44-44c0-24.262,19.738-44,44-44c24.262,0,44,19.738,44,44
	C88,69.855,68.262,89.593,44,89.593z"/>
<circle fill="#FF9F00" cx="44" cy="42.429" r="40.243"/>
<path opacity="0.2" fill="#1E0E00" d="M66.628,58.378c0.418-0.148,0.731-0.389,0.937-0.723c0.206-0.334,0.309-0.952,0.309-1.852
	c0-1.633,0.077-3.446,0.232-5.438c0.09-1.299,0.438-2.456,1.043-3.471c0.463-0.771,1.249-1.511,2.356-2.218
	c-0.94-0.541-1.687-1.226-2.24-2.057c-0.554-0.83-0.921-1.889-1.101-3.177c-0.077-0.541-0.167-2.337-0.27-5.388
	c-0.039-1.133-0.116-1.828-0.232-2.086c-0.167-0.412-0.48-0.718-0.937-0.917c-0.457-0.199-1.387-0.299-2.791-0.299v-4.635h1.024
	c0.562,0,1.075,0.016,1.549,0.044l-2.175-2.175l-4.783,4.783l-4.387-4.387L47.442,32.1l4.387,4.387l-2.748,2.748
	c-1.029-0.998-1.775-1.847-2.235-2.545c-0.903-1.371-1.354-2.739-1.354-4.104c0-1.97,0.751-3.66,2.252-5.069
	c0.814-0.764,1.736-1.314,2.757-1.664l-2.933-0.011L34.696,38.713V26.117h2.154l-2.132-2.132L11.672,47.032
	c-0.154-0.017-0.312-0.03-0.478-0.039v-4.635c1.146-0.051,1.992-0.277,2.539-0.676c0.547-0.399,0.966-1.024,1.255-1.873
	c0.29-0.85,0.434-2.285,0.434-4.306c0-2.549,0.116-4.29,0.348-5.224c0.232-0.933,0.603-1.68,1.113-2.24
	c0.429-0.472,1.038-0.868,1.806-1.198l-1.188-1.188L3.88,39.275c-0.081,1.041-0.122,2.093-0.122,3.154
	c0,22.225,18.017,40.243,40.243,40.243c2.148,0,4.256-0.17,6.313-0.494l19.981-19.981c-0.323,0.181-0.675,0.349-1.078,0.497
	c-0.985,0.36-2.404,0.541-4.258,0.541h-1.024v-4.635C65.312,58.599,66.21,58.525,66.628,58.378z"/>
<g>
	<path fill="#C26A00" d="M11.194,46.993v-4.635c1.146-0.051,1.992-0.277,2.539-0.676c0.547-0.399,0.966-1.024,1.255-1.873
		c0.29-0.85,0.434-2.285,0.434-4.307c0-2.549,0.116-4.29,0.348-5.224c0.232-0.933,0.603-1.68,1.113-2.24
		c0.51-0.56,1.258-1.02,2.245-1.381c0.987-0.36,2.409-0.541,4.268-0.541h1.026v4.635c-1.378,0-2.279,0.074-2.704,0.222
		c-0.425,0.148-0.737,0.39-0.937,0.724c-0.2,0.335-0.299,0.953-0.299,1.854c0,1.622-0.078,3.431-0.233,5.427
		c-0.103,1.3-0.459,2.466-1.066,3.495c-0.453,0.76-1.234,1.5-2.346,2.221c0.939,0.54,1.684,1.225,2.237,2.054
		c0.553,0.829,0.919,1.88,1.099,3.153c0.077,0.553,0.167,2.353,0.27,5.4c0.039,1.118,0.11,1.813,0.213,2.083
		c0.168,0.398,0.482,0.7,0.941,0.906c0.459,0.206,1.401,0.308,2.824,0.308v4.635h-1.026c-1.871,0-3.258-0.151-4.161-0.454
		c-0.903-0.303-1.639-0.747-2.206-1.332c-0.568-0.586-0.977-1.326-1.229-2.221c-0.252-0.895-0.377-2.437-0.377-4.625
		c0-2.446-0.132-4.097-0.396-4.953c-0.264-0.856-0.676-1.497-1.236-1.922C13.231,47.302,12.365,47.057,11.194,46.993z"/>
	<path fill="#C26A00" d="M34.696,26.117h5.427v18.848c0,3-0.238,5.105-0.715,6.315c-0.476,1.21-1.262,2.173-2.356,2.887
		c-1.094,0.715-2.408,1.072-3.94,1.072c-3.128,0-5.793-1.371-7.995-4.113v-2.041c0.862,0.979,5.497,0.026,6.102,0.361
		c0.605,0.335,1.191,0.502,1.757,0.502c0.579,0,1.011-0.244,1.294-0.734c0.283-0.489,0.425-1.564,0.425-3.225V26.117z"/>
	<path fill="#C26A00" d="M61.52,29.979l-4.005,3.534c-1.406-1.957-2.837-2.935-4.295-2.935c-0.709,0-1.29,0.19-1.741,0.57
		c-0.451,0.38-0.677,0.808-0.677,1.284c0,0.477,0.161,0.927,0.484,1.352c0.438,0.567,1.76,1.783,3.965,3.65
		c2.063,1.725,3.314,2.813,3.753,3.264c1.096,1.107,1.873,2.166,2.331,3.177c0.458,1.011,0.687,2.115,0.687,3.312
		c0,2.331-0.806,4.255-2.417,5.774c-1.611,1.519-3.712,2.279-6.302,2.279c-2.024,0-3.786-0.496-5.288-1.487
		c-1.501-0.991-2.787-2.549-3.857-4.673v-1.966l4.545-0.776c1.367,2.51,2.94,3.766,4.719,3.766c0.928,0,1.708-0.27,2.34-0.811
		c0.632-0.541,0.948-1.165,0.948-1.873c0-0.643-0.239-1.287-0.716-1.931c-0.477-0.643-1.528-1.628-3.153-2.955
		c-3.095-2.523-5.094-4.471-5.997-5.842c-0.903-1.371-1.354-2.739-1.354-4.104c0-1.97,0.751-3.66,2.253-5.069
		c1.501-1.41,3.354-2.115,5.559-2.115c1.418,0,2.768,0.328,4.051,0.985c1.029,0.527,3.007,0.404,4.173,1.627L61.52,29.979z"/>
	<path fill="#C26A00" d="M77.143,42.358v4.635c-1.146,0.065-1.992,0.293-2.539,0.686c-0.547,0.393-0.969,1.017-1.265,1.873
		c-0.296,0.856-0.444,2.295-0.444,4.316c0,2.549-0.113,4.287-0.338,5.214c-0.225,0.927-0.592,1.67-1.101,2.231
		c-0.509,0.56-1.255,1.02-2.24,1.381c-0.985,0.36-2.404,0.541-4.258,0.541h-1.024v-4.635c1.377,0,2.275-0.074,2.694-0.222
		c0.418-0.148,0.731-0.389,0.937-0.723c0.206-0.334,0.309-0.952,0.309-1.852c0-1.633,0.077-3.446,0.232-5.438
		c0.09-1.299,0.438-2.456,1.043-3.471c0.463-0.771,1.249-1.511,2.356-2.218c-0.94-0.541-1.687-1.226-2.24-2.057
		c-0.554-0.83-0.921-1.889-1.101-3.177c-0.077-0.541-0.167-2.337-0.27-5.388c-0.039-1.133-0.116-1.828-0.232-2.086
		c-0.167-0.412-0.48-0.718-0.937-0.917c-0.457-0.199-1.387-0.299-2.791-0.299v-4.635h1.024c1.867,0,3.247,0.155,4.142,0.463
		c0.895,0.309,1.629,0.757,2.202,1.342c0.573,0.586,0.985,1.326,1.236,2.221c0.251,0.895,0.377,2.437,0.377,4.625
		c0,2.446,0.132,4.094,0.396,4.944c0.264,0.85,0.673,1.487,1.226,1.912C75.09,42.049,75.959,42.294,77.143,42.358z"/>
</g>
<g>
	<path fill="#FFC211" d="M11.194,45.015v-4.635c1.146-0.051,1.992-0.277,2.539-0.676c0.547-0.399,0.966-1.024,1.255-1.873
		s0.435-2.285,0.435-4.306c0-2.549,0.116-4.29,0.348-5.224c0.232-0.933,0.603-1.68,1.113-2.24c0.51-0.56,1.258-1.02,2.245-1.381
		c0.987-0.36,2.409-0.541,4.267-0.541h1.026v4.635c-1.378,0-2.279,0.074-2.704,0.222c-0.425,0.148-0.737,0.39-0.937,0.724
		c-0.2,0.335-0.299,0.953-0.299,1.854c0,1.622-0.078,3.431-0.233,5.427c-0.104,1.3-0.459,2.466-1.066,3.495
		c-0.453,0.76-1.234,1.5-2.346,2.221c0.939,0.54,1.684,1.225,2.237,2.054c0.553,0.829,0.919,1.88,1.099,3.153
		c0.077,0.553,0.167,2.353,0.27,5.4c0.039,1.118,0.11,1.813,0.213,2.083c0.168,0.398,0.482,0.7,0.941,0.906
		c0.459,0.205,1.401,0.308,2.824,0.308v4.635h-1.026c-1.871,0-3.258-0.151-4.161-0.454c-0.903-0.303-1.639-0.747-2.206-1.333
		c-0.568-0.586-0.977-1.326-1.229-2.221c-0.252-0.895-0.377-2.437-0.377-4.625c0-2.446-0.132-4.097-0.396-4.953
		c-0.264-0.856-0.676-1.497-1.236-1.922C13.231,45.324,12.365,45.08,11.194,45.015z"/>
	<path fill="#FFC211" d="M34.696,24.14h5.427v18.848c0,3-0.238,5.105-0.715,6.315c-0.477,1.21-1.262,2.173-2.356,2.887
		c-1.095,0.715-2.408,1.072-3.94,1.072c-3.128,0-5.793-1.371-7.995-4.113l3.901-3.65c0.862,0.979,1.596,1.635,2.202,1.97
		c0.605,0.335,1.191,0.502,1.757,0.502c0.579,0,1.01-0.244,1.294-0.734c0.283-0.489,0.425-1.564,0.425-3.225V24.14z"/>
	<path fill="#FFC211" d="M61.52,28.002l-4.005,3.534c-1.406-1.957-2.838-2.935-4.295-2.935c-0.71,0-1.29,0.19-1.741,0.57
		c-0.452,0.38-0.677,0.808-0.677,1.284c0,0.477,0.161,0.927,0.484,1.352c0.439,0.567,1.76,1.783,3.966,3.65
		c2.063,1.725,3.314,2.813,3.753,3.264c1.096,1.107,1.873,2.166,2.331,3.177c0.458,1.011,0.687,2.115,0.687,3.312
		c0,2.331-0.806,4.255-2.417,5.774c-1.611,1.519-3.712,2.279-6.302,2.279c-2.024,0-3.786-0.496-5.288-1.487
		c-1.502-0.991-2.787-2.549-3.857-4.673l4.545-2.742c1.367,2.511,2.94,3.766,4.719,3.766c0.929,0,1.709-0.27,2.341-0.811
		c0.632-0.541,0.948-1.165,0.948-1.873c0-0.643-0.239-1.287-0.716-1.931c-0.477-0.643-1.528-1.628-3.153-2.955
		c-3.095-2.523-5.094-4.471-5.997-5.842c-0.903-1.371-1.354-2.739-1.354-4.104c0-1.97,0.751-3.66,2.253-5.069
		c1.502-1.41,3.354-2.115,5.559-2.115c1.418,0,2.769,0.328,4.051,0.985S60.025,26.264,61.52,28.002z"/>
	<path fill="#FFC211" d="M77.143,40.381v4.635c-1.146,0.064-1.992,0.293-2.539,0.686c-0.547,0.393-0.969,1.017-1.265,1.873
		c-0.296,0.856-0.444,2.295-0.444,4.316c0,2.549-0.113,4.287-0.338,5.214c-0.225,0.927-0.592,1.67-1.101,2.23
		c-0.509,0.56-1.255,1.02-2.24,1.381c-0.985,0.36-2.404,0.541-4.258,0.541h-1.024v-4.635c1.377,0,2.276-0.074,2.694-0.222
		c0.418-0.148,0.73-0.389,0.937-0.723c0.206-0.334,0.309-0.952,0.309-1.852c0-1.633,0.077-3.446,0.232-5.438
		c0.09-1.299,0.438-2.456,1.043-3.471c0.463-0.771,1.249-1.511,2.356-2.218c-0.94-0.541-1.687-1.226-2.24-2.057
		c-0.554-0.83-0.921-1.889-1.101-3.177c-0.077-0.541-0.168-2.337-0.27-5.388c-0.039-1.133-0.116-1.828-0.232-2.086
		c-0.168-0.412-0.48-0.718-0.937-0.917c-0.457-0.199-1.387-0.299-2.791-0.299V24.14h1.024c1.867,0,3.247,0.154,4.142,0.463
		c0.895,0.309,1.629,0.757,2.202,1.342c0.573,0.586,0.985,1.326,1.236,2.221c0.251,0.895,0.377,2.437,0.377,4.625
		c0,2.446,0.132,4.094,0.396,4.944c0.264,0.85,0.672,1.487,1.226,1.912C75.09,40.072,75.959,40.317,77.143,40.381z"/>
</g>
<g opacity="0.2">
	<path fill="#FFFFFF" d="M11.194,45.015v-4.635c1.146-0.051,1.992-0.277,2.539-0.676c0.547-0.399,0.966-1.024,1.255-1.873
		s0.435-2.285,0.435-4.306c0-2.549,0.116-4.29,0.348-5.224c0.232-0.933,0.603-1.68,1.113-2.24c0.51-0.56,1.258-1.02,2.245-1.381
		c0.987-0.36,2.409-0.541,4.267-0.541h1.026v4.635c-1.378,0-2.279,0.074-2.704,0.222c-0.425,0.148-0.737,0.39-0.937,0.724
		c-0.2,0.335-0.299,0.953-0.299,1.854c0,1.622-0.078,3.431-0.233,5.427c-0.104,1.3-0.459,2.466-1.066,3.495
		c-0.453,0.76-1.234,1.5-2.346,2.221c0.939,0.54,1.684,1.225,2.237,2.054c0.553,0.829,0.919,1.88,1.099,3.153
		c0.077,0.553,0.167,2.353,0.27,5.4c0.039,1.118,0.11,1.813,0.213,2.083c0.168,0.398,0.482,0.7,0.941,0.906
		c0.459,0.205,1.401,0.308,2.824,0.308v4.635h-1.026c-1.871,0-3.258-0.151-4.161-0.454c-0.903-0.303-1.639-0.747-2.206-1.333
		c-0.568-0.586-0.977-1.326-1.229-2.221c-0.252-0.895-0.377-2.437-0.377-4.625c0-2.446-0.132-4.097-0.396-4.953
		c-0.264-0.856-0.676-1.497-1.236-1.922C13.231,45.324,12.365,45.08,11.194,45.015z"/>
	<path fill="#FFFFFF" d="M34.696,24.14h5.427v18.848c0,3-0.238,5.105-0.715,6.315c-0.477,1.21-1.262,2.173-2.356,2.887
		c-1.095,0.715-2.408,1.072-3.94,1.072c-3.128,0-5.793-1.371-7.995-4.113l3.901-3.65c0.862,0.979,1.596,1.635,2.202,1.97
		c0.605,0.335,1.191,0.502,1.757,0.502c0.579,0,1.01-0.244,1.294-0.734c0.283-0.489,0.425-1.564,0.425-3.225V24.14z"/>
	<path fill="#FFFFFF" d="M61.52,28.002l-4.005,3.534c-1.406-1.957-2.838-2.935-4.295-2.935c-0.71,0-1.29,0.19-1.741,0.57
		c-0.452,0.38-0.677,0.808-0.677,1.284c0,0.477,0.161,0.927,0.484,1.352c0.439,0.567,1.76,1.783,3.966,3.65
		c2.063,1.725,3.314,2.813,3.753,3.264c1.096,1.107,1.873,2.166,2.331,3.177c0.458,1.011,0.687,2.115,0.687,3.312
		c0,2.331-0.806,4.255-2.417,5.774c-1.611,1.519-3.712,2.279-6.302,2.279c-2.024,0-3.786-0.496-5.288-1.487
		c-1.502-0.991-2.787-2.549-3.857-4.673l4.545-2.742c1.367,2.511,2.94,3.766,4.719,3.766c0.929,0,1.709-0.27,2.341-0.811
		c0.632-0.541,0.948-1.165,0.948-1.873c0-0.643-0.239-1.287-0.716-1.931c-0.477-0.643-1.528-1.628-3.153-2.955
		c-3.095-2.523-5.094-4.471-5.997-5.842c-0.903-1.371-1.354-2.739-1.354-4.104c0-1.97,0.751-3.66,2.253-5.069
		c1.502-1.41,3.354-2.115,5.559-2.115c1.418,0,2.769,0.328,4.051,0.985S60.025,26.264,61.52,28.002z"/>
	<path fill="#FFFFFF" d="M77.143,40.381v4.635c-1.146,0.064-1.992,0.293-2.539,0.686c-0.547,0.393-0.969,1.017-1.265,1.873
		c-0.296,0.856-0.444,2.295-0.444,4.316c0,2.549-0.113,4.287-0.338,5.214c-0.225,0.927-0.592,1.67-1.101,2.23
		c-0.509,0.56-1.255,1.02-2.24,1.381c-0.985,0.36-2.404,0.541-4.258,0.541h-1.024v-4.635c1.377,0,2.276-0.074,2.694-0.222
		c0.418-0.148,0.73-0.389,0.937-0.723c0.206-0.334,0.309-0.952,0.309-1.852c0-1.633,0.077-3.446,0.232-5.438
		c0.09-1.299,0.438-2.456,1.043-3.471c0.463-0.771,1.249-1.511,2.356-2.218c-0.94-0.541-1.687-1.226-2.24-2.057
		c-0.554-0.83-0.921-1.889-1.101-3.177c-0.077-0.541-0.168-2.337-0.27-5.388c-0.039-1.133-0.116-1.828-0.232-2.086
		c-0.168-0.412-0.48-0.718-0.937-0.917c-0.457-0.199-1.387-0.299-2.791-0.299V24.14h1.024c1.867,0,3.247,0.154,4.142,0.463
		c0.895,0.309,1.629,0.757,2.202,1.342c0.573,0.586,0.985,1.326,1.236,2.221c0.251,0.895,0.377,2.437,0.377,4.625
		c0,2.446,0.132,4.094,0.396,4.944c0.264,0.85,0.672,1.487,1.226,1.912C75.09,40.072,75.959,40.317,77.143,40.381z"/>
</g>
<path fill="none" d="M72.247,13.769L8.229,60.882c2.24,4.334,5.245,8.209,8.837,11.446l62.606-48.537
	C77.724,20.07,75.212,16.691,72.247,13.769z"/>
<path fill="none" d="M44,84.452c-23.171,0-42.022-18.851-42.022-42.022S20.829,0.407,44,0.407s42.022,18.851,42.022,42.022
	S67.171,84.452,44,84.452z"/>
<path fill="#FFFFFF" d="M44,84.452c-23.171,0-42.022-18.851-42.022-42.022S20.829,0.407,44,0.407s42.022,18.851,42.022,42.022
	S67.171,84.452,44,84.452z M44,3.966c-21.209,0-38.463,17.255-38.463,38.463c0,21.208,17.254,38.463,38.463,38.463
	s38.463-17.255,38.463-38.463C82.463,21.221,65.209,3.966,44,3.966z"/>
</svg>
