<?xml version="1.0" encoding="utf-8"?>
<!-- Generator: Adobe Illustrator 17.0.0, SVG Export Plug-In . SVG Version: 6.00 Build 0)  -->
<!DOCTYPE svg PUBLIC "-//W3C//DTD SVG 1.1//EN" "http://www.w3.org/Graphics/SVG/1.1/DTD/svg11.dtd">
<svg version="1.1" id="Layer_2" xmlns="http://www.w3.org/2000/svg" xmlns:xlink="http://www.w3.org/1999/xlink" x="0px" y="0px"
	 width="88px" height="90px" viewBox="0 0 88 90" enable-background="new 0 0 88 90" xml:space="preserve">
<path fill="#FFFFFF" d="M44,84.452c-23.171,0-42.022-18.851-42.022-42.022S20.829,0.407,44,0.407s42.022,18.851,42.022,42.022
	S67.171,84.452,44,84.452z"/>
<path fill="#DCDCDC" d="M44,89.593c-24.262,0-44-19.738-44-44c0-24.262,19.738-44,44-44c24.262,0,44,19.738,44,44
	C88,69.855,68.262,89.593,44,89.593z"/>
<circle fill="#FF9F00" cx="44" cy="42.429" r="40.243"/>
<path opacity="0.2" fill="#1E0E00" d="M63.486,48.541c0.364-0.128,0.635-0.338,0.814-0.628c0.179-0.29,0.268-0.827,0.268-1.609
	c0-1.419,0.067-2.995,0.201-4.727c0.078-1.129,0.38-2.134,0.906-3.017c0.403-0.67,1.085-1.313,2.048-1.927
	c-0.817-0.47-1.466-1.066-1.947-1.788c-0.481-0.721-0.8-1.642-0.957-2.761c-0.067-0.47-0.146-2.031-0.235-4.683
	c-0.034-0.984-0.101-1.589-0.201-1.813c-0.146-0.358-0.417-0.623-0.814-0.797c-0.397-0.173-1.206-0.26-2.425-0.26v-4.028h0.889
	c0.488,0,0.934,0.014,1.346,0.038l-1.891-1.891l-4.157,4.157l-3.813-3.813l-6.709,6.709l3.813,3.813l-2.389,2.389
	c-0.895-0.867-1.543-1.605-1.943-2.212c-0.785-1.192-1.177-2.38-1.177-3.567c0-1.712,0.653-3.181,1.958-4.406
	c0.708-0.664,1.508-1.142,2.396-1.447l-2.549-0.01L35.732,31.45V20.502h1.872l-1.853-1.853L15.72,38.681
	c-0.134-0.014-0.271-0.026-0.415-0.034v-4.028c0.996-0.045,1.731-0.241,2.207-0.587c0.475-0.347,0.839-0.89,1.091-1.628
	c0.252-0.739,0.378-1.986,0.378-3.743c0-2.215,0.101-3.729,0.303-4.54c0.202-0.811,0.524-1.46,0.967-1.947
	c0.373-0.41,0.902-0.754,1.57-1.042l-1.032-1.032L4.162,36.725c-0.264,1.864-0.404,3.767-0.404,5.704
	c0,14.675,7.857,27.514,19.592,34.545l1.968-1.968l5.43,5.43c1.876,0.654,3.814,1.173,5.804,1.545l0.242-0.242l0.364,0.351
	c2.224,0.381,4.51,0.582,6.842,0.582c0.49,0,0.977-0.012,1.463-0.029l8.536-8.862l-4.71-4.537l17.383-17.383
	c-0.281,0.157-0.587,0.303-0.937,0.431c-0.856,0.313-2.09,0.47-3.701,0.47h-0.889v-4.028C62.341,48.734,63.122,48.67,63.486,48.541z
	"/>
<g>
	<path fill="#C26A00" d="M15.305,38.646v-4.028c0.996-0.045,1.731-0.241,2.207-0.587c0.475-0.347,0.839-0.89,1.091-1.628
		c0.252-0.738,0.378-1.986,0.378-3.743c0-2.215,0.101-3.729,0.303-4.54c0.202-0.811,0.524-1.46,0.967-1.947
		c0.443-0.487,1.093-0.886,1.951-1.2c0.858-0.313,2.094-0.47,3.709-0.47h0.891v4.028c-1.198,0-1.981,0.065-2.35,0.193
		c-0.369,0.129-0.641,0.339-0.814,0.63c-0.174,0.291-0.26,0.828-0.26,1.611c0,1.41-0.067,2.982-0.202,4.717
		c-0.09,1.13-0.399,2.143-0.927,3.038c-0.393,0.66-1.073,1.304-2.039,1.93c0.816,0.469,1.464,1.064,1.944,1.785
		c0.48,0.721,0.799,1.634,0.955,2.74c0.067,0.48,0.145,2.045,0.235,4.694c0.034,0.972,0.096,1.575,0.186,1.81
		c0.146,0.346,0.419,0.609,0.818,0.788c0.399,0.178,1.217,0.268,2.454,0.268v4.028h-0.891c-1.626,0-2.832-0.132-3.617-0.394
		c-0.785-0.263-1.424-0.649-1.918-1.158c-0.493-0.509-0.849-1.152-1.068-1.93c-0.219-0.778-0.328-2.118-0.328-4.02
		c0-2.126-0.115-3.561-0.344-4.305c-0.229-0.744-0.587-1.301-1.074-1.67C17.076,38.915,16.323,38.703,15.305,38.646z"/>
	<path fill="#C26A00" d="M35.732,20.502h4.716v16.382c0,2.607-0.207,4.437-0.621,5.489c-0.414,1.052-1.097,1.888-2.048,2.509
		c-0.951,0.621-2.093,0.932-3.424,0.932c-2.719,0-5.035-1.192-6.949-3.575v-1.774c0.75,0.85,4.778,0.023,5.304,0.314
		c0.526,0.291,1.035,0.436,1.527,0.436c0.503,0,0.878-0.212,1.124-0.638c0.246-0.425,0.369-1.36,0.369-2.803V20.502z"/>
	<path fill="#C26A00" d="M59.046,23.859l-3.481,3.072c-1.222-1.701-2.466-2.551-3.733-2.551c-0.617,0-1.121,0.165-1.513,0.495
		c-0.392,0.33-0.589,0.702-0.589,1.116c0,0.414,0.14,0.805,0.421,1.175c0.381,0.492,1.53,1.55,3.447,3.172
		c1.793,1.499,2.881,2.445,3.262,2.837c0.952,0.962,1.628,1.883,2.026,2.761c0.398,0.879,0.597,1.838,0.597,2.879
		c0,2.025-0.7,3.698-2.101,5.019c-1.4,1.321-3.226,1.981-5.477,1.981c-1.759,0-3.291-0.431-4.596-1.293
		c-1.305-0.861-2.422-2.215-3.352-4.062V38.75l3.95-0.674c1.188,2.182,2.555,3.273,4.102,3.273c0.807,0,1.485-0.235,2.034-0.705
		c0.549-0.47,0.824-1.013,0.824-1.628c0-0.559-0.207-1.119-0.622-1.678c-0.415-0.559-1.328-1.416-2.741-2.568
		c-2.69-2.193-4.428-3.886-5.213-5.077c-0.785-1.192-1.177-2.38-1.177-3.567c0-1.712,0.653-3.181,1.958-4.406
		c1.305-1.226,2.915-1.838,4.831-1.838c1.232,0,2.406,0.285,3.521,0.856c0.894,0.458,2.613,0.351,3.627,1.414L59.046,23.859z"/>
	<path fill="#C26A00" d="M72.625,34.618v4.028c-0.996,0.056-1.732,0.255-2.207,0.596c-0.476,0.341-0.842,0.884-1.099,1.628
		c-0.257,0.744-0.386,1.995-0.386,3.751c0,2.216-0.098,3.726-0.294,4.532c-0.196,0.806-0.515,1.452-0.957,1.939
		c-0.442,0.487-1.091,0.887-1.947,1.2c-0.856,0.313-2.09,0.47-3.701,0.47h-0.889v-4.028c1.197,0,1.978-0.064,2.341-0.193
		c0.364-0.128,0.635-0.338,0.814-0.628c0.179-0.29,0.268-0.827,0.268-1.609c0-1.419,0.067-2.995,0.201-4.727
		c0.078-1.129,0.38-2.134,0.906-3.017c0.403-0.67,1.085-1.313,2.048-1.927c-0.817-0.47-1.466-1.066-1.947-1.788
		c-0.481-0.721-0.8-1.642-0.957-2.761c-0.067-0.47-0.146-2.031-0.235-4.683c-0.034-0.984-0.101-1.589-0.201-1.813
		c-0.146-0.358-0.417-0.623-0.814-0.797c-0.397-0.173-1.206-0.26-2.425-0.26v-4.028h0.889c1.622,0,2.823,0.134,3.6,0.403
		c0.778,0.268,1.416,0.657,1.914,1.166c0.498,0.509,0.856,1.153,1.074,1.93c0.218,0.778,0.327,2.118,0.327,4.02
		c0,2.126,0.115,3.558,0.344,4.297c0.229,0.738,0.585,1.292,1.066,1.662C70.84,34.35,71.595,34.562,72.625,34.618z"/>
</g>
<g>
	<path fill="#FFC211" d="M15.305,36.928v-4.028c0.996-0.045,1.731-0.241,2.208-0.587c0.475-0.347,0.839-0.89,1.091-1.628
		c0.252-0.738,0.378-1.986,0.378-3.743c0-2.216,0.101-3.729,0.302-4.541c0.202-0.811,0.524-1.46,0.968-1.947
		c0.442-0.487,1.093-0.887,1.951-1.2c0.857-0.313,2.094-0.47,3.709-0.47h0.892v4.028c-1.197,0-1.98,0.064-2.35,0.193
		c-0.369,0.128-0.641,0.338-0.814,0.629s-0.26,0.828-0.26,1.611c0,1.41-0.067,2.982-0.202,4.716
		c-0.091,1.13-0.399,2.143-0.927,3.038c-0.394,0.66-1.073,1.304-2.039,1.93c0.815,0.47,1.464,1.064,1.944,1.785
		s0.799,1.634,0.955,2.74c0.067,0.48,0.146,2.045,0.234,4.693c0.034,0.972,0.096,1.575,0.186,1.811
		c0.146,0.346,0.419,0.608,0.818,0.788c0.398,0.179,1.217,0.268,2.454,0.268v4.028h-0.892c-1.626,0-2.832-0.131-3.616-0.395
		c-0.785-0.263-1.425-0.649-1.918-1.158s-0.85-1.152-1.068-1.93s-0.327-2.118-0.327-4.02c0-2.126-0.115-3.561-0.345-4.306
		c-0.229-0.744-0.587-1.301-1.074-1.67C17.077,37.196,16.324,36.984,15.305,36.928z"/>
	<path fill="#FFC211" d="M35.732,18.783h4.717v16.382c0,2.607-0.207,4.437-0.621,5.489s-1.097,1.888-2.048,2.509
		s-2.093,0.932-3.424,0.932c-2.72,0-5.035-1.192-6.949-3.575l3.391-3.172c0.75,0.851,1.388,1.421,1.913,1.712
		c0.526,0.292,1.035,0.437,1.527,0.437c0.504,0,0.879-0.212,1.125-0.638s0.369-1.36,0.369-2.803V18.783z"/>
	<path fill="#FFC211" d="M59.046,22.14l-3.48,3.072c-1.222-1.701-2.466-2.551-3.733-2.551c-0.616,0-1.12,0.165-1.513,0.495
		s-0.589,0.702-0.589,1.116s0.141,0.806,0.421,1.175c0.381,0.493,1.529,1.55,3.446,3.172c1.793,1.5,2.881,2.445,3.262,2.836
		c0.953,0.963,1.628,1.883,2.026,2.761c0.397,0.878,0.597,1.838,0.597,2.878c0,2.026-0.7,3.699-2.101,5.019s-3.226,1.98-5.478,1.98
		c-1.759,0-3.29-0.431-4.596-1.292c-1.305-0.861-2.422-2.216-3.352-4.062l3.95-2.383c1.188,2.182,2.555,3.273,4.102,3.273
		c0.807,0,1.485-0.235,2.034-0.705c0.549-0.47,0.824-1.012,0.824-1.628c0-0.56-0.208-1.119-0.622-1.679
		c-0.415-0.559-1.329-1.415-2.741-2.568c-2.69-2.193-4.428-3.886-5.212-5.077c-0.785-1.192-1.177-2.381-1.177-3.567
		c0-1.712,0.652-3.181,1.957-4.406c1.306-1.226,2.916-1.838,4.832-1.838c1.232,0,2.405,0.286,3.521,0.856
		C56.54,19.589,57.747,20.63,59.046,22.14z"/>
	<path fill="#FFC211" d="M72.626,32.899v4.028c-0.996,0.056-1.731,0.254-2.207,0.596s-0.842,0.884-1.1,1.628
		c-0.257,0.745-0.386,1.995-0.386,3.751c0,2.216-0.098,3.727-0.294,4.532c-0.195,0.806-0.515,1.452-0.956,1.938
		c-0.442,0.487-1.092,0.887-1.947,1.2c-0.856,0.313-2.09,0.47-3.701,0.47h-0.89v-4.028c1.197,0,1.978-0.064,2.342-0.193
		c0.363-0.128,0.635-0.338,0.813-0.628s0.269-0.827,0.269-1.609c0-1.419,0.067-2.995,0.202-4.727
		c0.078-1.128,0.38-2.134,0.906-3.017c0.402-0.67,1.085-1.312,2.048-1.927c-0.817-0.47-1.467-1.066-1.947-1.788
		c-0.481-0.722-0.801-1.642-0.957-2.761c-0.067-0.47-0.146-2.031-0.235-4.683c-0.033-0.984-0.101-1.588-0.201-1.812
		c-0.146-0.358-0.417-0.624-0.813-0.797c-0.397-0.173-1.206-0.26-2.426-0.26v-4.028h0.89c1.622,0,2.822,0.134,3.601,0.403
		c0.777,0.269,1.415,0.658,1.913,1.167c0.498,0.509,0.856,1.153,1.074,1.931s0.327,2.118,0.327,4.02
		c0,2.126,0.115,3.559,0.345,4.297c0.229,0.739,0.584,1.292,1.065,1.662C70.84,32.631,71.596,32.843,72.626,32.899z"/>
</g>
<g opacity="0.2">
	<path fill="#FFFFFF" d="M15.305,36.928v-4.028c0.996-0.045,1.731-0.241,2.208-0.587c0.475-0.347,0.839-0.89,1.091-1.628
		c0.252-0.738,0.378-1.986,0.378-3.743c0-2.216,0.101-3.729,0.302-4.541c0.202-0.811,0.524-1.46,0.968-1.947
		c0.442-0.487,1.093-0.887,1.951-1.2c0.857-0.313,2.094-0.47,3.709-0.47h0.892v4.028c-1.197,0-1.98,0.064-2.35,0.193
		c-0.369,0.128-0.641,0.338-0.814,0.629s-0.26,0.828-0.26,1.611c0,1.41-0.067,2.982-0.202,4.716
		c-0.091,1.13-0.399,2.143-0.927,3.038c-0.394,0.66-1.073,1.304-2.039,1.93c0.815,0.47,1.464,1.064,1.944,1.785
		s0.799,1.634,0.955,2.74c0.067,0.48,0.146,2.045,0.234,4.693c0.034,0.972,0.096,1.575,0.186,1.811
		c0.146,0.346,0.419,0.608,0.818,0.788c0.398,0.179,1.217,0.268,2.454,0.268v4.028h-0.892c-1.626,0-2.832-0.131-3.616-0.395
		c-0.785-0.263-1.425-0.649-1.918-1.158s-0.85-1.152-1.068-1.93s-0.327-2.118-0.327-4.02c0-2.126-0.115-3.561-0.345-4.306
		c-0.229-0.744-0.587-1.301-1.074-1.67C17.077,37.196,16.324,36.984,15.305,36.928z"/>
	<path fill="#FFFFFF" d="M35.732,18.783h4.717v16.382c0,2.607-0.207,4.437-0.621,5.489s-1.097,1.888-2.048,2.509
		s-2.093,0.932-3.424,0.932c-2.72,0-5.035-1.192-6.949-3.575l3.391-3.172c0.75,0.851,1.388,1.421,1.913,1.712
		c0.526,0.292,1.035,0.437,1.527,0.437c0.504,0,0.879-0.212,1.125-0.638s0.369-1.36,0.369-2.803V18.783z"/>
	<path fill="#FFFFFF" d="M59.046,22.14l-3.48,3.072c-1.222-1.701-2.466-2.551-3.733-2.551c-0.616,0-1.12,0.165-1.513,0.495
		s-0.589,0.702-0.589,1.116s0.141,0.806,0.421,1.175c0.381,0.493,1.529,1.55,3.446,3.172c1.793,1.5,2.881,2.445,3.262,2.836
		c0.953,0.963,1.628,1.883,2.026,2.761c0.397,0.878,0.597,1.838,0.597,2.878c0,2.026-0.7,3.699-2.101,5.019s-3.226,1.98-5.478,1.98
		c-1.759,0-3.29-0.431-4.596-1.292c-1.305-0.861-2.422-2.216-3.352-4.062l3.95-2.383c1.188,2.182,2.555,3.273,4.102,3.273
		c0.807,0,1.485-0.235,2.034-0.705c0.549-0.47,0.824-1.012,0.824-1.628c0-0.56-0.208-1.119-0.622-1.679
		c-0.415-0.559-1.329-1.415-2.741-2.568c-2.69-2.193-4.428-3.886-5.212-5.077c-0.785-1.192-1.177-2.381-1.177-3.567
		c0-1.712,0.652-3.181,1.957-4.406c1.306-1.226,2.916-1.838,4.832-1.838c1.232,0,2.405,0.286,3.521,0.856
		C56.54,19.589,57.747,20.63,59.046,22.14z"/>
	<path fill="#FFFFFF" d="M72.626,32.899v4.028c-0.996,0.056-1.731,0.254-2.207,0.596s-0.842,0.884-1.1,1.628
		c-0.257,0.745-0.386,1.995-0.386,3.751c0,2.216-0.098,3.727-0.294,4.532c-0.195,0.806-0.515,1.452-0.956,1.938
		c-0.442,0.487-1.092,0.887-1.947,1.2c-0.856,0.313-2.09,0.47-3.701,0.47h-0.89v-4.028c1.197,0,1.978-0.064,2.342-0.193
		c0.363-0.128,0.635-0.338,0.813-0.628s0.269-0.827,0.269-1.609c0-1.419,0.067-2.995,0.202-4.727
		c0.078-1.128,0.38-2.134,0.906-3.017c0.402-0.67,1.085-1.312,2.048-1.927c-0.817-0.47-1.467-1.066-1.947-1.788
		c-0.481-0.722-0.801-1.642-0.957-2.761c-0.067-0.47-0.146-2.031-0.235-4.683c-0.033-0.984-0.101-1.588-0.201-1.812
		c-0.146-0.358-0.417-0.624-0.813-0.797c-0.397-0.173-1.206-0.26-2.426-0.26v-4.028h0.89c1.622,0,2.822,0.134,3.601,0.403
		c0.777,0.269,1.415,0.658,1.913,1.167c0.498,0.509,0.856,1.153,1.074,1.931s0.327,2.118,0.327,4.02
		c0,2.126,0.115,3.559,0.345,4.297c0.229,0.739,0.584,1.292,1.065,1.662C70.84,32.631,71.596,32.843,72.626,32.899z"/>
</g>
<path fill="none" d="M7.465,54.591l8.418,9.584L75.779,17.74c-2.251-2.894-4.889-5.471-7.835-7.656L7.465,54.591z"/>
<path fill="none" d="M44,84.452c-23.171,0-42.022-18.851-42.022-42.022S20.829,0.407,44,0.407s42.022,18.851,42.022,42.022
	S67.171,84.452,44,84.452z"/>
<path fill="#FFFFFF" d="M44,84.452c-23.171,0-42.022-18.851-42.022-42.022S20.829,0.407,44,0.407s42.022,18.851,42.022,42.022
	S67.171,84.452,44,84.452z M44,3.966c-21.209,0-38.463,17.255-38.463,38.463c0,21.208,17.254,38.463,38.463,38.463
	s38.463-17.255,38.463-38.463C82.463,21.221,65.209,3.966,44,3.966z"/>
<path fill="#C26A00" d="M52.755,61.297H40.969v-2.6c0-3.47-2.823-6.292-6.292-6.292c-3.47,0-6.292,2.823-6.292,6.292v2.663h1.95
	v-2.663c0-2.394,1.948-4.342,4.342-4.342c2.394,0,4.342,1.947,4.342,4.342v2.6h-1.837c-0.587,0-1.064,0.476-1.064,1.064v11.233
	c0,0.587,0.476,1.064,1.064,1.064h15.572c0.587,0,1.064-0.476,1.064-1.064V62.361C53.819,61.773,53.342,61.297,52.755,61.297z"/>
<path fill="#FFC211" d="M52.755,59.32H40.969v-2.6c0-3.47-2.823-6.292-6.292-6.292c-3.47,0-6.292,2.823-6.292,6.292v2.663h1.95
	v-2.663c0-2.394,1.948-4.342,4.342-4.342c2.394,0,4.342,1.947,4.342,4.342v2.6h-1.837c-0.587,0-1.064,0.476-1.064,1.064v11.233
	c0,0.587,0.476,1.064,1.064,1.064h15.572c0.587,0,1.064-0.476,1.064-1.064V60.384C53.819,59.796,53.342,59.32,52.755,59.32z"/>
<path opacity="0.4" fill="#FFFFFF" d="M46.328,64.782c0-0.844-0.684-1.529-1.529-1.529c-0.844,0-1.529,0.685-1.529,1.529
	c0,0.457,0.201,0.868,0.52,1.148l-0.438,3.22h2.894l-0.438-3.22C46.127,65.651,46.328,65.24,46.328,64.782z"/>
<path opacity="0.2" fill="#FFFFFF" d="M52.755,59.32H40.969v-2.6c0-3.47-2.823-6.292-6.292-6.292c-3.47,0-6.292,2.823-6.292,6.292
	v2.663h1.95v-2.663c0-2.394,1.948-4.342,4.342-4.342c2.394,0,4.342,1.947,4.342,4.342v2.6h-1.837c-0.587,0-1.064,0.476-1.064,1.064
	v11.233c0,0.587,0.476,1.064,1.064,1.064h15.572c0.587,0,1.064-0.476,1.064-1.064V60.384C53.819,59.796,53.342,59.32,52.755,59.32z"
	/>
<g opacity="0.2">
	<g>
		<path fill="#FFFFFF" d="M47.06,63.132c0.532,0.215,1.15,0.22,1.719,0.221c1.363,0.003,2.5-1.14,2.5-2.5
			c0-1.365-1.137-2.497-2.5-2.5c-0.166,0-0.332-0.003-0.498-0.01c0.635,0.029,0.333,0.059,0.108-0.032
			c-1.266-0.511-2.745,0.546-3.075,1.746c-0.177,0.645-0.086,1.349,0.252,1.926C45.924,62.594,46.427,62.876,47.06,63.132
			L47.06,63.132z"/>
	</g>
</g>
<g opacity="0.2">
	<g>
		<path fill="#FFFFFF" d="M51.284,63.484c0.551,0.046-0.594-0.12-0.135-0.009c0.248,0.081,0.139,0.033-0.326-0.144
			c-0.287-0.175-0.515-0.409-0.684-0.7c-0.182-0.315-0.274-0.655-0.276-1.019c0.099-0.55,0.117-0.704,0.055-0.462
			c0.194-0.721,0.237-0.496,0.066-0.238c0.501-0.756,0.092-0.142-0.138,0.058c-0.306,0.266,0.585-0.414,0.103-0.091
			c-0.104,0.07-0.214,0.13-0.324,0.187c-1.208,0.628-1.56,2.289-0.897,3.42c0.713,1.218,2.211,1.525,3.42,0.897
			c1.189-0.618,2.137-1.645,2.59-2.904c0.359-0.999-0.008-2.186-0.712-2.931c-0.732-0.774-1.732-0.98-2.744-1.064
			c-1.36-0.113-2.5,1.223-2.5,2.5C48.784,62.432,49.927,63.372,51.284,63.484L51.284,63.484z"/>
	</g>
</g>
<rect x="24.145" y="61.007" transform="matrix(0.801 -0.5987 0.5987 0.801 -29.2015 40.5098)" fill="none" width="44.366" height="6.337"/>
<path fill="#C26A00" d="M46.328,64.387c0-0.844-0.684-1.529-1.529-1.529c-0.844,0-1.529,0.685-1.529,1.529
	c0,0.457,0.201,0.868,0.52,1.148l-0.438,3.22h2.894l-0.438-3.22C46.127,65.255,46.328,64.844,46.328,64.387z"/>
</svg>
