<?xml version="1.0" encoding="utf-8"?>
<!-- Generator: Adobe Illustrator 17.0.0, SVG Export Plug-In . SVG Version: 6.00 Build 0)  -->
<!DOCTYPE svg PUBLIC "-//W3C//DTD SVG 1.1//EN" "http://www.w3.org/Graphics/SVG/1.1/DTD/svg11.dtd">
<svg version="1.1" id="Layer_2" xmlns="http://www.w3.org/2000/svg" xmlns:xlink="http://www.w3.org/1999/xlink" x="0px" y="0px"
	 width="88px" height="90px" viewBox="0 0 88 90" enable-background="new 0 0 88 90" xml:space="preserve">
<path fill="#FFFFFF" d="M43.995,84.452c-23.171,0-42.022-18.851-42.022-42.022S20.824,0.407,43.995,0.407
	s42.022,18.851,42.022,42.022S67.167,84.452,43.995,84.452z"/>
<path fill="#DCDCDC" d="M43.995,89.593c-24.262,0-44-19.738-44-44c0-24.262,19.738-44,44-44c24.262,0,44,19.738,44,44
	C87.995,69.855,68.257,89.593,43.995,89.593z"/>
<circle fill="#00736C" cx="43.995" cy="42.429" r="40.243"/>
<path opacity="0.2" fill="#1E0E00" d="M65.255,22.778l-2.086,2.086c-0.046-0.14-0.078-0.284-0.093-0.43
	c-0.558-0.051-1.113-0.156-1.644-0.302c-0.8-0.219-1.242-0.814-1.367-1.475c-0.116-0.011-0.233-0.023-0.348-0.037
	c-1.38-0.16-2.032-1.386-1.882-2.431c-0.152-0.12-0.28-0.26-0.39-0.411c-0.253,0.024-0.506,0.048-0.76,0.073
	c-0.898,0.092-1.516-0.482-1.786-1.216c-0.286-0.113-0.564-0.258-0.833-0.438c-0.217-0.009-0.434-0.049-0.641-0.131
	c-0.671-0.008-1.351-0.3-1.743-0.908c-0.13-0.2-0.254-0.404-0.379-0.606c-0.043-0.057-0.082-0.116-0.12-0.177
	c-0.043-0.067-0.083-0.138-0.121-0.209c-0.013-0.021-0.026-0.042-0.039-0.063c0.002-0.001,0.003-0.002,0.005-0.002
	c-0.014-0.027-0.026-0.054-0.039-0.081L31.585,35.424L17.158,20.997L4.775,33.38c-0.668,2.909-1.022,5.938-1.022,9.049
	c0,22.225,18.017,40.243,40.243,40.243c0.421,0,0.841-0.009,1.259-0.022l16.778-16.778l-7.227-7.227l13.211-13.211
	c-0.053-0.148-0.096-0.304-0.113-0.479c-0.004,0.007-0.002,0.014-0.007,0.021c-0.412-0.534-0.34-1.329-0.026-1.926
	c0.001-0.004,0.003-0.008,0.004-0.012c-0.839-0.608-0.933-1.624-0.523-2.416c-0.535-0.628-0.747-1.594-0.46-2.326
	c-0.062-0.019-0.124-0.037-0.186-0.058c-1.203-0.392-1.604-1.704-1.265-2.697c-0.044-0.07-0.083-0.142-0.119-0.216l6.241-6.241
	L65.255,22.778z"/>
<path fill="#FFFFFF" d="M43.995,84.452c-23.171,0-42.022-18.851-42.022-42.022S20.824,0.407,43.995,0.407
	s42.022,18.851,42.022,42.022S67.167,84.452,43.995,84.452z M43.995,3.966c-21.209,0-38.463,17.255-38.463,38.463
	c0,21.208,17.254,38.463,38.463,38.463s38.463-17.255,38.463-38.463C82.458,21.221,65.204,3.966,43.995,3.966z"/>
<path fill="#00785F" d="M61.399,63.301c0.891,2.011-0.017,4.364-2.029,5.255l-19.396,8.592c-2.011,0.891-4.364-0.017-5.255-2.028
	L14.528,29.541c-0.891-2.012,0.017-4.364,2.028-5.255l19.396-8.592c2.011-0.891,4.364,0.017,5.255,2.028L61.399,63.301z"/>
<path fill="#00A082" d="M60.665,61.645c0.891,2.011-0.017,4.365-2.028,5.255l-19.396,8.593c-2.011,0.891-4.364-0.017-5.255-2.029
	L13.795,27.885c-0.891-2.011,0.017-4.364,2.028-5.255l19.396-8.592c2.011-0.891,4.364,0.017,5.255,2.028L60.665,61.645z"/>
<rect x="24.995" y="21.667" transform="matrix(0.9143 -0.405 0.405 0.9143 -14.4041 18.5276)" fill="#00D6C3" width="23.175" height="43.273"/>
<rect x="20.613" y="22.594" transform="matrix(0.9143 -0.405 0.405 0.9143 -10.7733 15.9053)" opacity="0.1" fill="#1E0E00" width="23.175" height="21.636"/>
<circle fill="#00785F" cx="47.216" cy="67.307" r="2.806"/>
<circle fill="#00BB98" cx="46.776" cy="66.314" r="2.807"/>
<path fill="#00785F" d="M23.347,23.28c0.129,0.292,0.604,0.364,1.062,0.161l5.642-2.499c0.457-0.202,0.723-0.603,0.594-0.895l0,0
	c-0.129-0.292-0.604-0.364-1.061-0.161l-5.642,2.5C23.484,22.588,23.218,22.989,23.347,23.28L23.347,23.28z"/>
<path fill="#00785F" d="M24.735,21.124c0.121,0.274,0.442,0.398,0.717,0.277l2.387-1.057c0.274-0.121,0.398-0.442,0.277-0.716l0,0
	c-0.121-0.274-0.442-0.398-0.716-0.277l-2.387,1.057C24.738,20.529,24.614,20.85,24.735,21.124L24.735,21.124z"/>
<path fill="#AAECE3" d="M30.509,34.157c0.33,0.746-0.006,1.619-0.753,1.95l-4.143,1.835c-0.746,0.331-1.619-0.007-1.95-0.753
	l-1.836-4.144c-0.331-0.746,0.006-1.619,0.753-1.95l4.143-1.835c0.746-0.331,1.619,0.006,1.95,0.752L30.509,34.157z"/>
<path fill="#AAECE3" d="M35.74,45.965c0.33,0.746-0.006,1.619-0.753,1.95l-4.143,1.835c-0.746,0.331-1.619-0.007-1.95-0.752
	l-1.836-4.144c-0.331-0.747,0.006-1.619,0.753-1.95l4.143-1.836c0.746-0.331,1.619,0.006,1.95,0.753L35.74,45.965z"/>
<path fill="#AAECE3" d="M40.971,57.773c0.33,0.746-0.006,1.619-0.753,1.95l-4.143,1.836c-0.746,0.331-1.619-0.007-1.95-0.753
	l-1.836-4.144c-0.33-0.746,0.006-1.619,0.753-1.95l4.143-1.835c0.746-0.331,1.619,0.006,1.95,0.752L40.971,57.773z"/>
<path opacity="0.2" fill="#1E0E00" d="M64.606,38.966c0.002-0.022,0.003-0.046,0.005-0.068c0.04-0.417,0.062-0.839,0.062-1.266
	c0-0.237-0.007-0.473-0.019-0.707c-0.002-0.032-0.005-0.064-0.007-0.097c-0.013-0.206-0.028-0.411-0.05-0.614
	c-0.001-0.014-0.004-0.027-0.005-0.041c-0.05-0.456-0.124-0.905-0.22-1.346l3.705-2.741l0.024-1.21l-4.19-5.765l-4.396,2.069
	c0,0-0.001,0-0.001-0.001c-0.257-0.197-0.521-0.384-0.792-0.562c-0.012-0.008-0.024-0.015-0.036-0.023
	c-0.264-0.172-0.534-0.336-0.811-0.489c-0.007-0.004-0.013-0.008-0.02-0.012c-0.267-0.148-0.541-0.284-0.819-0.414
	c-0.049-0.022-0.098-0.044-0.148-0.066c-0.274-0.123-0.551-0.24-0.835-0.344c-0.002-0.001-0.004-0.002-0.006-0.003l-0.483-4.892
	h-8.124l-0.483,4.892c-0.189,0.07-0.377,0.144-0.562,0.222c-0.116,0.049-0.23,0.102-0.344,0.155
	c-0.071,0.032-0.143,0.063-0.213,0.096c-0.133,0.064-0.264,0.131-0.395,0.199c-0.048,0.025-0.096,0.048-0.143,0.073
	c-0.144,0.077-0.286,0.158-0.426,0.24c-0.031,0.018-0.062,0.035-0.093,0.053c-0.151,0.09-0.3,0.184-0.448,0.28
	c-0.017,0.011-0.035,0.022-0.052,0.034c-0.156,0.102-0.309,0.208-0.46,0.317c-0.008,0.005-0.015,0.01-0.023,0.016
	c-0.157,0.114-0.312,0.231-0.464,0.351c0,0-0.001,0.001-0.001,0.001c-0.155,0.122-0.306,0.248-0.455,0.378l-4.501-1.793
	l-3.734,6.075v1.14l3.844,2.496c-0.046,0.298-0.079,0.601-0.105,0.905c-0.006,0.068-0.011,0.137-0.016,0.205
	c-0.021,0.304-0.036,0.611-0.036,0.92c0,0.203,0.006,0.405,0.015,0.606c0.004,0.092,0.011,0.182,0.017,0.273
	c0.007,0.101,0.014,0.202,0.023,0.302c0.011,0.12,0.023,0.24,0.037,0.359c0.007,0.061,0.015,0.121,0.023,0.181
	c0.018,0.141,0.038,0.281,0.06,0.421l-3.547,1.437l-0.033,1.211l4.166,6.975l3.809-1.793c0.002,0.002,0.004,0.003,0.006,0.005
	c0.146,0.126,0.295,0.248,0.446,0.368c0.007,0.005,0.014,0.011,0.021,0.016c0.148,0.116,0.299,0.229,0.452,0.339
	c0.013,0.009,0.026,0.018,0.038,0.027c0.149,0.106,0.299,0.209,0.452,0.309c0.019,0.012,0.038,0.024,0.057,0.037
	c0.148,0.095,0.298,0.188,0.45,0.278c0.026,0.015,0.053,0.03,0.079,0.046c0.147,0.085,0.296,0.169,0.446,0.249
	c0.033,0.017,0.066,0.033,0.098,0.05c0.147,0.076,0.294,0.151,0.445,0.222c0.037,0.017,0.075,0.034,0.113,0.051
	c0.148,0.068,0.297,0.135,0.448,0.198c0.035,0.015,0.071,0.028,0.107,0.042c0.156,0.063,0.312,0.125,0.471,0.182
	c0.001,0,0.002,0.001,0.003,0.001l0.406,4.11h8.124l0.406-4.11c0,0,0.001,0,0.001,0c0.664-0.239,1.302-0.531,1.912-0.87
	c0.023-0.013,0.045-0.026,0.068-0.039c0.177-0.1,0.351-0.203,0.523-0.311c0.029-0.018,0.058-0.037,0.087-0.056
	c0.165-0.105,0.328-0.214,0.488-0.326c0.029-0.02,0.057-0.041,0.085-0.061c0.161-0.115,0.32-0.234,0.476-0.355
	c0.023-0.019,0.047-0.037,0.07-0.055c0.162-0.129,0.321-0.261,0.477-0.397c0.015-0.013,0.03-0.025,0.044-0.038
	c0.169-0.149,0.334-0.301,0.495-0.458c0.001,0,0.001-0.001,0.002-0.002l3.926,1.564l3.734-7.216v-1.133L64.606,38.966z
	 M51.503,43.104c-3.022,0-5.473-2.45-5.473-5.473c0-3.022,2.45-5.473,5.473-5.473c3.023,0,5.473,2.45,5.473,5.473
	C56.976,40.654,54.526,43.104,51.503,43.104z"/>
<path fill="#7CB9B1" d="M67.902,35.906c0.002-0.022,0.003-0.046,0.005-0.068c0.04-0.417,0.062-0.839,0.062-1.266
	c0-0.237-0.007-0.473-0.019-0.707c-0.002-0.032-0.005-0.064-0.007-0.097c-0.013-0.206-0.028-0.411-0.05-0.614
	c-0.001-0.014-0.004-0.027-0.005-0.041c-0.05-0.456-0.124-0.905-0.22-1.346l3.705-2.741l0.024-1.21l-4.19-5.765l-4.396,2.069
	c0,0-0.001,0-0.001-0.001c-0.257-0.197-0.521-0.384-0.792-0.562c-0.012-0.008-0.024-0.015-0.036-0.023
	c-0.264-0.172-0.534-0.336-0.811-0.489c-0.007-0.004-0.013-0.008-0.02-0.012c-0.267-0.148-0.541-0.284-0.819-0.414
	c-0.049-0.022-0.098-0.044-0.148-0.066c-0.274-0.123-0.551-0.24-0.835-0.344c-0.002-0.001-0.004-0.002-0.006-0.003l-0.483-4.892
	h-8.124l-0.483,4.892c-0.189,0.07-0.377,0.144-0.562,0.222c-0.116,0.049-0.23,0.102-0.344,0.155
	c-0.071,0.032-0.143,0.063-0.213,0.096c-0.133,0.064-0.264,0.131-0.395,0.199c-0.048,0.025-0.096,0.048-0.143,0.073
	c-0.144,0.077-0.286,0.158-0.426,0.24c-0.031,0.018-0.062,0.035-0.093,0.053c-0.151,0.09-0.3,0.184-0.448,0.28
	c-0.017,0.011-0.035,0.022-0.052,0.034c-0.156,0.102-0.309,0.208-0.46,0.317c-0.008,0.005-0.015,0.01-0.023,0.016
	c-0.157,0.114-0.312,0.231-0.464,0.351c0,0-0.001,0.001-0.001,0.001c-0.155,0.122-0.306,0.248-0.455,0.378l-4.501-1.793
	l-3.734,6.075v1.14l3.844,2.496c-0.046,0.298-0.079,0.601-0.105,0.905c-0.006,0.068-0.011,0.137-0.016,0.205
	c-0.021,0.304-0.036,0.611-0.036,0.92c0,0.203,0.006,0.405,0.015,0.606c0.004,0.092,0.011,0.182,0.017,0.273
	c0.007,0.101,0.014,0.202,0.023,0.302c0.011,0.12,0.023,0.24,0.037,0.359c0.007,0.061,0.015,0.121,0.023,0.181
	c0.018,0.141,0.038,0.281,0.06,0.421l-3.547,1.437l-0.033,1.211l4.166,6.975l3.809-1.793c0.002,0.002,0.004,0.003,0.006,0.005
	c0.146,0.126,0.295,0.248,0.446,0.368c0.007,0.005,0.014,0.011,0.021,0.016c0.148,0.116,0.299,0.229,0.452,0.34
	c0.013,0.009,0.025,0.018,0.038,0.027c0.149,0.106,0.299,0.209,0.452,0.309c0.019,0.012,0.038,0.024,0.057,0.037
	c0.148,0.095,0.298,0.188,0.45,0.278c0.026,0.015,0.053,0.03,0.079,0.046c0.147,0.085,0.296,0.169,0.446,0.249
	c0.033,0.017,0.066,0.033,0.098,0.05c0.147,0.076,0.294,0.151,0.445,0.222c0.037,0.017,0.075,0.034,0.113,0.051
	c0.148,0.068,0.297,0.135,0.448,0.198c0.035,0.015,0.071,0.028,0.107,0.042c0.156,0.063,0.312,0.125,0.471,0.182
	c0.001,0,0.002,0.001,0.003,0.001l0.406,4.11h8.124l0.406-4.11c0,0,0.001,0,0.001,0c0.664-0.239,1.302-0.531,1.912-0.87
	c0.023-0.013,0.045-0.026,0.068-0.039c0.177-0.1,0.351-0.203,0.523-0.311c0.029-0.018,0.058-0.037,0.087-0.056
	c0.165-0.105,0.328-0.214,0.488-0.326c0.029-0.02,0.057-0.041,0.085-0.061c0.161-0.115,0.32-0.234,0.476-0.355
	c0.023-0.019,0.047-0.037,0.07-0.055c0.162-0.129,0.321-0.261,0.477-0.397c0.015-0.013,0.03-0.025,0.044-0.038
	c0.169-0.149,0.334-0.301,0.495-0.458c0.001,0,0.001-0.001,0.002-0.002l3.926,1.564l3.734-7.216V37.21L67.902,35.906z
	 M54.799,40.044c-3.022,0-5.473-2.45-5.473-5.473c0-3.022,2.45-5.473,5.473-5.473c3.023,0,5.473,2.45,5.473,5.473
	C60.272,37.594,57.822,40.044,54.799,40.044z"/>
<path fill="#AAECE3" d="M67.902,34.719c0.002-0.022,0.003-0.046,0.005-0.068c0.04-0.417,0.062-0.839,0.062-1.266
	c0-0.237-0.007-0.473-0.019-0.707c-0.002-0.032-0.005-0.064-0.007-0.097c-0.013-0.206-0.028-0.411-0.05-0.614
	c-0.001-0.014-0.004-0.027-0.005-0.041c-0.05-0.456-0.124-0.905-0.22-1.346l3.705-2.741l-4.166-6.975l-4.396,2.069
	c0,0-0.001,0-0.001-0.001c-0.257-0.197-0.521-0.384-0.792-0.562c-0.012-0.008-0.024-0.015-0.036-0.023
	c-0.264-0.172-0.534-0.336-0.811-0.489c-0.007-0.004-0.013-0.008-0.02-0.012c-0.267-0.148-0.541-0.284-0.819-0.414
	c-0.049-0.022-0.098-0.044-0.148-0.066c-0.274-0.123-0.551-0.24-0.835-0.344c-0.002-0.001-0.004-0.002-0.006-0.003l-0.483-4.892
	h-8.124l-0.483,4.892c-0.189,0.07-0.377,0.144-0.562,0.222c-0.116,0.049-0.23,0.102-0.344,0.155
	c-0.071,0.032-0.143,0.063-0.213,0.096c-0.133,0.064-0.264,0.131-0.395,0.199c-0.048,0.025-0.096,0.048-0.143,0.073
	c-0.144,0.077-0.286,0.158-0.426,0.24c-0.031,0.018-0.062,0.035-0.093,0.053c-0.151,0.09-0.3,0.184-0.448,0.28
	c-0.017,0.011-0.035,0.022-0.052,0.034c-0.156,0.102-0.309,0.208-0.46,0.317c-0.008,0.005-0.015,0.01-0.023,0.016
	c-0.157,0.114-0.312,0.231-0.464,0.351c0,0-0.001,0.001-0.001,0.001c-0.155,0.122-0.306,0.248-0.455,0.378l-4.501-1.793
	l-3.734,7.215l3.844,2.496c-0.046,0.298-0.079,0.601-0.105,0.905c-0.006,0.068-0.011,0.137-0.016,0.205
	c-0.021,0.304-0.036,0.611-0.036,0.92c0,0.203,0.006,0.405,0.015,0.606c0.004,0.092,0.011,0.182,0.017,0.273
	c0.007,0.101,0.014,0.202,0.023,0.302c0.011,0.12,0.023,0.24,0.037,0.359c0.007,0.061,0.015,0.121,0.023,0.181
	c0.018,0.141,0.038,0.281,0.06,0.421l-3.58,2.648l4.166,6.975l3.809-1.793c0.002,0.002,0.004,0.003,0.006,0.005
	c0.146,0.126,0.295,0.248,0.446,0.368c0.007,0.005,0.014,0.011,0.021,0.016c0.148,0.116,0.299,0.229,0.452,0.339
	c0.013,0.009,0.025,0.018,0.038,0.027c0.149,0.106,0.299,0.209,0.452,0.309c0.019,0.012,0.038,0.024,0.057,0.037
	c0.148,0.095,0.298,0.188,0.45,0.278c0.026,0.015,0.053,0.03,0.079,0.046c0.147,0.085,0.296,0.169,0.446,0.249
	c0.033,0.017,0.066,0.033,0.098,0.05c0.147,0.076,0.294,0.151,0.445,0.222c0.037,0.017,0.075,0.034,0.113,0.051
	c0.148,0.068,0.297,0.135,0.448,0.198c0.035,0.015,0.071,0.028,0.107,0.042c0.156,0.063,0.312,0.125,0.471,0.182
	c0.001,0,0.002,0.001,0.003,0.001l0.406,4.11h8.124l0.406-4.11c0,0,0.001,0,0.001,0c0.664-0.239,1.302-0.531,1.912-0.87
	c0.023-0.013,0.045-0.026,0.068-0.039c0.177-0.1,0.351-0.203,0.523-0.311c0.029-0.018,0.058-0.037,0.087-0.056
	c0.165-0.105,0.328-0.214,0.488-0.326c0.029-0.02,0.057-0.041,0.085-0.061c0.161-0.115,0.32-0.234,0.476-0.355
	c0.023-0.019,0.047-0.037,0.07-0.055c0.162-0.129,0.321-0.261,0.477-0.397c0.015-0.013,0.03-0.025,0.044-0.038
	c0.169-0.149,0.334-0.301,0.495-0.458c0.001,0,0.001-0.001,0.002-0.002l3.926,1.564l3.734-7.216L67.902,34.719z M54.799,38.858
	c-3.022,0-5.473-2.45-5.473-5.473s2.45-5.473,5.473-5.473c3.023,0,5.473,2.45,5.473,5.473S57.822,38.858,54.799,38.858z"/>
<rect x="30.968" y="30.911" transform="matrix(0.8649 -0.5019 0.5019 0.8649 -9.6675 31.6724)" opacity="0.4" fill="#FFFFFF" width="46.077" height="5.77"/>
<rect x="30.745" y="32.703" transform="matrix(0.8649 -0.5019 0.5019 0.8649 -9.6782 31.5549)" opacity="0.5" fill="#FFFFFF" width="46.076" height="2.109"/>
<path fill="none" d="M67.902,34.719c0.002-0.022,0.003-0.046,0.005-0.068c0.04-0.417,0.062-0.839,0.062-1.266
	c0-0.237-0.007-0.473-0.019-0.707c-0.002-0.032-0.005-0.064-0.007-0.097c-0.013-0.206-0.028-0.411-0.05-0.614
	c-0.001-0.014-0.004-0.027-0.005-0.041c-0.05-0.456-0.124-0.905-0.22-1.346l3.705-2.741l-4.166-6.975l-4.396,2.069
	c0,0-0.001,0-0.001-0.001c-0.257-0.197-0.521-0.384-0.792-0.562c-0.012-0.008-0.024-0.015-0.036-0.023
	c-0.264-0.172-0.534-0.336-0.811-0.489c-0.007-0.004-0.013-0.008-0.02-0.012c-0.267-0.148-0.541-0.284-0.819-0.414
	c-0.049-0.022-0.098-0.044-0.148-0.066c-0.274-0.123-0.551-0.24-0.835-0.344c-0.002-0.001-0.004-0.002-0.006-0.003l-0.483-4.892
	h-8.124l-0.483,4.892c-0.189,0.07-0.377,0.144-0.562,0.222c-0.116,0.049-0.23,0.102-0.344,0.155
	c-0.071,0.032-0.143,0.063-0.213,0.096c-0.133,0.064-0.264,0.131-0.395,0.199c-0.048,0.025-0.096,0.048-0.143,0.073
	c-0.144,0.077-0.286,0.158-0.426,0.24c-0.031,0.018-0.062,0.035-0.093,0.053c-0.151,0.09-0.3,0.184-0.448,0.28
	c-0.017,0.011-0.035,0.022-0.052,0.034c-0.156,0.102-0.309,0.208-0.46,0.317c-0.008,0.005-0.015,0.01-0.023,0.016
	c-0.157,0.114-0.312,0.231-0.464,0.351c0,0-0.001,0.001-0.001,0.001c-0.155,0.122-0.306,0.248-0.455,0.378l-4.501-1.793
	l-3.734,7.215l3.844,2.496c-0.046,0.298-0.079,0.601-0.105,0.905c-0.006,0.068-0.011,0.137-0.016,0.205
	c-0.021,0.304-0.036,0.611-0.036,0.92c0,0.203,0.006,0.405,0.015,0.606c0.004,0.092,0.011,0.182,0.017,0.273
	c0.007,0.101,0.014,0.202,0.023,0.302c0.011,0.12,0.023,0.24,0.037,0.359c0.007,0.061,0.015,0.121,0.023,0.181
	c0.018,0.141,0.038,0.281,0.06,0.421l-3.58,2.648l4.166,6.975l3.809-1.793c0.002,0.002,0.004,0.003,0.006,0.005
	c0.146,0.126,0.295,0.248,0.446,0.368c0.007,0.005,0.014,0.011,0.021,0.016c0.148,0.116,0.299,0.229,0.452,0.339
	c0.013,0.009,0.025,0.018,0.038,0.027c0.149,0.106,0.299,0.209,0.452,0.309c0.019,0.012,0.038,0.024,0.057,0.037
	c0.148,0.095,0.298,0.188,0.45,0.278c0.026,0.015,0.053,0.03,0.079,0.046c0.147,0.085,0.296,0.169,0.446,0.249
	c0.033,0.017,0.066,0.033,0.098,0.05c0.147,0.076,0.294,0.151,0.445,0.222c0.037,0.017,0.075,0.034,0.113,0.051
	c0.148,0.068,0.297,0.135,0.448,0.198c0.035,0.015,0.071,0.028,0.107,0.042c0.156,0.063,0.312,0.125,0.471,0.182
	c0.001,0,0.002,0.001,0.003,0.001l0.406,4.11h8.124l0.406-4.11c0,0,0.001,0,0.001,0c0.664-0.239,1.302-0.531,1.912-0.87
	c0.023-0.013,0.045-0.026,0.068-0.039c0.177-0.1,0.351-0.203,0.523-0.311c0.029-0.018,0.058-0.037,0.087-0.056
	c0.165-0.105,0.328-0.214,0.488-0.326c0.029-0.02,0.057-0.041,0.085-0.061c0.161-0.115,0.32-0.234,0.476-0.355
	c0.023-0.019,0.047-0.037,0.07-0.055c0.162-0.129,0.321-0.261,0.477-0.397c0.015-0.013,0.03-0.025,0.044-0.038
	c0.169-0.149,0.334-0.301,0.495-0.458c0.001,0,0.001-0.001,0.002-0.002l3.926,1.564l3.734-7.216L67.902,34.719z M54.799,38.858
	c-3.022,0-5.473-2.45-5.473-5.473s2.45-5.473,5.473-5.473c3.023,0,5.473,2.45,5.473,5.473S57.822,38.858,54.799,38.858z"/>
<path fill="none" d="M43.995,84.452c-23.171,0-42.022-18.851-42.022-42.022S20.824,0.407,43.995,0.407s42.022,18.851,42.022,42.022
	S67.167,84.452,43.995,84.452z"/>
</svg>
