<?xml version="1.0" encoding="utf-8"?>
<!-- Generator: Adobe Illustrator 17.0.0, SVG Export Plug-In . SVG Version: 6.00 Build 0)  -->
<!DOCTYPE svg PUBLIC "-//W3C//DTD SVG 1.1//EN" "http://www.w3.org/Graphics/SVG/1.1/DTD/svg11.dtd">
<svg version="1.1" id="Layer_2" xmlns="http://www.w3.org/2000/svg" xmlns:xlink="http://www.w3.org/1999/xlink" x="0px" y="0px"
	 width="88px" height="90px" viewBox="0 0 88 90" enable-background="new 0 0 88 90" xml:space="preserve">
<path fill="#FFFFFF" d="M44,84.452c-23.171,0-42.023-18.851-42.023-42.023S20.829,0.407,44,0.407S86.023,19.258,86.023,42.43
	S67.171,84.452,44,84.452z"/>
<path fill="#DADADA" d="M44,89.593c-24.262,0-44-19.738-44-44s19.738-44,44-44s44,19.738,44,44C88,69.855,68.262,89.593,44,89.593z"
	/>
<circle fill="#77AA2A" cx="44" cy="42.43" r="40.242"/>
<path opacity="0.2" fill="#231C03" enable-background="new    " d="M21.718,30.201v0.048l-0.097,0.056v0.048l-0.097,0.056v0.048
	l-0.097,0.056v0.048l-0.097,0.056v0.048l-0.097,0.056v0.048l-0.097,0.056v0.048l-0.097,0.056v0.048l-0.097,0.056v0.048l-0.097,0.056
	v0.048l-0.097,0.056v0.048l-0.097,0.056v0.048l-0.097,0.056v0.048l-0.097,0.056v0.048l-0.097,0.056v0.048l-0.097,0.056v0.048
	l-0.097,0.056v0.048l-0.097,0.056v0.048l-0.097,0.056v0.048l-0.097,0.056v0.048l-0.097,0.056v0.048l-0.097,0.056v0.048l-0.097,0.056
	v0.048l-0.097,0.056v0.048l-0.097,0.056v0.048l-0.097,0.056v0.048l-0.097,0.056v0.048L19.11,33.01v0.048L19,33.109v0.048
	l-0.097,0.056v0.048l-0.098,0.056v0.048l-0.097,0.056v0.048l-0.097,0.056v0.048l-0.097,0.056v0.048l-0.097,0.056v0.048l-0.097,0.056
	v0.048l-0.097,0.056v0.048l-0.097,0.056v0.048l-0.097,0.056v0.048l-0.097,0.056v0.045l-0.097,0.056v0.048l-0.097,0.056v0.048
	l-0.097,0.056v0.048l-0.097,0.056v0.048l-0.097,0.056v0.048l-0.097,0.056v0.048l-0.097,0.056v0.048l-0.097,0.056v0.048l-0.097,0.056
	v0.048l-0.097,0.056v0.048l-0.097,0.056v0.048l-0.097,0.056v0.048l-0.097,0.056v0.048l-0.097,0.056v0.048l-0.097,0.056v0.048
	l-0.097,0.056v0.048l-0.097,0.056v0.048l-0.097,0.056v0.048L16.1,36.227v0.048l-0.097,0.056v0.048l-0.097,0.056v0.048l-0.097,0.056
	v0.048l-0.097,0.056v0.048l-0.097,0.056v0.048l-0.097,0.056v0.048l-0.097,0.056v0.048l-0.097,0.056v0.048l-0.097,0.056v0.048
	l-0.097,0.056v0.048l-0.097,0.056v0.048l-0.097,0.056v0.048l-0.097,0.056v0.048l-0.097,0.056v0.048l-0.097,0.056v0.048l-0.097,0.056
	v0.048l-0.097,0.056v0.048L14.36,38.1v0.048l-0.119,0.049v0.048l-0.097,0.056v0.048l-0.097,0.056v0.048l-0.097,0.056v0.048
	l-0.097,0.056v0.048l-0.097,0.056v0.048l-0.097,0.056v0.048l-0.097,0.056v0.048l-0.097,0.056v0.048l-0.097,0.056v0.048l-0.097,0.056
	v0.048l-0.097,0.056v0.048l-0.097,0.056v0.048l-0.097,0.056v0.048l-0.097,0.056v0.048l-0.104,0.054v0.048l-0.097,0.056v0.048
	l-0.098,0.055v0.048l-0.097,0.056v0.048l-0.097,0.056v0.048l-0.098,0.056v0.048l-0.097,0.056v0.048l-0.097,0.056v0.048l-0.098,0.056
	v0.048l-0.097,0.056v0.048l-0.097,0.056v0.048l-0.097,0.056v0.048l-0.097,0.056v0.048l-0.097,0.056v0.048l-0.097,0.056v0.048
	l-0.1,0.055v0.048l-0.097,0.056v0.048l-0.097,0.055v0.048l-0.097,0.056v0.048l-0.097,0.056v0.048l-0.097,0.056v0.048l-0.097,0.056
	v0.048l-0.097,0.056v0.048l-0.097,0.056v0.048l-0.097,0.056v0.048l-0.097,0.056v0.048l-0.097,0.056v0.048l-0.097,0.056v0.048
	l-0.097,0.056v0.048l-0.097,0.056v0.048l-0.104,0.054v0.048l-0.097,0.056v0.048l-0.097,0.056v0.048l-0.097,0.056v0.048l-0.097,0.056
	v0.048l-0.097,0.056v0.048l-0.097,0.056v0.048l-0.097,0.056v0.048l-0.097,0.056v0.048l-0.097,0.056v0.048l-0.097,0.056v0.048
	l-0.097,0.056v0.048l-0.097,0.056v0.048l-0.097,0.056v0.048l-0.097,0.056v0.048l-0.097,0.056v0.048l-0.097,0.056v0.048l-0.104,0.054
	v0.048l-0.097,0.056v0.048l-0.097,0.056v0.048l-0.097,0.056v0.048l-0.097,0.056v0.048l-0.097,0.056v0.048l-0.097,0.056v0.048
	l-0.097,0.056v0.048l-0.097,0.056v0.048l-0.097,0.056v0.048l-0.097,0.056v0.048l-0.097,0.056v0.048l-0.097,0.056v0.048l-0.097,0.056
	v0.048l-0.097,0.056v0.048l-0.104,0.054v0.048l-0.097,0.056v0.048L6.572,46.4v0.048l-0.097,0.056v0.048l-0.097,0.056v0.048
	l-0.097,0.056v0.048l-0.097,0.056v0.048L6.088,46.92v0.048l-0.097,0.056v0.048l-0.097,0.056v0.048L5.794,47.23v0.048l-0.097,0.056
	v0.048l-0.098,0.056v0.048l-0.097,0.056v0.048l-0.097,0.056v0.048L5.308,47.75v0.048l-0.097,0.056v0.048l-0.097,0.056v0.048
	l-0.097,0.056v0.048l-0.097,0.056v0.048L4.825,48.27v0.048l-0.097,0.056v0.048l-0.097,0.056v0.048l-0.097,0.056v0.048l-0.097,0.056
	v0.048L4.342,48.79v0.048l-0.064,0.037c3.004,18.693,18.89,33.078,38.265,33.767v-0.013l0.097-0.056v-0.048l0.097-0.056v-0.048
	l0.097-0.056v-0.048l0.097-0.056v-0.048l0.097-0.056v-0.048l0.097-0.056v-0.048l0.097-0.056v-0.048l0.097-0.056v-0.048l0.097-0.056
	v-0.048l0.097-0.056v-0.048l0.097-0.056v-0.048l0.097-0.056v-0.048l0.097-0.056v-0.048l0.097-0.056v-0.048L44,81.119v-0.048
	l0.097-0.056v-0.048l0.097-0.056v-0.048l0.097-0.056v-0.048l0.097-0.056v-0.048l0.097-0.056v-0.048l0.097-0.056v-0.048l0.097-0.056
	v-0.048l0.097-0.056v-0.048l0.097-0.056v-0.048l0.097-0.056v-0.048l0.097-0.056v-0.048l0.097-0.056v-0.048l0.097-0.056v-0.048
	l0.097-0.056v-0.048l0.097-0.056v-0.048l0.097-0.056v-0.043l0.097-0.056v-0.048l0.097-0.056v-0.048l0.097-0.056v-0.048l0.097-0.056
	v-0.048l0.097-0.056v-0.048l0.097-0.056v-0.048l0.097-0.056v-0.048l0.097-0.056v-0.048l0.097-0.056v-0.048l0.097-0.056V78.37
	l0.097-0.056v-0.048l0.097-0.056v-0.048l0.097-0.056v-0.048l0.097-0.056v-0.048l0.097-0.056V77.85l0.097-0.056v-0.048l0.097-0.056
	v-0.048l0.097-0.056v-0.048l0.097-0.056v-0.048l0.097-0.056V77.33l0.097-0.056v-0.048l0.097-0.056v-0.048l0.097-0.056v-0.048
	l0.097-0.056v-0.048l0.097-0.056V76.81l0.097-0.056v-0.048l0.097-0.056v-0.048l0.097-0.056v-0.048l0.097-0.056v-0.048l0.097-0.056
	v-0.048l0.097-0.056v-0.048l0.097-0.056v-0.048l0.097-0.056v-0.048l0.097-0.056v-0.048l0.097-0.056v-0.048l0.097-0.056v-0.048
	l0.097-0.056v-0.048l0.097-0.056v-0.048l0.097-0.056v-0.048l0.097-0.056v-0.048l0.097-0.056v-0.048l0.097-0.056v-0.048l0.097-0.056
	v-0.048l0.097-0.056v-0.048l0.097-0.056v-0.048l0.097-0.056v-0.048l0.097-0.056v-0.048l0.097-0.056v-0.048l0.097-0.056v-0.048
	l0.097-0.056v-0.048l0.097-0.056v-0.048l0.097-0.056V74l0.097-0.056v-0.048l0.097-0.056v-0.048l0.097-0.056v-0.048l0.097-0.056
	v-0.048l0.097-0.056V73.48l0.097-0.056v-0.048l0.097-0.056v-0.048l0.097-0.056v-0.048l0.097-0.056v-0.048l0.097-0.056V72.96
	l0.097-0.056v-0.048l0.097-0.056v-0.048l0.097-0.056v-0.048l0.097-0.056v-0.048l0.097-0.056V72.44l0.097-0.056v-0.048l0.097-0.056
	v-0.048l0.097-0.056v-0.048l0.097-0.056v-0.033l0.097-0.056v-0.048l0.097-0.056V71.83l0.097-0.056v-0.048l0.097-0.056v-0.048
	l0.097-0.056v-0.048l0.097-0.056v-0.048l0.097-0.056V71.31l0.097-0.056v-0.048l0.097-0.056v-0.048l0.097-0.056v-0.048l0.097-0.056
	v-0.048l0.097-0.056V70.79l0.097-0.056v-0.048l0.097-0.056v-0.048l0.097-0.056v-0.048l0.097-0.056v-0.048l0.097-0.056v-0.048
	l0.097-0.056v-0.048l0.097-0.056v-0.048l0.097-0.056v-0.048l0.097-0.056v-0.048l0.097-0.056v-0.048l0.097-0.056v-0.048l0.097-0.056
	v-0.048l0.097-0.056v-0.048l0.097-0.056v-0.048l0.097-0.056v-0.048l0.097-0.056v-0.048l0.097-0.056v-0.048l0.097-0.056v-0.048
	l0.097-0.056v-0.048l0.097-0.056v-0.048l0.097-0.056v-0.048l0.097-0.056v-0.048l0.097-0.056v-0.048l0.097-0.056v-0.048l0.097-0.056
	v-0.048l0.097-0.056v-0.048l0.097-0.056V67.98l0.097-0.056v-0.048l0.097-0.056v-0.048l0.097-0.056v-0.048l0.097-0.056v-0.048
	l0.097-0.056V67.46l0.097-0.056v-0.048L56.85,67.3v-0.048l0.097-0.056v-0.048l0.097-0.056v-0.048l0.097-0.056V66.94l0.097-0.056
	v-0.048l0.097-0.056v-0.048l0.097-0.056v-0.048l0.097-0.056v-0.048l0.097-0.056V66.42l0.097-0.056v-0.048l0.097-0.056v-0.048
	l0.097-0.056v-0.048l0.097-0.056v-0.048l0.097-0.056v-0.048l0.097-0.056v-0.048l0.097-0.056v-0.048l0.097-0.056v-0.048l0.097-0.056
	v-0.048l0.097-0.056v-0.048l0.097-0.056v-0.048l0.097-0.056v-0.048l0.097-0.056v-0.048l0.097-0.056v-0.048l0.097-0.056v-0.048
	l0.097-0.056V64.77l0.097-0.056v-0.048l0.097-0.056v-0.048l0.097-0.056v-0.048l0.097-0.056v-0.048l0.097-0.056v-0.048l0.097-0.056
	v-0.048l0.097-0.056v-0.048l0.097-0.056v-0.048l0.097-0.056v-0.048l0.097-0.056v-0.048l0.097-0.056v-0.048l0.097-0.056v-0.048
	l0.097-0.056v-0.048l0.097-0.056v-0.048l0.097-0.056v-0.048l0.097-0.056v-0.048l0.097-0.056v-0.048l0.097-0.056v-0.048l0.097-0.056
	v-0.048l0.097-0.056v-0.048l0.097-0.056v-0.048l0.097-0.056V62.48l0.097-0.056v-0.048l0.097-0.056v-0.048l0.097-0.056v-0.048
	l0.097-0.056v-0.048l0.097-0.056V61.96l0.097-0.056v-0.048l0.097-0.056v-0.048l0.097-0.056v-0.048l0.097-0.056v-0.048l0.097-0.056
	V61.44l0.097-0.056v-0.048l0.097-0.056v-0.048l0.097-0.056v-0.048l0.097-0.056v-0.048l0.097-0.056V60.92l0.097-0.056v-0.048
	l0.097-0.056v-0.048l0.097-0.056v-0.048l0.097-0.056v-0.048l0.097-0.056v-0.048l0.097-0.056v-0.048l0.097-0.056v-0.048l0.097-0.056
	v-0.048l0.097-0.056v-0.048l0.097-0.056v-0.048l0.097-0.056v-0.048l0.097-0.056v-0.048L64,59.615v-0.048l0.097-0.056v-0.048
	l0.097-0.056v-0.048l0.097-0.056v-0.048l0.097-0.056v-0.048l0.097-0.056v-0.048l0.097-0.056v-0.048l0.097-0.056v-0.048l0.097-0.056
	v-0.048l0.097-0.056v-0.048l0.097-0.056v-0.048l0.097-0.056v-0.048l0.097-0.056v-0.048l0.097-0.056v-0.048l0.097-0.056V58.11
	l0.097-0.056v-0.048l0.097-0.056v-0.048l0.097-0.056v-0.048l0.097-0.056v-0.048l0.097-0.056V57.59l0.097-0.056v-0.033l0.097-0.056
	v-0.048l0.097-0.056v-0.048l0.097-0.056v-0.048l0.097-0.056v-0.048l0.097-0.056v-0.048l0.097-0.056v-0.048l0.097-0.056v-0.048
	l0.097-0.056v-0.048l0.097-0.056v-0.048l0.097-0.056V56.46l0.097-0.056V30.201L44.299,17.098L21.718,30.201z"/>
<path fill="none" d="M44,84.452c-23.171,0-42.023-18.851-42.023-42.023S20.829,0.407,44,0.407S86.023,19.258,86.023,42.43
	S67.171,84.452,44,84.452z"/>
<path fill="#FFFFFF" d="M44,84.452c-23.171,0-42.023-18.851-42.023-42.023S20.829,0.407,44,0.407S86.023,19.258,86.023,42.43
	S67.171,84.452,44,84.452z M44,3.967c-21.208,0-38.463,17.255-38.463,38.463S22.792,80.893,44,80.893S82.463,63.638,82.463,42.43
	S65.208,3.967,44,3.967z"/>
<polygon fill="#EBEAE9" points="24.928,54.553 24.928,32.053 44.383,20.82 44.383,17.166 21.763,30.226 21.763,56.38 44.383,69.44 
	44.383,65.786 "/>
<polygon fill="#FFFFFF" points="67.064,56.38 67.064,30.226 44.413,17.149 44.383,17.166 44.383,20.82 44.413,20.802 63.899,32.053 
	63.899,54.553 44.413,65.804 44.383,65.786 44.383,69.44 44.413,69.458 "/>
<polygon fill="#879C4D" points="23.344,31.14 44.413,18.975 65.48,31.14 65.48,55.466 44.413,67.631 23.344,55.466 "/>
<polyline fill="#6E9622" points="44.413,67.631 23.344,55.466 23.344,31.14 44.413,18.975 "/>
<polyline fill="#79A92B" points="44.413,18.975 65.48,31.14 65.48,55.466 44.413,67.631 "/>
<polygon fill="#FFFFFF" points="39.431,39.09 44.413,35.899 49.394,39.09 49.394,50.732 59.343,55.98 59.618,55.821 59.618,32.842 
	44.413,24.065 29.208,32.842 29.208,55.821 29.482,55.98 39.431,50.732 "/>
<polyline fill="#FAFFF3" points="44.413,24.065 29.208,32.842 29.208,55.821 29.482,55.98 39.431,50.732 39.431,39.09 
	44.413,35.899 "/>
</svg>
