<?xml version="1.0" encoding="utf-8"?>
<!-- Generator: Adobe Illustrator 17.0.0, SVG Export Plug-In . SVG Version: 6.00 Build 0)  -->
<!DOCTYPE svg PUBLIC "-//W3C//DTD SVG 1.1//EN" "http://www.w3.org/Graphics/SVG/1.1/DTD/svg11.dtd">
<svg version="1.1" id="Layer_3" xmlns="http://www.w3.org/2000/svg" xmlns:xlink="http://www.w3.org/1999/xlink" x="0px" y="0px"
	 width="88px" height="90px" viewBox="0 0 88 90" enable-background="new 0 0 88 90" xml:space="preserve">
<g>
	<g>
		<path fill="#FFFFFF" d="M44,84.045c-23.171,0-42.022-18.851-42.022-42.022S20.829,0,44,0s42.022,18.851,42.022,42.022
			S67.171,84.045,44,84.045z"/>
	</g>
	<g>
		<path fill="#DADADA" d="M44,89.186c-24.262,0-44-19.738-44-44c0-24.262,19.738-44,44-44c24.262,0,44,19.738,44,44
			C88,69.448,68.262,89.186,44,89.186z"/>
	</g>
	<g>
		<circle fill="#313131" cx="44" cy="42.022" r="40.243"/>
	</g>
	<path fill="#272727" d="M72.674,42.812c0.036,0.265,0.063,0.526,0.063,0.791c0,1.748-0.827,3.405-2.397,4.9
		c-0.087,0.091-0.174,0.178-0.265,0.269c-0.087,0.087-0.174,0.178-0.269,0.265c-0.087,0.091-0.174,0.178-0.265,0.269
		c-0.087,0.087-0.178,0.178-0.269,0.265c-0.087,0.091-0.174,0.182-0.269,0.269c-0.087,0.091-0.174,0.178-0.265,0.269
		c-0.087,0.087-0.174,0.178-0.269,0.265c-0.087,0.091-0.174,0.178-0.265,0.269c-0.091,0.087-0.178,0.178-0.269,0.265
		c-0.087,0.091-0.174,0.182-0.269,0.269c-0.087,0.091-0.174,0.178-0.265,0.269c-0.087,0.087-0.174,0.178-0.269,0.265
		c-0.087,0.091-0.174,0.182-0.269,0.269c-0.087,0.091-0.174,0.178-0.265,0.265c-0.087,0.091-0.174,0.182-0.269,0.269
		c-0.087,0.091-0.174,0.178-0.265,0.269c-0.087,0.087-0.174,0.178-0.269,0.265c-0.087,0.091-0.174,0.182-0.265,0.269
		c-0.091,0.091-0.178,0.178-0.269,0.269c-0.087,0.087-0.174,0.178-0.269,0.265c-0.087,0.091-0.174,0.178-0.265,0.269
		c-0.087,0.087-0.178,0.178-0.269,0.265c-0.087,0.091-0.174,0.182-0.269,0.269c-0.087,0.091-0.174,0.178-0.265,0.269
		c-0.087,0.087-0.174,0.178-0.269,0.265c-0.087,0.091-0.174,0.178-0.265,0.269c-0.087,0.087-0.178,0.178-0.269,0.265
		c-0.087,0.091-0.174,0.182-0.269,0.269c-0.087,0.091-0.174,0.178-0.265,0.269c-0.087,0.087-0.174,0.178-0.269,0.265
		c-0.087,0.091-0.174,0.182-0.265,0.269l-0.071,0.071c0.079,0.933,0.103,1.815,0.067,2.638c0.142,3.595-0.66,6.308-2.341,7.898
		c-0.083,0.095-0.174,0.182-0.265,0.269c-0.087,0.091-0.178,0.178-0.269,0.265c-0.087,0.095-0.174,0.182-0.265,0.269
		c-0.087,0.091-0.178,0.182-0.269,0.265c-0.087,0.095-0.178,0.182-0.269,0.269c-0.083,0.095-0.174,0.182-0.265,0.269
		c-0.087,0.091-0.178,0.178-0.269,0.265c-0.087,0.095-0.174,0.182-0.265,0.269c-0.087,0.091-0.178,0.182-0.269,0.269
		c-0.087,0.091-0.178,0.178-0.269,0.265c-0.083,0.095-0.174,0.182-0.265,0.269c-0.087,0.091-0.178,0.178-0.269,0.265
		c-0.087,0.095-0.174,0.182-0.265,0.269c-0.087,0.095-0.178,0.182-0.269,0.269c-0.087,0.091-0.178,0.178-0.269,0.265
		c-0.083,0.095-0.174,0.182-0.265,0.269c-0.087,0.091-0.178,0.182-0.269,0.265c-0.087,0.095-0.174,0.182-0.269,0.269
		c-0.083,0.095-0.174,0.182-0.265,0.269c-0.087,0.091-0.178,0.178-0.269,0.265c-0.083,0.095-0.174,0.182-0.265,0.269
		c-0.087,0.091-0.178,0.182-0.269,0.265c-0.087,0.095-0.178,0.182-0.269,0.269c-0.083,0.095-0.174,0.182-0.265,0.269
		c-0.087,0.091-0.178,0.178-0.269,0.265c-0.087,0.095-0.174,0.182-0.265,0.269c-0.087,0.091-0.178,0.182-0.269,0.269
		c-0.087,0.091-0.178,0.178-0.269,0.265c-0.083,0.095-0.174,0.182-0.265,0.269c-0.087,0.091-0.178,0.178-0.269,0.265
		c-0.087,0.095-0.174,0.182-0.265,0.269c-0.087,0.091-0.178,0.182-0.269,0.269c-0.087,0.091-0.178,0.178-0.269,0.265
		c-0.083,0.095-0.174,0.182-0.265,0.269c-0.087,0.091-0.178,0.182-0.269,0.265c-0.087,0.095-0.174,0.182-0.269,0.269
		c-0.083,0.095-0.174,0.182-0.265,0.269c-0.087,0.091-0.178,0.178-0.269,0.265c-0.083,0.095-0.174,0.182-0.265,0.269
		c-0.087,0.091-0.178,0.182-0.269,0.265c-0.087,0.095-0.174,0.182-0.269,0.269c-0.083,0.095-0.174,0.182-0.265,0.269
		c-0.087,0.091-0.178,0.178-0.269,0.265c-0.087,0.095-0.174,0.182-0.265,0.269c-0.087,0.091-0.178,0.182-0.269,0.269
		c-0.087,0.091-0.178,0.178-0.269,0.265c-0.083,0.095-0.174,0.182-0.265,0.269c-0.087,0.091-0.178,0.178-0.269,0.265
		c-0.087,0.095-0.174,0.182-0.265,0.269c-0.087,0.091-0.178,0.182-0.269,0.269c-0.087,0.091-0.178,0.178-0.269,0.265
		c-0.083,0.095-0.174,0.182-0.265,0.269c-0.087,0.091-0.178,0.182-0.269,0.265c-0.087,0.095-0.174,0.182-0.269,0.269
		c-0.083,0.095-0.174,0.182-0.265,0.269c-0.047,0.051-0.095,0.099-0.146,0.146c-0.285,0.004-0.573,0.008-0.858,0.008
		c-21.836,0-39.61-17.39-40.227-39.076c0.032-0.032,0.067-0.063,0.099-0.095c0.087-0.091,0.178-0.178,0.269-0.265
		c0.087-0.095,0.174-0.182,0.269-0.269c0.083-0.091,0.174-0.182,0.265-0.265c0.087-0.095,0.178-0.182,0.269-0.269
		c0.087-0.095,0.174-0.182,0.265-0.269c0.087-0.091,0.178-0.178,0.269-0.265c0.087-0.095,0.174-0.182,0.269-0.269
		c0.083-0.091,0.174-0.182,0.265-0.269c0.087-0.091,0.178-0.178,0.269-0.265c0.087-0.095,0.174-0.182,0.265-0.269
		c0.087-0.091,0.178-0.182,0.269-0.265c0.087-0.095,0.178-0.182,0.269-0.269c0.083-0.095,0.174-0.182,0.265-0.269
		c0.087-0.091,0.178-0.178,0.269-0.265c0.087-0.095,0.174-0.182,0.265-0.269c0.087-0.091,0.178-0.182,0.269-0.265
		c0.087-0.095,0.178-0.182,0.269-0.269c0.083-0.095,0.174-0.182,0.265-0.269c0.087-0.091,0.178-0.178,0.269-0.265
		c0.087-0.095,0.174-0.182,0.269-0.269c0.083-0.091,0.174-0.182,0.265-0.265c0.087-0.095,0.178-0.182,0.269-0.269
		c0.083-0.095,0.174-0.182,0.265-0.269c0.087-0.091,0.178-0.178,0.269-0.265c0.087-0.095,0.174-0.182,0.269-0.269
		c0.083-0.091,0.174-0.182,0.265-0.269c0.087-0.091,0.178-0.178,0.269-0.265c0.087-0.095,0.174-0.182,0.265-0.269
		c0.087-0.091,0.178-0.178,0.269-0.265c0.087-0.095,0.178-0.182,0.269-0.269c0.083-0.091,0.174-0.182,0.265-0.269
		c0.087-0.091,0.178-0.178,0.269-0.265c0.087-0.095,0.174-0.182,0.265-0.269c0.087-0.091,0.178-0.182,0.269-0.265
		c0.087-0.095,0.178-0.182,0.269-0.269c0.083-0.095,0.174-0.182,0.265-0.269c0.087-0.091,0.178-0.178,0.269-0.265
		c0.087-0.095,0.174-0.182,0.265-0.269c0.087-0.091,0.178-0.182,0.269-0.265c0.087-0.095,0.178-0.182,0.269-0.269
		c0.083-0.095,0.174-0.182,0.265-0.269c0.087-0.091,0.178-0.178,0.269-0.265c0.087-0.095,0.174-0.182,0.269-0.269
		c0.083-0.091,0.174-0.182,0.265-0.269c0.087-0.091,0.178-0.178,0.269-0.265c0.087-0.095,0.174-0.182,0.265-0.269
		c0.087-0.091,0.178-0.182,0.269-0.265c0.087-0.095,0.178-0.182,0.269-0.269c0.083-0.091,0.174-0.182,0.265-0.269
		c0.087-0.091,0.178-0.178,0.269-0.265c0.087-0.095,0.174-0.182,0.265-0.269c0.087-0.091,0.178-0.182,0.269-0.265
		c0.087-0.095,0.178-0.182,0.269-0.269c0.083-0.095,0.174-0.182,0.265-0.269c0.087-0.091,0.178-0.178,0.269-0.265
		c0.087-0.095,0.174-0.182,0.265-0.269c0.087-0.091,0.178-0.182,0.269-0.265c0.087-0.095,0.178-0.182,0.269-0.269
		c0.083-0.095,0.174-0.182,0.265-0.269c0.087-0.091,0.178-0.178,0.269-0.265c0.087-0.095,0.174-0.182,0.269-0.269
		c0.083-0.091,0.174-0.182,0.265-0.269c0.087-0.091,0.178-0.178,0.269-0.265c0.087-0.095,0.174-0.182,0.265-0.269
		c0.087-0.091,0.178-0.178,0.269-0.265c0.087-0.095,0.178-0.182,0.269-0.269c0.083-0.091,0.174-0.182,0.265-0.269
		c0.087-0.091,0.178-0.178,0.269-0.265c0.087-0.095,0.174-0.182,0.265-0.269c0.087-0.091,0.178-0.182,0.269-0.265
		c0.087-0.095,0.178-0.182,0.269-0.269c0.083-0.095,0.174-0.182,0.265-0.269c0.087-0.091,0.178-0.178,0.269-0.265
		c0.087-0.095,0.174-0.182,0.265-0.269c0.087-0.091,0.178-0.182,0.269-0.265c0.087-0.095,0.178-0.182,0.269-0.269
		c0.083-0.095,0.174-0.182,0.265-0.269c0.087-0.091,0.178-0.178,0.269-0.265c0.087-0.095,0.174-0.182,0.269-0.269
		c0.083-0.091,0.174-0.182,0.265-0.265c0.087-0.095,0.178-0.182,0.269-0.269c0.083-0.095,0.174-0.182,0.265-0.269
		c0.087-0.091,0.178-0.178,0.269-0.265c0.087-0.095,0.174-0.182,0.269-0.269c0.083-0.091,0.174-0.182,0.265-0.269
		c0.087-0.091,0.178-0.178,0.269-0.265c0.087-0.095,0.174-0.182,0.265-0.269c0.087-0.091,0.178-0.178,0.269-0.265
		c0.087-0.095,0.178-0.182,0.269-0.269c0.083-0.095,0.174-0.182,0.265-0.269c0.087-0.091,0.178-0.178,0.269-0.265
		c0.087-0.095,0.174-0.182,0.265-0.269c0.372-0.399,0.791-0.744,1.258-1.02c0.894-0.526,1.922-0.795,3.057-0.795
		c3.231,0,7.313,2.326,11.438,6.261c4.129-3.935,8.207-6.261,11.442-6.261c1.131,0,2.159,0.269,3.057,0.795
		c2.353,1.392,3.492,4.41,3.326,8.65c0.067,1.491-0.055,3.168-0.372,5.007c-0.075,0.455-0.166,0.922-0.269,1.392
		c0.842,0.253,1.661,0.522,2.436,0.815c5.731,2.179,8.891,5.264,8.891,8.685C72.738,42.29,72.71,42.551,72.674,42.812z"/>
	<g>
		<path fill="none" d="M44,82.647c-22.401,0-40.625-18.224-40.625-40.625C3.375,19.622,21.599,1.398,44,1.398
			s40.625,18.224,40.625,40.625C84.625,64.423,66.401,82.647,44,82.647z"/>
	</g>
	<g>
		<path fill="#FFFFFF" d="M44,84.045c-23.171,0-42.022-18.851-42.022-42.022S20.829,0,44,0s42.022,18.851,42.022,42.022
			S67.171,84.045,44,84.045z M44,3.56c-21.209,0-38.463,17.255-38.463,38.463c0,21.208,17.254,38.463,38.463,38.463
			s38.463-17.255,38.463-38.463C82.463,20.814,65.209,3.56,44,3.56z"/>
	</g>
	<g>
		<g>
			<path fill="#6CA3B9" d="M63.845,34.919c-0.88-0.334-1.812-0.642-2.782-0.925c0.249-0.978,0.458-1.937,0.618-2.865
				c1.039-6.045-0.011-10.332-2.958-12.073c-0.895-0.529-1.923-0.797-3.056-0.797c-3.234,0-7.313,2.327-11.441,6.261
				c-4.128-3.934-8.207-6.261-11.441-6.261c-1.133,0-2.161,0.268-3.056,0.797c-2.947,1.74-3.997,6.028-2.958,12.073
				c0.16,0.928,0.369,1.887,0.618,2.865c-0.97,0.283-1.901,0.591-2.782,0.925c-5.734,2.18-8.891,5.264-8.891,8.686
				c0,3.422,3.158,6.507,8.892,8.686c0.88,0.334,1.812,0.641,2.781,0.925c-0.249,0.979-0.458,1.937-0.618,2.865
				c-1.039,6.046,0.012,10.333,2.958,12.073c0.895,0.528,1.923,0.796,3.056,0.796c0,0,0,0,0,0c3.234,0,7.313-2.327,11.441-6.261
				c4.128,3.934,8.207,6.261,11.441,6.261c1.132,0,2.161-0.268,3.055-0.796c2.947-1.74,3.997-6.027,2.958-12.073
				c-0.16-0.928-0.369-1.886-0.618-2.865c0.97-0.283,1.901-0.59,2.781-0.925c5.734-2.179,8.892-5.264,8.892-8.686
				C72.736,40.182,69.579,37.098,63.845,34.919z M55.668,21.336c0.583,0,1.071,0.121,1.492,0.369
				c2.064,1.219,2.464,5.568,0.938,11.532c-2.29-0.507-4.75-0.884-7.32-1.122c-1.431-1.974-2.911-3.788-4.403-5.407
				C49.86,23.362,53.206,21.336,55.668,21.336z M32.694,47.151c0.441,0.818,0.902,1.635,1.383,2.448
				c0.432,0.731,0.872,1.447,1.32,2.149c-1.466-0.196-2.855-0.439-4.161-0.72C31.656,49.761,32.141,48.466,32.694,47.151z
				 M31.226,36.184c1.309-0.282,2.7-0.525,4.17-0.721c-0.448,0.701-0.889,1.417-1.32,2.148c-0.481,0.815-0.943,1.633-1.385,2.452
				C32.127,38.725,31.641,37.429,31.226,36.184z M34.32,43.606c0.732-1.475,1.535-2.957,2.405-4.43
				c0.842-1.425,1.727-2.799,2.637-4.113c1.56-0.109,3.182-0.169,4.864-0.169s3.304,0.061,4.864,0.169
				c0.911,1.313,1.795,2.687,2.637,4.113c0.87,1.474,1.673,2.956,2.405,4.43c-0.719,1.447-1.518,2.926-2.405,4.429
				c-0.842,1.426-1.727,2.799-2.637,4.112c-1.56,0.109-3.181,0.17-4.864,0.17s-3.304-0.061-4.864-0.17
				c-0.911-1.313-1.795-2.687-2.637-4.112C35.839,46.532,35.04,45.053,34.32,43.606z M54.377,49.599
				c0.48-0.813,0.941-1.63,1.383-2.448c0.553,1.315,1.038,2.61,1.458,3.877c-1.306,0.282-2.695,0.524-4.161,0.72
				C53.505,51.046,53.945,50.33,54.377,49.599z M55.762,40.063c-0.442-0.819-0.904-1.637-1.385-2.452
				c-0.432-0.731-0.872-1.447-1.32-2.148c1.47,0.196,2.862,0.44,4.17,0.721C56.812,37.429,56.326,38.725,55.762,40.063z
				 M46.72,31.861c-0.825-0.028-1.656-0.044-2.493-0.044c-0.838,0-1.669,0.016-2.494,0.044c0.824-1.042,1.658-2.026,2.494-2.943
				C45.062,29.835,45.896,30.819,46.72,31.861z M31.294,21.705c0.421-0.248,0.908-0.369,1.492-0.369
				c2.462,0,5.807,2.026,9.293,5.372c-1.492,1.619-2.972,3.432-4.403,5.407c-2.57,0.238-5.03,0.615-7.32,1.122
				C28.831,27.273,29.23,22.924,31.294,21.705z M28.246,50.277c-5.911-1.719-9.452-4.274-9.452-6.672s3.542-4.953,9.452-6.672
				c0.707,2.165,1.598,4.407,2.659,6.671C29.845,45.87,28.953,48.111,28.246,50.277z M32.786,65.873
				c-0.583,0-1.071-0.121-1.491-0.369c-1.717-1.014-2.274-4.342-1.49-8.902c0.146-0.849,0.338-1.728,0.566-2.626
				c2.286,0.506,4.741,0.882,7.306,1.119c1.431,1.975,2.91,3.788,4.403,5.406C38.593,63.847,35.247,65.873,32.786,65.873z
				 M41.733,55.349c0.825,0.028,1.656,0.044,2.494,0.044c0.837,0,1.669-0.016,2.493-0.044c-0.824,1.041-1.658,2.025-2.493,2.943
				C43.391,57.374,42.557,56.39,41.733,55.349z M57.159,65.504c-0.42,0.248-0.908,0.369-1.491,0.369
				c-2.462,0-5.807-2.026-9.293-5.372c1.492-1.618,2.972-3.432,4.403-5.406c2.565-0.237,5.019-0.613,7.306-1.119
				c0.228,0.898,0.42,1.777,0.566,2.626C59.433,61.162,58.876,64.49,57.159,65.504z M60.208,50.277
				c-0.707-2.166-1.599-4.407-2.66-6.673c1.061-2.265,1.952-4.506,2.659-6.672c5.911,1.719,9.452,4.274,9.452,6.672
				S66.118,48.558,60.208,50.277z"/>
		</g>
		<g>
			<circle fill="#6CA3B9" cx="44.227" cy="43.605" r="5.496"/>
		</g>
	</g>
	<g>
		<g>
			<path fill="#8ED6FB" d="M63.845,33.337c-0.88-0.334-1.812-0.642-2.782-0.925c0.249-0.978,0.458-1.937,0.618-2.865
				c1.039-6.045-0.011-10.332-2.958-12.073c-0.895-0.529-1.923-0.797-3.056-0.797c-3.234,0-7.313,2.327-11.441,6.261
				c-4.128-3.934-8.207-6.261-11.441-6.261c-1.133,0-2.161,0.268-3.056,0.797c-2.947,1.74-3.997,6.028-2.958,12.073
				c0.16,0.928,0.369,1.887,0.618,2.865c-0.97,0.283-1.901,0.591-2.782,0.925c-5.734,2.18-8.891,5.264-8.891,8.686
				c0,3.422,3.158,6.507,8.892,8.686c0.88,0.334,1.812,0.641,2.781,0.925c-0.249,0.979-0.458,1.937-0.618,2.865
				c-1.039,6.046,0.012,10.333,2.958,12.073c0.895,0.528,1.923,0.796,3.056,0.796c0,0,0,0,0,0c3.234,0,7.313-2.327,11.441-6.261
				c4.128,3.934,8.207,6.261,11.441,6.261c1.132,0,2.161-0.268,3.055-0.796c2.947-1.74,3.997-6.027,2.958-12.073
				c-0.16-0.928-0.369-1.886-0.618-2.865c0.97-0.283,1.901-0.59,2.781-0.925c5.734-2.179,8.892-5.264,8.892-8.686
				C72.736,38.6,69.579,35.516,63.845,33.337z M55.668,19.754c0.583,0,1.071,0.121,1.492,0.369
				c2.064,1.219,2.464,5.568,0.938,11.532c-2.29-0.507-4.75-0.884-7.32-1.122c-1.431-1.974-2.911-3.788-4.403-5.407
				C49.86,21.78,53.206,19.754,55.668,19.754z M32.694,45.569c0.441,0.818,0.902,1.635,1.383,2.448
				c0.432,0.731,0.872,1.447,1.32,2.149c-1.466-0.196-2.855-0.439-4.161-0.72C31.656,48.179,32.141,46.884,32.694,45.569z
				 M31.226,34.602c1.309-0.282,2.7-0.525,4.17-0.721c-0.448,0.701-0.889,1.417-1.32,2.148c-0.481,0.815-0.943,1.633-1.385,2.452
				C32.127,37.143,31.641,35.847,31.226,34.602z M34.32,42.024c0.732-1.475,1.535-2.957,2.405-4.43
				c0.842-1.425,1.727-2.799,2.637-4.113c1.56-0.109,3.182-0.169,4.864-0.169s3.304,0.061,4.864,0.169
				c0.911,1.313,1.795,2.687,2.637,4.113c0.87,1.474,1.673,2.956,2.405,4.43c-0.719,1.447-1.518,2.926-2.405,4.429
				c-0.842,1.426-1.727,2.799-2.637,4.112c-1.56,0.109-3.181,0.17-4.864,0.17s-3.304-0.061-4.864-0.17
				c-0.911-1.313-1.795-2.687-2.637-4.112C35.839,44.95,35.04,43.471,34.32,42.024z M54.377,48.017
				c0.48-0.813,0.941-1.63,1.383-2.448c0.553,1.315,1.038,2.61,1.458,3.877c-1.306,0.282-2.695,0.524-4.161,0.72
				C53.505,49.464,53.945,48.748,54.377,48.017z M55.762,38.481c-0.442-0.819-0.904-1.637-1.385-2.452
				c-0.432-0.731-0.872-1.447-1.32-2.148c1.47,0.196,2.862,0.44,4.17,0.721C56.812,35.847,56.326,37.143,55.762,38.481z
				 M46.72,30.279c-0.825-0.028-1.656-0.044-2.493-0.044c-0.838,0-1.669,0.016-2.494,0.044c0.824-1.042,1.658-2.026,2.494-2.943
				C45.062,28.253,45.896,29.237,46.72,30.279z M31.294,20.123c0.421-0.248,0.908-0.369,1.492-0.369
				c2.462,0,5.807,2.026,9.293,5.372c-1.492,1.619-2.972,3.432-4.403,5.407c-2.57,0.238-5.03,0.615-7.32,1.122
				C28.831,25.691,29.23,21.342,31.294,20.123z M28.246,48.695c-5.911-1.719-9.452-4.274-9.452-6.672s3.542-4.953,9.452-6.672
				c0.707,2.165,1.598,4.407,2.659,6.671C29.845,44.288,28.953,46.529,28.246,48.695z M32.786,64.291
				c-0.583,0-1.071-0.121-1.491-0.369c-1.717-1.014-2.274-4.342-1.49-8.902c0.146-0.849,0.338-1.728,0.566-2.626
				c2.286,0.506,4.741,0.882,7.306,1.119c1.431,1.975,2.91,3.788,4.403,5.406C38.593,62.265,35.247,64.291,32.786,64.291z
				 M41.733,53.767c0.825,0.028,1.656,0.044,2.494,0.044c0.837,0,1.669-0.016,2.493-0.044c-0.824,1.041-1.658,2.025-2.493,2.943
				C43.391,55.792,42.557,54.808,41.733,53.767z M57.159,63.922c-0.42,0.248-0.908,0.369-1.491,0.369
				c-2.462,0-5.807-2.026-9.293-5.372c1.492-1.618,2.972-3.432,4.403-5.406c2.565-0.237,5.019-0.613,7.306-1.119
				c0.228,0.898,0.42,1.777,0.566,2.626C59.433,59.58,58.876,62.908,57.159,63.922z M60.208,48.695
				c-0.707-2.166-1.599-4.407-2.66-6.673c1.061-2.265,1.952-4.506,2.659-6.672c5.911,1.719,9.452,4.274,9.452,6.672
				S66.118,46.976,60.208,48.695z"/>
		</g>
		<g>
			<circle fill="#8ED6FB" cx="44.227" cy="42.023" r="5.496"/>
		</g>
	</g>
</g>
</svg>
