<?xml version="1.0" encoding="utf-8"?>
<!-- Generator: Adobe Illustrator 17.0.0, SVG Export Plug-In . SVG Version: 6.00 Build 0)  -->
<!DOCTYPE svg PUBLIC "-//W3C//DTD SVG 1.1//EN" "http://www.w3.org/Graphics/SVG/1.1/DTD/svg11.dtd">
<svg version="1.1" id="Layer_2" xmlns="http://www.w3.org/2000/svg" xmlns:xlink="http://www.w3.org/1999/xlink" x="0px" y="0px"
	 width="88px" height="90px" viewBox="0 0 88 90" enable-background="new 0 0 88 90" xml:space="preserve">
<path fill="#FFFFFF" d="M44,84.452c-23.171,0-42.022-18.851-42.022-42.022S20.829,0.407,44,0.407s42.022,18.851,42.022,42.022
	S67.171,84.452,44,84.452z"/>
<path fill="#DCDCDC" d="M44,89.593c-24.262,0-44-19.738-44-44c0-24.262,19.738-44,44-44c24.262,0,44,19.738,44,44
	C88,69.855,68.262,89.593,44,89.593z"/>
<circle fill="#B40707" cx="44" cy="42.429" r="40.243"/>
<path opacity="0.2" fill="#1E0E00" d="M12.201,38.16l-8.248,8.248c1.638,16.69,13.472,30.387,29.19,34.781l11.043-11.043
	L12.201,38.16z"/>
<path fill="#FFFFFF" d="M44,84.452c-23.171,0-42.022-18.851-42.022-42.022S20.829,0.407,44,0.407s42.022,18.851,42.022,42.022
	S67.171,84.452,44,84.452z M44,3.966c-21.209,0-38.463,17.255-38.463,38.463c0,21.208,17.254,38.463,38.463,38.463
	s38.463-17.255,38.463-38.463C82.463,21.221,65.209,3.966,44,3.966z"/>
<polygon fill="#FF0404" points="44.186,38.663 28.308,38.663 44.186,70.176 60.065,38.663 "/>
<polygon fill="#FF3939" points="12.185,38.663 44.186,70.176 28.308,38.663 "/>
<polygon fill="#FF3939" points="60.065,38.663 44.186,70.176 76.187,38.663 "/>
<polygon opacity="0.2" fill="#1E0E00" points="60.065,54.419 28.064,54.419 28.064,54.419 44.065,69.809 "/>
<polygon opacity="0.1" fill="#EEEEEE" points="44.186,38.663 12.185,38.663 12.185,38.663 28.186,54.053 "/>
<polygon opacity="0.1" fill="#EEEEEE" points="76.065,38.663 44.064,38.663 44.064,38.663 60.065,54.053 "/>
<polygon fill="#FF0404" points="12.185,38.663 44.186,38.663 44.186,38.663 28.186,23.274 "/>
<polygon fill="#FF0404" points="43.698,38.663 75.698,38.663 75.699,38.663 59.698,23.274 "/>
<polygon fill="#FF1B16" points="59.698,23.274 27.698,23.274 27.697,23.274 43.698,38.663 "/>
<polygon fill="#FF3939" points="27.698,38.663 59.698,38.663 59.699,38.663 43.698,23.273 "/>
<polygon opacity="0.1" fill="#EEEEEE" points="59.698,23.274 27.698,23.274 27.697,23.274 43.698,38.663 "/>
<path fill="none" d="M44,84.452c-23.171,0-42.022-18.851-42.022-42.022S20.829,0.407,44,0.407s42.022,18.851,42.022,42.022
	S67.171,84.452,44,84.452z"/>
</svg>
