<?xml version="1.0" encoding="utf-8"?>
<!-- Generator: Adobe Illustrator 17.0.0, SVG Export Plug-In . SVG Version: 6.00 Build 0)  -->
<!DOCTYPE svg PUBLIC "-//W3C//DTD SVG 1.1//EN" "http://www.w3.org/Graphics/SVG/1.1/DTD/svg11.dtd">
<svg version="1.1" id="Layer_1" xmlns="http://www.w3.org/2000/svg" xmlns:xlink="http://www.w3.org/1999/xlink" x="0px" y="0px"
	 width="88px" height="90px" viewBox="0 0 88 90" enable-background="new 0 0 88 90" xml:space="preserve">
<path fill="#FFFFFF" d="M44,84.045c-23.171,0-42.022-18.851-42.022-42.022S20.829,0,44,0s42.022,18.851,42.022,42.022
	S67.171,84.045,44,84.045z"/>
<path fill="#DADADA" d="M44,89.186c-24.262,0-44-19.738-44-44c0-24.262,19.738-44,44-44c24.262,0,44,19.738,44,44
	C88,69.448,68.262,89.186,44,89.186z"/>
<circle fill="#577896" cx="44" cy="42.022" r="40.243"/>
<g>
	<path opacity="0.2" fill="#231C03" d="M78.601,47.667C79.013,49.226,77.819,44.699,78.601,47.667L78.601,47.667z"/>
	<path opacity="0.2" fill="#231C03" d="M76.618,52.646c0.643-0.651,1.373-1.225,1.769-2.071c0.425-0.907,0.469-1.946,0.215-2.908
		c-1.25-4.738-6.568-6.243-10.936-5.482c-0.671,0.117-1.332,0.282-1.982,0.485c-0.562,0.175-0.989,0.346-1.576,0.174
		c-0.53-0.155-0.527-0.743-0.661-1.215c-0.203-0.72-0.395-1.443-0.546-2.175c-0.132-0.64-0.289-1.332-0.269-1.988
		c0.021-0.679,0.284-1.326,0.494-1.963c0.049-0.149,0.096-0.299,0.138-0.449c0.063-0.226-0.071-0.215-0.26-0.303
		c-0.286-0.134-0.587-0.235-0.896-0.296c-0.58-0.114-1.199-0.084-1.746,0.153c-0.633,0.275-1.143,0.886-1.613,1.375
		c-0.537,0.484-1.022,1.025-1.55,1.518c-1.124,1.049-2.226,2.141-3.304,3.236c-0.017-0.938,0.149-1.87,0.419-2.765
		c0.167-0.552,0.323-1.309-0.312-1.603c-1.074-0.496-2.545,0.14-3.286,0.944c-0.586,0.538-1.182,1.105-1.724,1.689
		c-0.551,0.507-1.117,1.038-1.622,1.589c-0.588,0.538-1.181,1.108-1.726,1.691c-0.137,0.126-0.277,0.258-0.403,0.395
		c-0.128-0.073-0.273-0.112-0.418-0.136c-0.403-0.07-0.823-0.048-1.23-0.025c0-1.136,0.191-2.847-0.94-3.562
		c1.674-1.674,3.34-3.395,5.091-4.987c0.901-0.833,1.769-1.716,2.637-2.584c1.645-1.514,3.009-3.285,3.825-5.381
		c0.749-1.923,1.113-4.099,0.459-6.102c-0.602-1.844-2.022-3.236-3.738-4.08c-4.846-2.384-10.668-1.64-15.625-0.027
		c-2.454,0.799-4.811,1.873-7.078,3.102c-2.312,1.253-4.599,2.618-6.646,4.277c-0.782,0.634-8.537,8.152-17.783,17.174
		c-0.023,0.556-0.037,1.115-0.037,1.676c0,22.225,18.017,40.243,40.243,40.243c0.835,0,1.663-0.029,2.486-0.079
		C59.633,69.33,75.84,53.476,76.618,52.646z"/>
</g>
<path fill="none" d="M44,82.926c-22.554,0-40.904-18.35-40.904-40.904C3.096,19.468,21.446,1.119,44,1.119
	c22.554,0,40.904,18.35,40.904,40.904C84.904,64.577,66.554,82.926,44,82.926z"/>
<path fill="#FFFFFF" d="M44,84.045c-23.171,0-42.022-18.851-42.022-42.022S20.829,0,44,0s42.022,18.851,42.022,42.022
	S67.171,84.045,44,84.045z M44,3.56c-21.209,0-38.463,17.255-38.463,38.463c0,21.208,17.254,38.463,38.463,38.463
	s38.463-17.255,38.463-38.463C82.463,20.814,65.209,3.56,44,3.56z"/>
<path fill-rule="evenodd" clip-rule="evenodd" fill="#CF77AF" d="M43.593,42.515c2.011-0.117,2.283,0.24,1.808,2.1
	c-0.452,1.77-0.89,3.544-1.277,5.33c-0.109,0.502-0.017,1.048-0.017,1.994c0.416-0.626,0.645-0.884,0.777-1.185
	c1.948-4.433,3.896-8.866,5.812-13.313c0.437-1.015,2.917-1.675,3.634-0.83c0.225,0.265,0.115,0.931-0.015,1.361
	c-0.649,2.15-0.644,4.214,0.628,6.301c0.206-0.196,0.405-0.307,0.487-0.475c1.3-2.711,2.631-5.408,3.854-8.153
	c0.561-1.261,2.348-1.687,4.021-0.738c-0.236,0.937-0.75,1.925-0.663,2.856c0.153,1.643,0.629,3.265,1.093,4.86
	c0.06,0.208,0.92,0.397,1.293,0.266c2.571-0.91,5.183-1.212,7.826-0.529c2.829,0.732,4.967,2.34,5.749,5.308
	c0.638,2.416-0.692,4.588-3.026,5.085c-0.121-0.119-0.242-0.238-0.362-0.356c0.278-0.109,0.614-0.152,0.828-0.335
	c1.882-1.611,2.044-3.64,0.363-5.503c-2.133-2.365-5.004-2.683-7.94-2.568c-1.205,0.048-2.398,0.41-3.494,0.611
	c-0.087,0.318-0.146,0.41-0.128,0.484c0.883,3.753-1.043,6.655-4.885,7.351c-1.433,0.26-2.124-0.31-2.007-1.766
	c0.164-2.046,1.351-3.58,2.776-4.899c0.745-0.691,0.763-1.226,0.357-2.099c-0.545-1.171-0.876-2.442-1.331-3.767
	c-1.251,2.066-2.459,3.999-3.584,5.978c-0.18,0.317-0.076,0.871,0.043,1.271c1.266,4.247-2.36,8.259-6.748,7.442
	c-1.049-0.196-1.329-0.956-0.592-1.942c1.068-1.43,2.19-2.824,3.366-4.166c0.719-0.82,0.9-1.509,0.353-2.556
	c-0.638-1.222-0.986-2.595-1.537-4.115c-0.254,0.542-0.433,0.939-0.622,1.329c-1.556,3.208-3.092,6.426-4.688,9.614
	c-0.363,0.726-0.857,1.422-1.425,2.002c-1.238,1.266-2.482,0.898-2.909-0.806c-0.11-0.441-0.164-0.901-0.2-1.355
	c-0.033-0.424-0.007-0.854-0.271-1.33c-0.557,1.127-1.105,2.259-1.674,3.38c-0.502,0.988-1.195,1.772-2.407,1.758
	c-1.24-0.014-1.814-0.905-2.3-1.885c-1.251-2.527-1.054-5.139-0.479-7.775c0.067-0.304,0.144-0.606,0.302-1.265
	c-1.367,0.767-2.477,1.389-3.666,2.055c1.149,3.091,1.022,6.067-0.353,8.978c-1.66,3.513-5.774,6.036-9.425,5.776
	c-2.919-0.208-4.497-2.184-4.104-5.094c0.308-2.279,1.525-4.026,3.3-5.344c1.758-1.306,3.641-2.445,5.479-3.641
	c0.484-0.316,1.007-0.572,1.736-0.983c-1.013-0.75-1.855-1.347-2.669-1.979c-2.274-1.767-4.693-3.384-6.769-5.362
	c-3.943-3.755-4.15-7.234-1.022-11.724c2.076-2.979,4.771-5.313,7.826-7.217c5.241-3.267,10.747-5.887,17.004-6.533
	c2.917-0.301,5.768,0,8.493,1.089c3.918,1.566,5.531,4.885,4.48,8.983c-0.67,2.611-2.061,4.801-4.008,6.599
	c-4.808,4.438-10.561,5.85-16.901,4.789c-1.246-0.208-2.394-1.232-3.484-2.021c-0.416-0.301-0.544-0.999-0.941-1.788
	c6.34,4.077,11.721,1.766,16.947-1.416c2.054-1.25,3.644-3.064,4.668-5.288c1.673-3.634,0.367-6.18-3.561-7
	c-2.845-0.594-5.663-0.333-8.421,0.433c-6.364,1.767-12.117,4.695-16.747,9.488c-1.078,1.115-1.914,2.588-2.482,4.045
	c-1.004,2.574-0.158,4.919,1.754,6.759c1.777,1.708,3.75,3.213,5.649,4.793c0.83,0.691,1.653,1.816,2.547,1.889
	c0.921,0.075,1.916-0.915,2.898-1.399c1.898-0.937,3.636-2.053,5.086-3.651c0.65-0.717,1.589-1.251,2.495-1.643
	c2.158-0.932,3.362-0.093,3.402,2.241C43.598,41.681,43.593,42.046,43.593,42.515z M28.381,48.955
	c-2.696,1.645-5.452,3.169-7.192,5.928c-0.399,0.632-0.634,1.428-0.732,2.176c-0.21,1.607,0.471,2.377,2.013,2.015
	c1.238-0.291,2.506-0.882,3.508-1.663C28.563,55.397,29.607,51.576,28.381,48.955z M37.002,52.737
	c0.242,0.043,0.483,0.086,0.725,0.13c1.864-3.621,3.466-7.336,4.169-11.698c-2.677,0.503-3.502,2.397-4.316,4.186
	C36.494,47.748,36.006,50.23,37.002,52.737z M59.428,50.568c0.131,0.089,0.262,0.178,0.392,0.266
	c2.109-0.441,3.122-2.324,2.103-4.586C61.012,47.825,60.22,49.196,59.428,50.568z M53.532,49.49
	c-0.939,1.125-1.877,2.25-2.816,3.375c0.102,0.08,0.203,0.16,0.305,0.24C52.363,52.318,53.5,51.363,53.532,49.49z"/>
</svg>
