<?xml version="1.0" encoding="utf-8"?>
<!-- Generator: Adobe Illustrator 17.0.0, SVG Export Plug-In . SVG Version: 6.00 Build 0)  -->
<!DOCTYPE svg PUBLIC "-//W3C//DTD SVG 1.1//EN" "http://www.w3.org/Graphics/SVG/1.1/DTD/svg11.dtd">
<svg version="1.1" id="Layer_2" xmlns="http://www.w3.org/2000/svg" xmlns:xlink="http://www.w3.org/1999/xlink" x="0px" y="0px"
	 width="88px" height="90px" viewBox="0 0 88 90" enable-background="new 0 0 88 90" xml:space="preserve">
<path fill="#FFFFFF" d="M44,84.452c-23.171,0-42.022-18.851-42.022-42.022S20.829,0.407,44,0.407s42.022,18.851,42.022,42.022
	S67.171,84.452,44,84.452z"/>
<path fill="#DCDCDC" d="M44,89.593c-24.262,0-44-19.738-44-44s19.738-44,44-44s44,19.738,44,44S68.262,89.593,44,89.593z"/>
<circle fill="#0E3043" cx="44" cy="42.429" r="40.243"/>
<path opacity="0.2" fill="#1E0E00" enable-background="new    " d="M13.583,37.108l-8.5,10.225
	c1.638,16.69,13.655,30.923,29.373,35.317l9.336-9.901L13.583,37.108z"/>
<path fill="#FFFFFF" d="M44,84.452c-23.171,0-42.022-18.851-42.022-42.022S20.829,0.407,44,0.407s42.022,18.851,42.022,42.022
	S67.171,84.452,44,84.452z M44,3.966c-21.209,0-38.463,17.255-38.463,38.463S22.791,80.892,44,80.892s38.463-17.255,38.463-38.463
	S65.209,3.966,44,3.966z"/>
<path fill="none" d="M44,84.452c-23.171,0-42.022-18.851-42.022-42.022S20.829,0.407,44,0.407s42.022,18.851,42.022,42.022
	S67.171,84.452,44,84.452z"/>
<polygon fill="#FBD789" points="66.617,28.212 58.985,19.258 43.855,19.258 28.709,19.258 21.081,28.212 13.626,37.111 
	28.76,55.003 43.855,72.705 58.943,55.003 74.123,37.111 "/>
<g>
	<polygon fill="none" points="66.617,28.212 66.617,28.212 66.617,28.212 	"/>
	<polygon fill="none" points="28.76,55.003 28.76,55.003 28.76,55.003 	"/>
	<polygon fill="none" points="21.081,28.212 21.081,28.212 21.081,28.212 	"/>
	<polygon fill="none" points="58.943,55.003 58.943,55.003 58.943,55.003 	"/>
	<polygon fill="#E4952C" points="43.855,37.111 53.928,48.959 58.985,37.111 	"/>
	<polygon fill="#E28000" points="43.855,37.111 33.799,48.959 36.331,55.003 51.348,55.003 53.928,48.959 43.855,37.111 	"/>
	<polygon fill="#E4952C" points="28.791,37.111 33.799,48.959 43.855,37.111 	"/>
	<polygon fill="#F6C866" points="53.928,48.959 58.943,55.003 74.123,37.111 58.985,37.111 	"/>
	<polygon fill="#E47700" points="74.123,37.111 66.617,28.212 58.985,37.111 	"/>
	<polygon fill="#E06600" points="58.985,37.111 66.617,28.212 66.617,28.212 51.447,28.212 	"/>
	<polygon fill="#F6BD4B" points="43.855,37.111 36.303,28.212 36.303,28.212 36.303,28.212 36.303,28.212 28.791,37.111 
		43.855,37.111 	"/>
	<polygon fill="#F6BD4B" points="58.985,37.111 51.447,28.212 51.447,28.212 51.447,28.212 51.447,28.212 43.855,37.111 
		43.855,37.111 	"/>
	<polygon fill="#F1B138" points="53.928,48.959 51.348,55.003 58.943,55.003 58.943,55.003 	"/>
	<polygon fill="#E28000" points="43.855,37.111 43.855,37.111 43.855,37.111 	"/>
	<polygon fill="#E79626" points="28.76,55.003 43.855,72.705 36.331,55.003 	"/>
	<polygon fill="#F1B138" points="33.799,48.959 28.76,55.003 28.76,55.003 36.331,55.003 	"/>
	<polygon fill="#F6C866" points="28.791,37.111 13.626,37.111 28.76,55.003 33.799,48.959 	"/>
	<polygon fill="#D25F00" points="36.331,55.003 43.855,72.705 51.348,55.003 	"/>
	<polygon fill="#E79626" points="43.855,72.705 58.943,55.003 51.348,55.003 	"/>
	<polygon fill="#E47700" points="21.081,28.212 13.626,37.111 28.791,37.111 	"/>
	<polygon fill="#FBD789" points="43.855,37.111 51.447,28.212 43.855,19.258 36.303,28.212 	"/>
	<polygon fill="#E37B00" points="51.447,28.212 66.617,28.212 58.985,19.258 51.447,28.212 	"/>
	<polygon fill="#F29F39" points="58.985,19.258 43.855,19.258 51.447,28.212 	"/>
	<polygon fill="#F29F39" points="43.855,19.258 28.709,19.258 36.303,28.212 	"/>
	<polygon fill="#E37B00" points="36.303,28.212 28.709,19.258 21.081,28.212 36.303,28.212 	"/>
	<polygon fill="#E06600" points="36.303,28.212 21.081,28.212 21.081,28.212 28.791,37.111 	"/>
</g>
</svg>
