<?xml version="1.0" encoding="UTF-8"?>
<svg width="88px" height="90px" viewBox="0 0 88 90" version="1.1" xmlns="http://www.w3.org/2000/svg" xmlns:xlink="http://www.w3.org/1999/xlink">
    <!-- Generator: Sketch 42 (36781) - http://www.bohemiancoding.com/sketch -->
    <title>Artboard</title>
    <desc>Created with Sketch.</desc>
    <defs>
        <path d="M44,84.452 C20.829,84.452 1.978,65.601 1.978,42.43 C1.978,19.259 20.829,0.407 44,0.407 C67.171,0.407 86.022,19.258 86.022,42.429 C86.022,65.6 67.171,84.452 44,84.452 Z" id="path-1"></path>
    </defs>
    <g id="Page-1" stroke="none" stroke-width="1" fill="none" fill-rule="evenodd">
        <g id="Artboard">
            <g id="redradix">
                <path d="M44,84.452 C20.829,84.452 1.978,65.601 1.978,42.43 C1.978,19.259 20.829,0.407 44,0.407 C67.171,0.407 86.022,19.258 86.022,42.429 C86.022,65.6 67.171,84.452 44,84.452 Z" id="Shape" fill="#FFFFFF" fill-rule="nonzero"></path>
                <path d="M44,89.593 C19.738,89.593 0,69.855 0,45.593 C0,21.331 19.738,1.593 44,1.593 C68.262,1.593 88,21.331 88,45.593 C88,69.855 68.262,89.593 44,89.593 Z" id="Shape" fill="#DCDCDC" fill-rule="nonzero"></path>
                <circle id="Oval" fill="#B40707" fill-rule="nonzero" cx="44" cy="42.429" r="40.243"></circle>
                <mask id="mask-2" fill="white">
                    <use xlink:href="#path-1"></use>
                </mask>
                <g id="Shape"></g>
                <polygon id="Rectangle" fill="#910202" mask="url(#mask-2)" points="-19.6660188 52.8517543 36.0498926 14.5800685 55.4661927 68.6341551 9.83479951 100.633055"></polygon>
                <path d="M31.8767689,45.0678266 C26.1787741,43.086822 20.6371745,41.152736 15,39.1908464 C16.9757914,34.4625012 18.9046643,29.8505835 20.8995707,25.0735821 C26.2934639,27.5776414 31.6369631,30.0556349 37.2098418,32.6431049 C36.5912123,26.6722876 35.98996,20.8891443 35.3800191,15 L53.0665671,15 C52.3158706,20.9864568 51.5703873,26.9242574 50.8005759,33.0705848 C56.2431253,30.375376 61.5327551,27.7583646 66.9648782,25.0735821 C68.9302433,29.7654351 70.873018,34.4034186 72.8748752,39.1873709 C67.0934697,41.1040797 61.4284917,42.9825586 55.5706264,44.927071 C59.9201479,49.5615791 64.1254383,54.0396921 68.4367299,58.6359703 C64.0489785,62.0019404 59.7394246,65.3140411 55.3290828,68.6991261 C51.5790759,63.4512017 47.8586103,58.2536712 44.0078154,52.8667289 C40.0145272,58.3405574 36.0994366,63.7118602 32.1113615,69.177 C27.8487262,65.5938145 23.6868789,62.0975152 19.4346699,58.5195429 C23.5947795,54.0223149 27.6888557,49.5963336 31.8767689,45.0678266 Z" id="asterisco_1_" fill="#FFFFFF" mask="url(#mask-2)"></path>
                <path d="M44,84.452 C20.829,84.452 1.978,65.601 1.978,42.43 C1.978,19.259 20.829,0.407 44,0.407 C67.171,0.407 86.022,19.258 86.022,42.429 C86.022,65.6 67.171,84.452 44,84.452 Z M44,3.966 C22.791,3.966 5.537,21.221 5.537,42.429 C5.537,63.637 22.791,80.892 44,80.892 C65.209,80.892 82.463,63.637 82.463,42.429 C82.463,21.221 65.209,3.966 44,3.966 Z" id="Shape" fill="#FFFFFF" fill-rule="nonzero"></path>
            </g>
        </g>
    </g>
</svg>