<?xml version="1.0" encoding="utf-8"?>
<!-- Generator: Adobe Illustrator 16.0.0, SVG Export Plug-In . SVG Version: 6.00 Build 0)  -->
<!DOCTYPE svg PUBLIC "-//W3C//DTD SVG 1.1//EN" "http://www.w3.org/Graphics/SVG/1.1/DTD/svg11.dtd">
<svg version="1.1" id="Capa_1" xmlns:sketch="http://www.bohemiancoding.com/sketch/ns"
	 xmlns="http://www.w3.org/2000/svg" xmlns:xlink="http://www.w3.org/1999/xlink" x="0px" y="0px" width="16px" height="16px"
	 viewBox="0 0 16 16" enable-background="new 0 0 16 16" xml:space="preserve">
<path id="Shape" fill="#FFFFFF" d="M9.732,8.484l4.949,4.242C14.502,12.896,14.26,13,13.993,13H2.007
	c-0.268,0-0.511-0.104-0.691-0.271l4.952-4.244L8,10L9.732,8.484z M8,9L1.318,3.273C1.498,3.104,1.74,3,2.007,3h11.986
	c0.268,0,0.511,0.103,0.69,0.271L8,9z M15,12.186l-4.832-4.107L15,3.875V12.186L15,12.186z M1,12.186V3.878l4.833,4.2L1,12.186
	L1,12.186z"/>
</svg>
